<ttFont>
    <TTGlyph name=".notdef" xMin="193" yMin="0" xMax="1034" yMax="1462">
      <contour>
        <pt x="193" y="1462" on="1"/>
        <pt x="1034" y="1462" on="1"/>
        <pt x="1034" y="0" on="1"/>
        <pt x="193" y="0" on="1"/>
      </contour>
      <contour>
        <pt x="297" y="104" on="1"/>
        <pt x="930" y="104" on="1"/>
        <pt x="930" y="1358" on="1"/>
        <pt x="297" y="1358" on="1"/>
      </contour>
    </TTGlyph>
    <TTGlyph name="glyph00004" xMin="180" yMin="-33" xMax="1057" yMax="1466">
      <contour>
        <pt x="324" y="778" on="1"/>
        <pt x="180" y="922" on="0"/>
        <pt x="180" y="1098" on="1"/>
        <pt x="180" y="1259" on="0"/>
        <pt x="415" y="1466" on="0"/>
        <pt x="602" y="1466" on="1"/>
        <pt x="824" y="1466" on="0"/>
        <pt x="1057" y="1224" on="0"/>
        <pt x="1057" y="979" on="1"/>
        <pt x="1057" y="593" on="0"/>
        <pt x="754" y="-33" on="1"/>
        <pt x="590" y="12" on="1"/>
        <pt x="726" y="285" on="0"/>
        <pt x="881" y="794" on="0"/>
        <pt x="881" y="971" on="1"/>
        <pt x="881" y="1140" on="0"/>
        <pt x="740" y="1315" on="0"/>
        <pt x="602" y="1315" on="1"/>
        <pt x="490" y="1315" on="0"/>
        <pt x="352" y="1199" on="0"/>
        <pt x="352" y="1104" on="1"/>
        <pt x="352" y="992" on="0"/>
        <pt x="453" y="885" on="1"/>
      </contour>
    </TTGlyph>
    <TTGlyph name="glyph00005" xMin="489" yMin="768" xMax="1110" yMax="1735">
      <contour>
        <pt x="489" y="827" on="1"/>
        <pt x="556" y="986" on="0"/>
        <pt x="815" y="1485" on="0"/>
        <pt x="963" y="1735" on="1"/>
        <pt x="1110" y="1663" on="1"/>
        <pt x="1005" y="1490" on="0"/>
        <pt x="721" y="951" on="0"/>
        <pt x="641" y="768" on="1"/>
      </contour>
    </TTGlyph>
    <TTGlyph name="glyph00006" xMin="6" yMin="-524" xMax="795" yMax="115">
      <contour>
        <pt x="795" y="84" on="1"/>
        <pt x="750" y="-237" on="0"/>
        <pt x="509" y="-524" on="0"/>
        <pt x="289" y="-524" on="1"/>
        <pt x="175" y="-524" on="0"/>
        <pt x="6" y="-374" on="0"/>
        <pt x="6" y="-260" on="1"/>
        <pt x="6" y="-87" on="0"/>
        <pt x="224" y="115" on="0"/>
        <pt x="418" y="115" on="1"/>
        <pt x="469" y="115" on="0"/>
        <pt x="738" y="95" on="0"/>
      </contour>
      <contour>
        <pt x="317" y="-373" on="1"/>
        <pt x="547" y="-373" on="0"/>
        <pt x="610" y="-29" on="1"/>
        <pt x="533" y="-18" on="0"/>
        <pt x="418" y="-18" on="1"/>
        <pt x="303" y="-18" on="0"/>
        <pt x="178" y="-129" on="0"/>
        <pt x="178" y="-240" on="1"/>
        <pt x="178" y="-294" on="0"/>
        <pt x="257" y="-373" on="0"/>
      </contour>
    </TTGlyph>
    <TTGlyph name="glyph00007" xMin="66" yMin="-434" xMax="940" yMax="344">
      <contour>
        <pt x="66" y="-283" on="1"/>
        <pt x="129" y="-256" on="0"/>
        <pt x="281" y="-256" on="1"/>
        <pt x="311" y="-256" on="0"/>
        <pt x="399" y="-269" on="1"/>
        <pt x="486" y="-283" on="0"/>
        <pt x="547" y="-283" on="1"/>
        <pt x="667" y="-283" on="0"/>
        <pt x="764" y="-243" on="0"/>
        <pt x="764" y="-203" on="1"/>
        <pt x="764" y="-155" on="0"/>
        <pt x="680" y="-111" on="0"/>
        <pt x="592" y="-109" on="1"/>
        <pt x="411" y="-108" on="0"/>
        <pt x="287" y="-70" on="0"/>
        <pt x="219" y="17" on="0"/>
        <pt x="219" y="92" on="1"/>
        <pt x="219" y="207" on="0"/>
        <pt x="390" y="344" on="0"/>
        <pt x="535" y="344" on="1"/>
        <pt x="713" y="344" on="0"/>
        <pt x="848" y="291" on="1"/>
        <pt x="797" y="145" on="1"/>
        <pt x="644" y="199" on="0"/>
        <pt x="545" y="199" on="1"/>
        <pt x="487" y="199" on="0"/>
        <pt x="420" y="179" on="0"/>
        <pt x="391" y="146" on="0"/>
        <pt x="391" y="111" on="1"/>
        <pt x="391" y="66" on="0"/>
        <pt x="477" y="24" on="0"/>
        <pt x="565" y="22" on="1"/>
        <pt x="735" y="16" on="0"/>
        <pt x="871" y="-24" on="0"/>
        <pt x="940" y="-116" on="0"/>
        <pt x="940" y="-188" on="1"/>
        <pt x="940" y="-307" on="0"/>
        <pt x="742" y="-434" on="0"/>
        <pt x="547" y="-434" on="1"/>
        <pt x="473" y="-434" on="0"/>
        <pt x="393" y="-424" on="1"/>
        <pt x="313" y="-414" on="0"/>
        <pt x="283" y="-414" on="1"/>
        <pt x="151" y="-414" on="0"/>
        <pt x="100" y="-426" on="1"/>
      </contour>
    </TTGlyph>
    <TTGlyph name="glyph00008" xMin="567" yMin="1331" xMax="1352" yMax="1978">
      <contour>
        <pt x="567" y="1442" on="1"/>
        <pt x="884" y="1728" on="0"/>
        <pt x="1249" y="1978" on="1"/>
        <pt x="1352" y="1858" on="1"/>
        <pt x="1208" y="1761" on="0"/>
        <pt x="827" y="1460" on="0"/>
        <pt x="680" y="1331" on="1"/>
      </contour>
    </TTGlyph>
    <TTGlyph name="glyph00009" xMin="10" yMin="-20" xMax="780" yMax="780">
      <contour>
        <pt x="10" y="53" on="1"/>
        <pt x="146" y="315" on="0"/>
        <pt x="346" y="586" on="0"/>
        <pt x="562" y="750" on="0"/>
        <pt x="690" y="780" on="1"/>
        <pt x="780" y="639" on="1"/>
        <pt x="663" y="612" on="0"/>
        <pt x="471" y="469" on="0"/>
        <pt x="296" y="229" on="0"/>
        <pt x="172" y="-20" on="1"/>
      </contour>
    </TTGlyph>
    <TTGlyph name="glyph00010" xMin="864" yMin="-514" xMax="1329" yMax="625">
      <contour>
        <pt x="944" y="625" on="1"/>
        <pt x="1329" y="443" on="0"/>
        <pt x="1329" y="-61" on="1"/>
        <pt x="1329" y="-257" on="0"/>
        <pt x="1249" y="-514" on="1"/>
        <pt x="1073" y="-473" on="1"/>
        <pt x="1153" y="-209" on="0"/>
        <pt x="1153" y="-35" on="1"/>
        <pt x="1153" y="339" on="0"/>
        <pt x="864" y="471" on="1"/>
      </contour>
    </TTGlyph>
    <TTGlyph name="glyph00011" xMin="33" yMin="-553" xMax="1194" yMax="-72">
      <contour>
        <pt x="330" y="-72" on="1"/>
        <pt x="400" y="-72" on="0"/>
        <pt x="527" y="-139" on="0"/>
        <pt x="616" y="-238" on="1"/>
        <pt x="690" y="-161" on="0"/>
        <pt x="769" y="-104" on="0"/>
        <pt x="852" y="-72" on="0"/>
        <pt x="897" y="-72" on="1"/>
        <pt x="1032" y="-72" on="0"/>
        <pt x="1194" y="-203" on="0"/>
        <pt x="1194" y="-303" on="1"/>
        <pt x="1194" y="-410" on="0"/>
        <pt x="1012" y="-553" on="0"/>
        <pt x="874" y="-553" on="1"/>
        <pt x="791" y="-553" on="0"/>
        <pt x="663" y="-489" on="0"/>
        <pt x="610" y="-444" on="1"/>
        <pt x="484" y="-553" on="0"/>
        <pt x="352" y="-553" on="1"/>
        <pt x="214" y="-553" on="0"/>
        <pt x="33" y="-412" on="0"/>
        <pt x="33" y="-303" on="1"/>
        <pt x="33" y="-203" on="0"/>
        <pt x="196" y="-72" on="0"/>
      </contour>
      <contour>
        <pt x="883" y="-223" on="1"/>
        <pt x="855" y="-223" on="0"/>
        <pt x="786" y="-267" on="0"/>
        <pt x="717" y="-342" on="1"/>
        <pt x="805" y="-418" on="0"/>
        <pt x="887" y="-418" on="1"/>
        <pt x="940" y="-418" on="0"/>
        <pt x="1004" y="-361" on="0"/>
        <pt x="1004" y="-319" on="1"/>
        <pt x="1004" y="-277" on="0"/>
        <pt x="938" y="-223" on="0"/>
      </contour>
      <contour>
        <pt x="322" y="-223" on="1"/>
        <pt x="271" y="-223" on="0"/>
        <pt x="223" y="-273" on="0"/>
        <pt x="223" y="-307" on="1"/>
        <pt x="223" y="-354" on="0"/>
        <pt x="293" y="-418" on="0"/>
        <pt x="346" y="-418" on="1"/>
        <pt x="424" y="-418" on="0"/>
        <pt x="510" y="-344" on="1"/>
        <pt x="424" y="-262" on="0"/>
        <pt x="353" y="-223" on="0"/>
      </contour>
    </TTGlyph>
    <TTGlyph name="glyph00012" xMin="-141" yMin="-578" xMax="1083" yMax="133">
      <contour>
        <pt x="688" y="133" on="1"/>
        <pt x="881" y="84" on="0"/>
        <pt x="1083" y="-110" on="0"/>
        <pt x="1083" y="-240" on="1"/>
        <pt x="1083" y="-393" on="0"/>
        <pt x="794" y="-578" on="0"/>
        <pt x="561" y="-578" on="1"/>
        <pt x="380" y="-578" on="0"/>
        <pt x="12" y="-463" on="0"/>
        <pt x="-141" y="-354" on="1"/>
        <pt x="-47" y="-229" on="1"/>
        <pt x="80" y="-318" on="0"/>
        <pt x="407" y="-426" on="0"/>
        <pt x="551" y="-426" on="1"/>
        <pt x="725" y="-426" on="0"/>
        <pt x="907" y="-336" on="0"/>
        <pt x="907" y="-248" on="1"/>
        <pt x="907" y="-170" on="0"/>
        <pt x="770" y="-60" on="0"/>
        <pt x="616" y="-20" on="1"/>
      </contour>
    </TTGlyph>
    <TTGlyph name="glyph00013" xMin="311" yMin="1583" xMax="954" yMax="1860">
      <contour>
        <pt x="311" y="1722" on="1"/>
        <pt x="311" y="1798" on="0"/>
        <pt x="363" y="1860" on="0"/>
        <pt x="416" y="1860" on="1"/>
        <pt x="468" y="1860" on="0"/>
        <pt x="524" y="1798" on="0"/>
        <pt x="524" y="1722" on="1"/>
        <pt x="524" y="1583" on="0"/>
        <pt x="416" y="1583" on="1"/>
        <pt x="363" y="1583" on="0"/>
        <pt x="311" y="1648" on="0"/>
      </contour>
      <contour>
        <pt x="741" y="1722" on="1"/>
        <pt x="741" y="1798" on="0"/>
        <pt x="793" y="1860" on="0"/>
        <pt x="846" y="1860" on="1"/>
        <pt x="898" y="1860" on="0"/>
        <pt x="954" y="1798" on="0"/>
        <pt x="954" y="1722" on="1"/>
        <pt x="954" y="1583" on="0"/>
        <pt x="846" y="1583" on="1"/>
        <pt x="793" y="1583" on="0"/>
        <pt x="741" y="1648" on="0"/>
      </contour>
    </TTGlyph>
    <TTGlyph name="glyph00014" xMin="180" yMin="-33" xMax="1516" yMax="1466">
      <contour>
        <pt x="1516" y="307" on="1"/>
        <pt x="1516" y="117" on="0"/>
        <pt x="1368" y="-33" on="1"/>
        <pt x="1239" y="74" on="1"/>
        <pt x="1339" y="180" on="0"/>
        <pt x="1339" y="293" on="1"/>
        <pt x="1339" y="420" on="0"/>
        <pt x="1178" y="587" on="0"/>
        <pt x="1008" y="629" on="1"/>
        <pt x="937" y="345" on="0"/>
        <pt x="754" y="-33" on="1"/>
        <pt x="590" y="12" on="1"/>
        <pt x="726" y="285" on="0"/>
        <pt x="881" y="794" on="0"/>
        <pt x="881" y="971" on="1"/>
        <pt x="881" y="1140" on="0"/>
        <pt x="740" y="1315" on="0"/>
        <pt x="602" y="1315" on="1"/>
        <pt x="490" y="1315" on="0"/>
        <pt x="352" y="1199" on="0"/>
        <pt x="352" y="1104" on="1"/>
        <pt x="352" y="992" on="0"/>
        <pt x="453" y="885" on="1"/>
        <pt x="324" y="778" on="1"/>
        <pt x="180" y="922" on="0"/>
        <pt x="180" y="1098" on="1"/>
        <pt x="180" y="1259" on="0"/>
        <pt x="415" y="1466" on="0"/>
        <pt x="602" y="1466" on="1"/>
        <pt x="824" y="1466" on="0"/>
        <pt x="1057" y="1224" on="0"/>
        <pt x="1057" y="979" on="1"/>
        <pt x="1057" y="879" on="0"/>
        <pt x="1038" y="778" on="1"/>
        <pt x="1276" y="732" on="0"/>
        <pt x="1516" y="493" on="0"/>
      </contour>
    </TTGlyph>
    <TTGlyph name="glyph00015" xMin="135" yMin="-35" xMax="1069" yMax="1475">
      <contour>
        <pt x="932" y="369" on="1"/>
        <pt x="932" y="286" on="0"/>
        <pt x="851" y="52" on="0"/>
        <pt x="788" y="-35" on="1"/>
        <pt x="643" y="31" on="1"/>
        <pt x="683" y="94" on="0"/>
        <pt x="756" y="302" on="0"/>
        <pt x="756" y="365" on="1"/>
        <pt x="756" y="429" on="0"/>
        <pt x="683" y="479" on="0"/>
        <pt x="608" y="479" on="1"/>
        <pt x="382" y="479" on="0"/>
        <pt x="135" y="709" on="0"/>
        <pt x="135" y="907" on="1"/>
        <pt x="135" y="1192" on="0"/>
        <pt x="393" y="1475" on="0"/>
        <pt x="655" y="1475" on="1"/>
        <pt x="752" y="1475" on="0"/>
        <pt x="995" y="1414" on="0"/>
        <pt x="1069" y="1372" on="1"/>
        <pt x="1004" y="1227" on="1"/>
        <pt x="929" y="1272" on="0"/>
        <pt x="726" y="1321" on="0"/>
        <pt x="645" y="1321" on="1"/>
        <pt x="463" y="1321" on="0"/>
        <pt x="307" y="1125" on="0"/>
        <pt x="307" y="911" on="1"/>
        <pt x="307" y="759" on="0"/>
        <pt x="470" y="631" on="0"/>
        <pt x="643" y="631" on="1"/>
        <pt x="808" y="631" on="0"/>
        <pt x="932" y="510" on="0"/>
      </contour>
    </TTGlyph>
    <TTGlyph name="glyph00016" xMin="203" yMin="-31" xMax="1333" yMax="1499">
      <contour>
        <pt x="1333" y="1130" on="1"/>
        <pt x="1333" y="1018" on="0"/>
        <pt x="1180" y="835" on="0"/>
        <pt x="901" y="729" on="0"/>
        <pt x="733" y="727" on="1"/>
        <pt x="708" y="624" on="0"/>
        <pt x="609" y="117" on="0"/>
        <pt x="588" y="-31" on="1"/>
        <pt x="424" y="-14" on="1"/>
        <pt x="442" y="108" on="0"/>
        <pt x="529" y="584" on="0"/>
        <pt x="567" y="739" on="1"/>
        <pt x="401" y="770" on="0"/>
        <pt x="203" y="970" on="0"/>
        <pt x="203" y="1118" on="1"/>
        <pt x="203" y="1308" on="0"/>
        <pt x="346" y="1499" on="1"/>
        <pt x="481" y="1430" on="1"/>
        <pt x="440" y="1362" on="1"/>
        <pt x="369" y="1245" on="0"/>
        <pt x="369" y="1133" on="1"/>
        <pt x="369" y="1026" on="0"/>
        <pt x="495" y="895" on="0"/>
        <pt x="604" y="870" on="1"/>
        <pt x="685" y="1148" on="0"/>
        <pt x="889" y="1393" on="0"/>
        <pt x="1042" y="1393" on="1"/>
        <pt x="1172" y="1393" on="0"/>
        <pt x="1333" y="1247" on="0"/>
      </contour>
      <contour>
        <pt x="1034" y="1241" on="1"/>
        <pt x="970" y="1241" on="0"/>
        <pt x="888" y="1169" on="0"/>
        <pt x="809" y="1003" on="0"/>
        <pt x="768" y="858" on="1"/>
        <pt x="936" y="867" on="0"/>
        <pt x="1161" y="1017" on="0"/>
        <pt x="1161" y="1126" on="1"/>
        <pt x="1161" y="1178" on="0"/>
        <pt x="1091" y="1241" on="0"/>
      </contour>
    </TTGlyph>
    <TTGlyph name="glyph00017" xMin="203" yMin="-33" xMax="1333" yMax="1499">
      <contour>
        <pt x="1196" y="307" on="1"/>
        <pt x="1196" y="223" on="0"/>
        <pt x="1113" y="32" on="0"/>
        <pt x="1049" y="-33" on="1"/>
        <pt x="920" y="74" on="1"/>
        <pt x="1020" y="180" on="0"/>
        <pt x="1020" y="293" on="1"/>
        <pt x="1020" y="359" on="0"/>
        <pt x="954" y="434" on="0"/>
        <pt x="808" y="488" on="0"/>
        <pt x="686" y="506" on="1"/>
        <pt x="622" y="211" on="0"/>
        <pt x="588" y="-31" on="1"/>
        <pt x="424" y="-14" on="1"/>
        <pt x="442" y="108" on="0"/>
        <pt x="529" y="584" on="0"/>
        <pt x="567" y="739" on="1"/>
        <pt x="401" y="770" on="0"/>
        <pt x="203" y="970" on="0"/>
        <pt x="203" y="1118" on="1"/>
        <pt x="203" y="1308" on="0"/>
        <pt x="346" y="1499" on="1"/>
        <pt x="481" y="1430" on="1"/>
        <pt x="440" y="1362" on="1"/>
        <pt x="369" y="1245" on="0"/>
        <pt x="369" y="1133" on="1"/>
        <pt x="369" y="1026" on="0"/>
        <pt x="495" y="895" on="0"/>
        <pt x="604" y="870" on="1"/>
        <pt x="685" y="1148" on="0"/>
        <pt x="889" y="1393" on="0"/>
        <pt x="1042" y="1393" on="1"/>
        <pt x="1172" y="1393" on="0"/>
        <pt x="1333" y="1247" on="0"/>
        <pt x="1333" y="1130" on="1"/>
        <pt x="1333" y="1018" on="0"/>
        <pt x="1180" y="835" on="0"/>
        <pt x="901" y="729" on="0"/>
        <pt x="733" y="727" on="1"/>
        <pt x="715" y="641" on="1"/>
        <pt x="966" y="615" on="0"/>
        <pt x="1196" y="458" on="0"/>
      </contour>
      <contour>
        <pt x="1034" y="1241" on="1"/>
        <pt x="970" y="1241" on="0"/>
        <pt x="888" y="1169" on="0"/>
        <pt x="809" y="1003" on="0"/>
        <pt x="768" y="858" on="1"/>
        <pt x="936" y="867" on="0"/>
        <pt x="1161" y="1017" on="0"/>
        <pt x="1161" y="1126" on="1"/>
        <pt x="1161" y="1178" on="0"/>
        <pt x="1091" y="1241" on="0"/>
      </contour>
    </TTGlyph>
    <TTGlyph name="glyph00018" xMin="203" yMin="-35" xMax="1083" yMax="1501">
      <contour>
        <pt x="1083" y="1389" on="1"/>
        <pt x="1021" y="1285" on="0"/>
        <pt x="778" y="1013" on="0"/>
        <pt x="705" y="965" on="1"/>
        <pt x="1026" y="933" on="0"/>
        <pt x="1026" y="655" on="1"/>
        <pt x="1026" y="505" on="0"/>
        <pt x="801" y="149" on="0"/>
        <pt x="596" y="-35" on="1"/>
        <pt x="467" y="53" on="1"/>
        <pt x="676" y="244" on="0"/>
        <pt x="850" y="527" on="0"/>
        <pt x="850" y="651" on="1"/>
        <pt x="850" y="732" on="0"/>
        <pt x="731" y="827" on="0"/>
        <pt x="637" y="827" on="1"/>
        <pt x="591" y="827" on="0"/>
        <pt x="464" y="808" on="0"/>
        <pt x="420" y="791" on="1"/>
        <pt x="383" y="932" on="1"/>
        <pt x="463" y="963" on="0"/>
        <pt x="648" y="1065" on="0"/>
        <pt x="688" y="1104" on="1"/>
        <pt x="649" y="1100" on="1"/>
        <pt x="555" y="1100" on="0"/>
        <pt x="377" y="1187" on="0"/>
        <pt x="236" y="1336" on="0"/>
        <pt x="203" y="1415" on="1"/>
        <pt x="342" y="1501" on="1"/>
        <pt x="373" y="1406" on="0"/>
        <pt x="557" y="1262" on="0"/>
        <pt x="659" y="1262" on="1"/>
        <pt x="717" y="1262" on="0"/>
        <pt x="807" y="1299" on="0"/>
        <pt x="885" y="1368" on="0"/>
        <pt x="961" y="1473" on="1"/>
      </contour>
    </TTGlyph>
    <TTGlyph name="glyph00019" xMin="135" yMin="-31" xMax="1307" yMax="1501">
      <contour>
        <pt x="1130" y="547" on="1"/>
        <pt x="1130" y="672" on="0"/>
        <pt x="997" y="844" on="0"/>
        <pt x="868" y="881" on="1"/>
        <pt x="788" y="637" on="0"/>
        <pt x="666" y="146" on="0"/>
        <pt x="639" y="-31" on="1"/>
        <pt x="465" y="-16" on="1"/>
        <pt x="508" y="304" on="0"/>
        <pt x="692" y="903" on="1"/>
        <pt x="690" y="903" on="1"/>
        <pt x="509" y="903" on="0"/>
        <pt x="307" y="740" on="0"/>
        <pt x="307" y="598" on="1"/>
        <pt x="307" y="486" on="0"/>
        <pt x="408" y="379" on="1"/>
        <pt x="279" y="272" on="1"/>
        <pt x="135" y="416" on="0"/>
        <pt x="135" y="592" on="1"/>
        <pt x="135" y="728" on="0"/>
        <pt x="285" y="938" on="0"/>
        <pt x="556" y="1055" on="0"/>
        <pt x="717" y="1055" on="1"/>
        <pt x="741" y="1055" on="1"/>
        <pt x="764" y="1053" on="1"/>
        <pt x="815" y="1102" on="1"/>
        <pt x="694" y="1116" on="0"/>
        <pt x="469" y="1297" on="0"/>
        <pt x="420" y="1415" on="1"/>
        <pt x="559" y="1501" on="1"/>
        <pt x="590" y="1405" on="0"/>
        <pt x="777" y="1262" on="0"/>
        <pt x="877" y="1262" on="1"/>
        <pt x="948" y="1262" on="0"/>
        <pt x="1076" y="1348" on="0"/>
        <pt x="1167" y="1473" on="1"/>
        <pt x="1300" y="1389" on="1"/>
        <pt x="1262" y="1324" on="0"/>
        <pt x="1164" y="1231" on="0"/>
        <pt x="1064" y="1151" on="0"/>
        <pt x="969" y="1074" on="0"/>
        <pt x="934" y="1026" on="1"/>
        <pt x="1112" y="978" on="0"/>
        <pt x="1307" y="735" on="0"/>
        <pt x="1307" y="561" on="1"/>
        <pt x="1307" y="474" on="0"/>
        <pt x="1226" y="229" on="0"/>
        <pt x="1163" y="141" on="1"/>
        <pt x="1018" y="207" on="1"/>
        <pt x="1067" y="287" on="0"/>
        <pt x="1130" y="477" on="0"/>
      </contour>
    </TTGlyph>
    <TTGlyph name="glyph00020" xMin="172" yMin="-35" xMax="1153" yMax="1495">
      <contour>
        <pt x="1153" y="1442" on="1"/>
        <pt x="1109" y="1215" on="0"/>
        <pt x="837" y="636" on="0"/>
        <pt x="449" y="96" on="0"/>
        <pt x="274" y="-35" on="1"/>
        <pt x="172" y="90" on="1"/>
        <pt x="292" y="181" on="0"/>
        <pt x="572" y="536" on="0"/>
        <pt x="707" y="774" on="1"/>
        <pt x="546" y="938" on="0"/>
        <pt x="283" y="1285" on="0"/>
        <pt x="231" y="1405" on="1"/>
        <pt x="387" y="1495" on="1"/>
        <pt x="431" y="1398" on="0"/>
        <pt x="653" y="1100" on="0"/>
        <pt x="799" y="948" on="1"/>
        <pt x="941" y="1242" on="0"/>
        <pt x="985" y="1470" on="1"/>
      </contour>
    </TTGlyph>
    <TTGlyph name="glyph00021" xMin="-8" yMin="-45" xMax="1274" yMax="1468">
      <contour>
        <pt x="971" y="1241" on="1"/>
        <pt x="971" y="1341" on="0"/>
        <pt x="1105" y="1456" on="0"/>
        <pt x="1223" y="1456" on="1"/>
        <pt x="1274" y="1315" on="1"/>
        <pt x="1206" y="1306" on="0"/>
        <pt x="1137" y="1274" on="0"/>
        <pt x="1137" y="1237" on="1"/>
        <pt x="1137" y="1191" on="0"/>
        <pt x="1152" y="1118" on="1"/>
        <pt x="1167" y="1046" on="0"/>
        <pt x="1167" y="991" on="1"/>
        <pt x="1167" y="834" on="0"/>
        <pt x="934" y="670" on="0"/>
        <pt x="711" y="670" on="1"/>
        <pt x="592" y="670" on="0"/>
        <pt x="516" y="690" on="1"/>
        <pt x="477" y="563" on="1"/>
        <pt x="396" y="321" on="0"/>
        <pt x="179" y="1" on="0"/>
        <pt x="59" y="-45" on="1"/>
        <pt x="-8" y="90" on="1"/>
        <pt x="63" y="119" on="0"/>
        <pt x="213" y="326" on="0"/>
        <pt x="337" y="638" on="0"/>
        <pt x="473" y="1240" on="0"/>
        <pt x="504" y="1468" on="1"/>
        <pt x="678" y="1454" on="1"/>
        <pt x="632" y="1128" on="0"/>
        <pt x="553" y="834" on="1"/>
        <pt x="629" y="815" on="0"/>
        <pt x="715" y="815" on="1"/>
        <pt x="825" y="815" on="0"/>
        <pt x="935" y="849" on="0"/>
        <pt x="991" y="923" on="0"/>
        <pt x="991" y="987" on="1"/>
        <pt x="991" y="1028" on="0"/>
        <pt x="982" y="1109" on="1"/>
        <pt x="972" y="1187" on="0"/>
      </contour>
    </TTGlyph>
    <TTGlyph name="glyph00022" xMin="203" yMin="-35" xMax="1233" yMax="1477">
      <contour>
        <pt x="1104" y="1341" on="1"/>
        <pt x="1017" y="1197" on="0"/>
        <pt x="866" y="836" on="1"/>
        <pt x="716" y="486" on="0"/>
        <pt x="606" y="266" on="1"/>
        <pt x="906" y="416" on="0"/>
        <pt x="1233" y="416" on="1"/>
        <pt x="1233" y="264" on="1"/>
        <pt x="1090" y="264" on="0"/>
        <pt x="843" y="207" on="0"/>
        <pt x="612" y="106" on="0"/>
        <pt x="385" y="-35" on="1"/>
        <pt x="334" y="100" on="1"/>
        <pt x="474" y="326" on="0"/>
        <pt x="723" y="901" on="1"/>
        <pt x="848" y="1184" on="1"/>
        <pt x="549" y="1026" on="0"/>
        <pt x="203" y="1026" on="1"/>
        <pt x="203" y="1178" on="1"/>
        <pt x="346" y="1178" on="0"/>
        <pt x="593" y="1235" on="0"/>
        <pt x="824" y="1336" on="0"/>
        <pt x="1051" y="1477" on="1"/>
      </contour>
    </TTGlyph>
    <TTGlyph name="glyph00023" xMin="203" yMin="-33" xMax="1085" yMax="1495">
      <contour>
        <pt x="715" y="1495" on="1"/>
        <pt x="904" y="1495" on="0"/>
        <pt x="1085" y="1352" on="0"/>
        <pt x="1085" y="1192" on="1"/>
        <pt x="1085" y="970" on="0"/>
        <pt x="904" y="228" on="0"/>
        <pt x="793" y="-33" on="1"/>
        <pt x="631" y="10" on="1"/>
        <pt x="683" y="130" on="0"/>
        <pt x="805" y="529" on="0"/>
        <pt x="848" y="727" on="1"/>
        <pt x="692" y="731" on="1"/>
        <pt x="423" y="731" on="0"/>
        <pt x="240" y="664" on="1"/>
        <pt x="203" y="805" on="1"/>
        <pt x="384" y="881" on="0"/>
        <pt x="690" y="881" on="1"/>
        <pt x="789" y="881" on="0"/>
        <pt x="877" y="877" on="1"/>
        <pt x="909" y="1054" on="0"/>
        <pt x="909" y="1184" on="1"/>
        <pt x="909" y="1264" on="0"/>
        <pt x="806" y="1335" on="0"/>
        <pt x="692" y="1335" on="1"/>
        <pt x="472" y="1335" on="0"/>
        <pt x="240" y="1257" on="1"/>
        <pt x="203" y="1399" on="1"/>
        <pt x="321" y="1443" on="0"/>
        <pt x="595" y="1495" on="0"/>
      </contour>
    </TTGlyph>
    <TTGlyph name="glyph00024" xMin="172" yMin="-31" xMax="1145" yMax="1483">
      <contour>
        <pt x="567" y="-16" on="1"/>
        <pt x="585" y="105" on="0"/>
        <pt x="675" y="496" on="0"/>
        <pt x="735" y="700" on="1"/>
        <pt x="516" y="731" on="0"/>
        <pt x="283" y="837" on="0"/>
        <pt x="172" y="1012" on="0"/>
        <pt x="172" y="1145" on="1"/>
        <pt x="172" y="1241" on="0"/>
        <pt x="238" y="1404" on="0"/>
        <pt x="295" y="1483" on="1"/>
        <pt x="440" y="1417" on="1"/>
        <pt x="348" y="1265" on="0"/>
        <pt x="348" y="1159" on="1"/>
        <pt x="348" y="1061" on="0"/>
        <pt x="426" y="944" on="0"/>
        <pt x="600" y="871" on="0"/>
        <pt x="776" y="844" on="1"/>
        <pt x="904" y="1271" on="0"/>
        <pt x="979" y="1448" on="1"/>
        <pt x="1145" y="1403" on="1"/>
        <pt x="1056" y="1191" on="0"/>
        <pt x="778" y="221" on="0"/>
        <pt x="741" y="-31" on="1"/>
      </contour>
    </TTGlyph>
    <TTGlyph name="glyph00025" xMin="203" yMin="-31" xMax="1241" yMax="1458">
      <contour>
        <pt x="264" y="-16" on="1"/>
        <pt x="296" y="214" on="0"/>
        <pt x="522" y="1024" on="0"/>
        <pt x="623" y="1307" on="1"/>
        <pt x="203" y="1307" on="1"/>
        <pt x="231" y="1458" on="1"/>
        <pt x="1241" y="1458" on="1"/>
        <pt x="1212" y="1307" on="1"/>
        <pt x="805" y="1307" on="1"/>
        <pt x="699" y="1013" on="0"/>
        <pt x="473" y="196" on="0"/>
        <pt x="438" y="-31" on="1"/>
      </contour>
    </TTGlyph>
    <TTGlyph name="glyph00026" xMin="217" yMin="-33" xMax="735" yMax="1475">
      <contour>
        <pt x="592" y="891" on="1"/>
        <pt x="566" y="925" on="0"/>
        <pt x="447" y="1107" on="0"/>
        <pt x="412" y="1169" on="1"/>
        <pt x="385" y="950" on="0"/>
        <pt x="385" y="668" on="1"/>
        <pt x="385" y="262" on="0"/>
        <pt x="457" y="-8" on="1"/>
        <pt x="285" y="-33" on="1"/>
        <pt x="217" y="315" on="0"/>
        <pt x="217" y="668" on="1"/>
        <pt x="217" y="1068" on="0"/>
        <pt x="281" y="1475" on="1"/>
        <pt x="455" y="1460" on="1"/>
        <pt x="459" y="1361" on="0"/>
        <pt x="735" y="981" on="1"/>
      </contour>
    </TTGlyph>
    <TTGlyph name="glyph00027" xMin="180" yMin="-29" xMax="1141" yMax="1497">
      <contour>
        <pt x="352" y="1217" on="1"/>
        <pt x="352" y="1112" on="0"/>
        <pt x="512" y="1112" on="1"/>
        <pt x="583" y="1112" on="0"/>
        <pt x="723" y="1128" on="0"/>
        <pt x="801" y="1128" on="1"/>
        <pt x="976" y="1128" on="0"/>
        <pt x="1141" y="984" on="0"/>
        <pt x="1141" y="817" on="1"/>
        <pt x="1141" y="643" on="0"/>
        <pt x="915" y="283" on="0"/>
        <pt x="526" y="24" on="0"/>
        <pt x="289" y="-29" on="1"/>
        <pt x="246" y="119" on="1"/>
        <pt x="459" y="165" on="0"/>
        <pt x="786" y="380" on="0"/>
        <pt x="965" y="670" on="0"/>
        <pt x="965" y="817" on="1"/>
        <pt x="965" y="901" on="0"/>
        <pt x="871" y="969" on="0"/>
        <pt x="776" y="969" on="1"/>
        <pt x="705" y="969" on="0"/>
        <pt x="565" y="952" on="0"/>
        <pt x="487" y="952" on="1"/>
        <pt x="341" y="952" on="0"/>
        <pt x="180" y="1093" on="0"/>
        <pt x="180" y="1221" on="1"/>
        <pt x="180" y="1324" on="0"/>
        <pt x="325" y="1479" on="0"/>
        <pt x="432" y="1497" on="1"/>
        <pt x="483" y="1356" on="1"/>
        <pt x="422" y="1340" on="0"/>
        <pt x="352" y="1266" on="0"/>
      </contour>
    </TTGlyph>
    <TTGlyph name="glyph00028" xMin="150" yMin="-31" xMax="1307" yMax="1483">
      <contour>
        <pt x="350" y="-16" on="1"/>
        <pt x="370" y="135" on="0"/>
        <pt x="501" y="672" on="0"/>
        <pt x="586" y="952" on="1"/>
        <pt x="355" y="947" on="0"/>
        <pt x="186" y="887" on="1"/>
        <pt x="150" y="1028" on="1"/>
        <pt x="318" y="1100" on="0"/>
        <pt x="631" y="1104" on="1"/>
        <pt x="708" y="1356" on="0"/>
        <pt x="762" y="1483" on="1"/>
        <pt x="928" y="1438" on="1"/>
        <pt x="882" y="1330" on="0"/>
        <pt x="811" y="1100" on="1"/>
        <pt x="1159" y="1082" on="0"/>
        <pt x="1307" y="1024" on="1"/>
        <pt x="1247" y="872" on="1"/>
        <pt x="1084" y="936" on="0"/>
        <pt x="766" y="952" on="1"/>
        <pt x="682" y="669" on="0"/>
        <pt x="548" y="129" on="0"/>
        <pt x="524" y="-31" on="1"/>
      </contour>
    </TTGlyph>
    <TTGlyph name="glyph00029" xMin="172" yMin="-31" xMax="905" yMax="1497">
      <contour>
        <pt x="430" y="1217" on="1"/>
        <pt x="430" y="1160" on="0"/>
        <pt x="500" y="1040" on="0"/>
        <pt x="621" y="922" on="1"/>
        <pt x="745" y="800" on="0"/>
        <pt x="848" y="655" on="0"/>
        <pt x="905" y="499" on="0"/>
        <pt x="905" y="408" on="1"/>
        <pt x="905" y="289" on="0"/>
        <pt x="769" y="86" on="0"/>
        <pt x="529" y="-31" on="0"/>
        <pt x="391" y="-31" on="1"/>
        <pt x="264" y="-31" on="0"/>
        <pt x="172" y="-2" on="1"/>
        <pt x="209" y="147" on="1"/>
        <pt x="290" y="125" on="0"/>
        <pt x="389" y="125" on="1"/>
        <pt x="540" y="125" on="0"/>
        <pt x="729" y="281" on="0"/>
        <pt x="729" y="408" on="1"/>
        <pt x="729" y="465" on="0"/>
        <pt x="687" y="569" on="0"/>
        <pt x="609" y="673" on="0"/>
        <pt x="510" y="770" on="1"/>
        <pt x="391" y="889" on="0"/>
        <pt x="306" y="1011" on="0"/>
        <pt x="258" y="1144" on="0"/>
        <pt x="258" y="1221" on="1"/>
        <pt x="258" y="1324" on="0"/>
        <pt x="403" y="1479" on="0"/>
        <pt x="510" y="1497" on="1"/>
        <pt x="561" y="1356" on="1"/>
        <pt x="498" y="1340" on="0"/>
        <pt x="430" y="1266" on="0"/>
      </contour>
    </TTGlyph>
    <TTGlyph name="glyph00030" xMin="180" yMin="-37" xMax="1006" yMax="1483">
      <contour>
        <pt x="1006" y="655" on="1"/>
        <pt x="1006" y="511" on="0"/>
        <pt x="755" y="146" on="0"/>
        <pt x="535" y="-37" on="1"/>
        <pt x="426" y="72" on="1"/>
        <pt x="657" y="269" on="0"/>
        <pt x="829" y="527" on="0"/>
        <pt x="829" y="647" on="1"/>
        <pt x="829" y="723" on="0"/>
        <pt x="714" y="780" on="0"/>
        <pt x="596" y="780" on="1"/>
        <pt x="543" y="780" on="0"/>
        <pt x="409" y="756" on="0"/>
        <pt x="379" y="743" on="1"/>
        <pt x="342" y="887" on="1"/>
        <pt x="467" y="918" on="0"/>
        <pt x="573" y="986" on="0"/>
        <pt x="625" y="1090" on="0"/>
        <pt x="625" y="1171" on="1"/>
        <pt x="625" y="1335" on="0"/>
        <pt x="356" y="1335" on="1"/>
        <pt x="276" y="1335" on="0"/>
        <pt x="203" y="1323" on="1"/>
        <pt x="180" y="1468" on="1"/>
        <pt x="285" y="1483" on="0"/>
        <pt x="369" y="1483" on="1"/>
        <pt x="590" y="1483" on="0"/>
        <pt x="801" y="1333" on="0"/>
        <pt x="801" y="1176" on="1"/>
        <pt x="801" y="1104" on="0"/>
        <pt x="740" y="973" on="0"/>
        <pt x="686" y="922" on="1"/>
        <pt x="841" y="922" on="0"/>
        <pt x="1006" y="785" on="0"/>
      </contour>
    </TTGlyph>
    <TTGlyph name="glyph00031" xMin="201" yMin="-33" xMax="834" yMax="1495">
      <contour>
        <pt x="578" y="676" on="1"/>
        <pt x="578" y="720" on="0"/>
        <pt x="551" y="783" on="0"/>
        <pt x="498" y="828" on="0"/>
        <pt x="428" y="858" on="1"/>
        <pt x="387" y="876" on="0"/>
        <pt x="306" y="917" on="0"/>
        <pt x="241" y="986" on="0"/>
        <pt x="201" y="1094" on="0"/>
        <pt x="201" y="1178" on="1"/>
        <pt x="201" y="1313" on="0"/>
        <pt x="398" y="1495" on="0"/>
        <pt x="553" y="1495" on="1"/>
        <pt x="635" y="1495" on="0"/>
        <pt x="793" y="1479" on="0"/>
        <pt x="834" y="1466" on="1"/>
        <pt x="797" y="1317" on="1"/>
        <pt x="713" y="1339" on="0"/>
        <pt x="555" y="1339" on="1"/>
        <pt x="469" y="1339" on="0"/>
        <pt x="377" y="1257" on="0"/>
        <pt x="377" y="1178" on="1"/>
        <pt x="377" y="1116" on="0"/>
        <pt x="444" y="1036" on="0"/>
        <pt x="541" y="999" on="1"/>
        <pt x="626" y="967" on="0"/>
        <pt x="707" y="896" on="0"/>
        <pt x="750" y="789" on="0"/>
        <pt x="750" y="709" on="1"/>
        <pt x="750" y="563" on="0"/>
        <pt x="628" y="160" on="0"/>
        <pt x="530" y="-33" on="1"/>
        <pt x="385" y="14" on="1"/>
        <pt x="466" y="199" on="0"/>
        <pt x="578" y="576" on="0"/>
      </contour>
    </TTGlyph>
    <TTGlyph name="glyph00032" xMin="68" yMin="-31" xMax="1067" yMax="1483">
      <contour>
        <pt x="1067" y="610" on="1"/>
        <pt x="1067" y="418" on="0"/>
        <pt x="920" y="270" on="1"/>
        <pt x="791" y="377" on="1"/>
        <pt x="891" y="483" on="0"/>
        <pt x="891" y="596" on="1"/>
        <pt x="891" y="736" on="0"/>
        <pt x="692" y="911" on="0"/>
        <pt x="483" y="948" on="1"/>
        <pt x="395" y="653" on="0"/>
        <pt x="261" y="108" on="0"/>
        <pt x="242" y="-31" on="1"/>
        <pt x="68" y="-16" on="1"/>
        <pt x="108" y="256" on="0"/>
        <pt x="385" y="1250" on="0"/>
        <pt x="479" y="1483" on="1"/>
        <pt x="645" y="1438" on="1"/>
        <pt x="598" y="1326" on="0"/>
        <pt x="526" y="1094" on="1"/>
        <pt x="795" y="1054" on="0"/>
        <pt x="1067" y="806" on="0"/>
      </contour>
    </TTGlyph>
    <TTGlyph name="glyph00033" xMin="135" yMin="-31" xMax="1247" yMax="1483">
      <contour>
        <pt x="240" y="-16" on="1"/>
        <pt x="284" y="308" on="0"/>
        <pt x="473" y="946" on="1"/>
        <pt x="306" y="933" on="0"/>
        <pt x="172" y="887" on="1"/>
        <pt x="135" y="1028" on="1"/>
        <pt x="276" y="1087" on="0"/>
        <pt x="520" y="1102" on="1"/>
        <pt x="600" y="1362" on="0"/>
        <pt x="651" y="1483" on="1"/>
        <pt x="817" y="1438" on="1"/>
        <pt x="768" y="1320" on="0"/>
        <pt x="698" y="1096" on="1"/>
        <pt x="966" y="1061" on="0"/>
        <pt x="1247" y="815" on="0"/>
        <pt x="1247" y="610" on="1"/>
        <pt x="1247" y="418" on="0"/>
        <pt x="1100" y="270" on="1"/>
        <pt x="971" y="377" on="1"/>
        <pt x="1071" y="483" on="0"/>
        <pt x="1071" y="596" on="1"/>
        <pt x="1071" y="881" on="0"/>
        <pt x="655" y="948" on="1"/>
        <pt x="581" y="703" on="0"/>
        <pt x="438" y="129" on="0"/>
        <pt x="414" y="-31" on="1"/>
      </contour>
    </TTGlyph>
    <TTGlyph name="glyph00034" xMin="203" yMin="-31" xMax="1155" yMax="1493">
      <contour>
        <pt x="375" y="1217" on="1"/>
        <pt x="375" y="1130" on="0"/>
        <pt x="415" y="1047" on="0"/>
        <pt x="471" y="1047" on="1"/>
        <pt x="517" y="1047" on="0"/>
        <pt x="578" y="1113" on="0"/>
        <pt x="600" y="1192" on="1"/>
        <pt x="626" y="1287" on="0"/>
        <pt x="699" y="1384" on="0"/>
        <pt x="814" y="1434" on="0"/>
        <pt x="899" y="1434" on="1"/>
        <pt x="1031" y="1434" on="0"/>
        <pt x="1155" y="1294" on="0"/>
        <pt x="1155" y="1139" on="1"/>
        <pt x="1155" y="693" on="0"/>
        <pt x="791" y="-31" on="1"/>
        <pt x="651" y="41" on="1"/>
        <pt x="979" y="705" on="0"/>
        <pt x="979" y="1139" on="1"/>
        <pt x="979" y="1198" on="0"/>
        <pt x="934" y="1270" on="0"/>
        <pt x="893" y="1270" on="1"/>
        <pt x="846" y="1270" on="0"/>
        <pt x="793" y="1222" on="0"/>
        <pt x="762" y="1128" on="1"/>
        <pt x="722" y="1003" on="0"/>
        <pt x="581" y="887" on="0"/>
        <pt x="467" y="887" on="1"/>
        <pt x="337" y="887" on="0"/>
        <pt x="203" y="1059" on="0"/>
        <pt x="203" y="1221" on="1"/>
        <pt x="203" y="1371" on="0"/>
        <pt x="266" y="1493" on="1"/>
        <pt x="426" y="1450" on="1"/>
        <pt x="375" y="1320" on="0"/>
      </contour>
    </TTGlyph>
    <TTGlyph name="glyph00035" xMin="203" yMin="-31" xMax="1294" yMax="1452">
      <contour>
        <pt x="1212" y="1300" on="1"/>
        <pt x="827" y="1300" on="1"/>
        <pt x="794" y="1217" on="0"/>
        <pt x="756" y="1094" on="1"/>
        <pt x="1023" y="1054" on="0"/>
        <pt x="1294" y="808" on="0"/>
        <pt x="1294" y="610" on="1"/>
        <pt x="1294" y="514" on="0"/>
        <pt x="1228" y="351" on="0"/>
        <pt x="1171" y="272" on="1"/>
        <pt x="1026" y="338" on="1"/>
        <pt x="1118" y="490" on="0"/>
        <pt x="1118" y="596" on="1"/>
        <pt x="1118" y="736" on="0"/>
        <pt x="919" y="911" on="0"/>
        <pt x="711" y="948" on="1"/>
        <pt x="616" y="644" on="0"/>
        <pt x="484" y="123" on="0"/>
        <pt x="461" y="-31" on="1"/>
        <pt x="287" y="-16" on="1"/>
        <pt x="318" y="205" on="0"/>
        <pt x="539" y="1006" on="0"/>
        <pt x="645" y="1300" on="1"/>
        <pt x="203" y="1300" on="1"/>
        <pt x="231" y="1452" on="1"/>
        <pt x="1241" y="1452" on="1"/>
      </contour>
    </TTGlyph>
    <TTGlyph name="glyph00036" xMin="217" yMin="584" xMax="1389" yMax="1497">
      <contour>
        <pt x="393" y="1092" on="1"/>
        <pt x="393" y="923" on="0"/>
        <pt x="628" y="735" on="0"/>
        <pt x="834" y="735" on="1"/>
        <pt x="1015" y="735" on="0"/>
        <pt x="1217" y="898" on="0"/>
        <pt x="1217" y="1040" on="1"/>
        <pt x="1217" y="1153" on="0"/>
        <pt x="1116" y="1260" on="1"/>
        <pt x="1245" y="1366" on="1"/>
        <pt x="1389" y="1222" on="0"/>
        <pt x="1389" y="1047" on="1"/>
        <pt x="1389" y="910" on="0"/>
        <pt x="1237" y="700" on="0"/>
        <pt x="966" y="584" on="0"/>
        <pt x="807" y="584" on="1"/>
        <pt x="539" y="584" on="0"/>
        <pt x="217" y="849" on="0"/>
        <pt x="217" y="1077" on="1"/>
        <pt x="217" y="1166" on="0"/>
        <pt x="299" y="1412" on="0"/>
        <pt x="360" y="1497" on="1"/>
        <pt x="506" y="1432" on="1"/>
        <pt x="457" y="1354" on="0"/>
        <pt x="393" y="1163" on="0"/>
      </contour>
    </TTGlyph>
    <TTGlyph name="glyph00037" xMin="-49" yMin="-35" xMax="1198" yMax="1475">
      <contour>
        <pt x="795" y="1475" on="1"/>
        <pt x="817" y="1167" on="0"/>
        <pt x="1063" y="298" on="0"/>
        <pt x="1198" y="39" on="1"/>
        <pt x="1036" y="-35" on="1"/>
        <pt x="925" y="179" on="0"/>
        <pt x="727" y="803" on="0"/>
        <pt x="674" y="1106" on="1"/>
        <pt x="555" y="818" on="0"/>
        <pt x="212" y="151" on="0"/>
        <pt x="96" y="-35" on="1"/>
        <pt x="-49" y="33" on="1"/>
        <pt x="50" y="188" on="0"/>
        <pt x="367" y="796" on="0"/>
        <pt x="603" y="1334" on="0"/>
        <pt x="629" y="1462" on="1"/>
      </contour>
    </TTGlyph>
    <TTGlyph name="glyph00038" xMin="203" yMin="-35" xMax="1051" yMax="1475">
      <contour>
        <pt x="1051" y="903" on="1"/>
        <pt x="1051" y="759" on="0"/>
        <pt x="801" y="201" on="0"/>
        <pt x="645" y="-35" on="1"/>
        <pt x="496" y="41" on="1"/>
        <pt x="645" y="259" on="0"/>
        <pt x="874" y="764" on="0"/>
        <pt x="874" y="895" on="1"/>
        <pt x="874" y="957" on="0"/>
        <pt x="776" y="1006" on="0"/>
        <pt x="657" y="1006" on="1"/>
        <pt x="442" y="1006" on="0"/>
        <pt x="270" y="1040" on="0"/>
        <pt x="203" y="1125" on="0"/>
        <pt x="203" y="1221" on="1"/>
        <pt x="203" y="1284" on="0"/>
        <pt x="225" y="1428" on="0"/>
        <pt x="240" y="1475" on="1"/>
        <pt x="403" y="1448" on="1"/>
        <pt x="365" y="1316" on="0"/>
        <pt x="365" y="1253" on="1"/>
        <pt x="365" y="1209" on="0"/>
        <pt x="411" y="1178" on="0"/>
        <pt x="532" y="1165" on="0"/>
        <pt x="680" y="1165" on="1"/>
        <pt x="870" y="1165" on="0"/>
        <pt x="1051" y="1043" on="0"/>
      </contour>
    </TTGlyph>
    <TTGlyph name="glyph00039" xMin="150" yMin="-31" xMax="1032" yMax="1483">
      <contour>
        <pt x="455" y="-16" on="1"/>
        <pt x="478" y="155" on="0"/>
        <pt x="615" y="703" on="0"/>
        <pt x="690" y="952" on="1"/>
        <pt x="519" y="947" on="0"/>
        <pt x="280" y="918" on="0"/>
        <pt x="186" y="887" on="1"/>
        <pt x="150" y="1028" on="1"/>
        <pt x="309" y="1095" on="0"/>
        <pt x="735" y="1102" on="1"/>
        <pt x="808" y="1341" on="0"/>
        <pt x="866" y="1483" on="1"/>
        <pt x="1032" y="1438" on="1"/>
        <pt x="980" y="1313" on="0"/>
        <pt x="799" y="731" on="0"/>
        <pt x="655" y="150" on="0"/>
        <pt x="629" y="-31" on="1"/>
      </contour>
    </TTGlyph>
    <TTGlyph name="glyph00040" xMin="203" yMin="-35" xMax="1085" yMax="1460">
      <contour>
        <pt x="715" y="1460" on="1"/>
        <pt x="893" y="1460" on="0"/>
        <pt x="1085" y="1273" on="0"/>
        <pt x="1085" y="1096" on="1"/>
        <pt x="1085" y="882" on="0"/>
        <pt x="803" y="218" on="0"/>
        <pt x="625" y="-35" on="1"/>
        <pt x="483" y="53" on="1"/>
        <pt x="654" y="281" on="0"/>
        <pt x="909" y="876" on="0"/>
        <pt x="909" y="1087" on="1"/>
        <pt x="909" y="1180" on="0"/>
        <pt x="792" y="1300" on="0"/>
        <pt x="692" y="1300" on="1"/>
        <pt x="469" y="1300" on="0"/>
        <pt x="240" y="1223" on="1"/>
        <pt x="203" y="1364" on="1"/>
        <pt x="321" y="1408" on="0"/>
        <pt x="595" y="1460" on="0"/>
      </contour>
    </TTGlyph>
    <TTGlyph name="glyph00041" xMin="90" yMin="-33" xMax="1413" yMax="1460">
      <contour>
        <pt x="1042" y="1460" on="1"/>
        <pt x="1220" y="1460" on="0"/>
        <pt x="1413" y="1274" on="0"/>
        <pt x="1413" y="1096" on="1"/>
        <pt x="1413" y="879" on="0"/>
        <pt x="1232" y="218" on="0"/>
        <pt x="1120" y="-33" on="1"/>
        <pt x="958" y="10" on="1"/>
        <pt x="1066" y="247" on="0"/>
        <pt x="1237" y="875" on="0"/>
        <pt x="1237" y="1087" on="1"/>
        <pt x="1237" y="1180" on="0"/>
        <pt x="1120" y="1300" on="0"/>
        <pt x="1020" y="1300" on="1"/>
        <pt x="809" y="1300" on="0"/>
        <pt x="606" y="1255" on="1"/>
        <pt x="545" y="944" on="0"/>
        <pt x="323" y="136" on="0"/>
        <pt x="252" y="-27" on="1"/>
        <pt x="90" y="16" on="1"/>
        <pt x="157" y="174" on="0"/>
        <pt x="415" y="1139" on="0"/>
        <pt x="451" y="1368" on="1"/>
        <pt x="585" y="1408" on="0"/>
        <pt x="917" y="1460" on="0"/>
      </contour>
    </TTGlyph>
    <TTGlyph name="glyph00042" xMin="180" yMin="-45" xMax="1352" yMax="1460">
      <contour>
        <pt x="311" y="-45" on="1"/>
        <pt x="244" y="90" on="1"/>
        <pt x="339" y="130" on="0"/>
        <pt x="529" y="451" on="0"/>
        <pt x="687" y="1019" on="0"/>
        <pt x="737" y="1309" on="1"/>
        <pt x="735" y="1309" on="1"/>
        <pt x="554" y="1309" on="0"/>
        <pt x="352" y="1146" on="0"/>
        <pt x="352" y="1004" on="1"/>
        <pt x="352" y="891" on="0"/>
        <pt x="453" y="784" on="1"/>
        <pt x="324" y="678" on="1"/>
        <pt x="180" y="820" on="0"/>
        <pt x="180" y="997" on="1"/>
        <pt x="180" y="1134" on="0"/>
        <pt x="332" y="1344" on="0"/>
        <pt x="603" y="1460" on="0"/>
        <pt x="762" y="1460" on="1"/>
        <pt x="935" y="1460" on="0"/>
        <pt x="1205" y="1341" on="0"/>
        <pt x="1352" y="1117" on="0"/>
        <pt x="1352" y="967" on="1"/>
        <pt x="1352" y="836" on="0"/>
        <pt x="1227" y="556" on="0"/>
        <pt x="1145" y="487" on="1"/>
        <pt x="1018" y="584" on="1"/>
        <pt x="1088" y="654" on="0"/>
        <pt x="1176" y="859" on="0"/>
        <pt x="1176" y="952" on="1"/>
        <pt x="1176" y="1079" on="0"/>
        <pt x="1037" y="1252" on="0"/>
        <pt x="909" y="1286" on="1"/>
        <pt x="862" y="1007" on="0"/>
        <pt x="675" y="373" on="0"/>
        <pt x="442" y="6" on="0"/>
      </contour>
    </TTGlyph>
    <TTGlyph name="glyph00043" xMin="14" yMin="-45" xMax="1071" yMax="1479">
      <contour>
        <pt x="1071" y="981" on="1"/>
        <pt x="1071" y="867" on="0"/>
        <pt x="951" y="688" on="0"/>
        <pt x="737" y="588" on="0"/>
        <pt x="614" y="588" on="1"/>
        <pt x="558" y="588" on="0"/>
        <pt x="512" y="592" on="1"/>
        <pt x="467" y="381" on="0"/>
        <pt x="248" y="42" on="0"/>
        <pt x="92" y="-45" on="1"/>
        <pt x="14" y="90" on="1"/>
        <pt x="174" y="189" on="0"/>
        <pt x="377" y="561" on="0"/>
        <pt x="377" y="764" on="1"/>
        <pt x="377" y="859" on="0"/>
        <pt x="360" y="913" on="1"/>
        <pt x="496" y="946" on="1"/>
        <pt x="514" y="922" on="0"/>
        <pt x="541" y="804" on="0"/>
        <pt x="541" y="735" on="1"/>
        <pt x="579" y="733" on="1"/>
        <pt x="618" y="733" on="1"/>
        <pt x="742" y="733" on="0"/>
        <pt x="895" y="867" on="0"/>
        <pt x="895" y="977" on="1"/>
        <pt x="895" y="1065" on="0"/>
        <pt x="766" y="1153" on="0"/>
        <pt x="602" y="1171" on="1"/>
        <pt x="466" y="1188" on="0"/>
        <pt x="306" y="1244" on="0"/>
        <pt x="221" y="1336" on="0"/>
        <pt x="199" y="1427" on="1"/>
        <pt x="340" y="1479" on="1"/>
        <pt x="359" y="1406" on="0"/>
        <pt x="494" y="1333" on="0"/>
        <pt x="621" y="1317" on="1"/>
        <pt x="814" y="1293" on="0"/>
        <pt x="985" y="1218" on="0"/>
        <pt x="1071" y="1085" on="0"/>
      </contour>
    </TTGlyph>
    <TTGlyph name="glyph00044" xMin="203" yMin="-31" xMax="1206" yMax="1485">
      <contour>
        <pt x="629" y="-16" on="1"/>
        <pt x="663" y="234" on="0"/>
        <pt x="793" y="700" on="1"/>
        <pt x="553" y="706" on="0"/>
        <pt x="285" y="739" on="0"/>
        <pt x="203" y="772" on="1"/>
        <pt x="309" y="887" on="0"/>
        <pt x="387" y="1060" on="0"/>
        <pt x="387" y="1145" on="1"/>
        <pt x="387" y="1212" on="0"/>
        <pt x="338" y="1310" on="0"/>
        <pt x="274" y="1370" on="1"/>
        <pt x="383" y="1485" on="1"/>
        <pt x="474" y="1420" on="0"/>
        <pt x="551" y="1268" on="0"/>
        <pt x="551" y="1171" on="1"/>
        <pt x="551" y="996" on="0"/>
        <pt x="455" y="864" on="1"/>
        <pt x="542" y="850" on="0"/>
        <pt x="834" y="850" on="1"/>
        <pt x="959" y="1284" on="0"/>
        <pt x="1040" y="1483" on="1"/>
        <pt x="1206" y="1438" on="1"/>
        <pt x="1123" y="1239" on="0"/>
        <pt x="846" y="249" on="0"/>
        <pt x="803" y="-31" on="1"/>
      </contour>
    </TTGlyph>
    <TTGlyph name="glyph00045" xMin="203" yMin="-31" xMax="1079" yMax="1464">
      <contour>
        <pt x="346" y="776" on="1"/>
        <pt x="203" y="919" on="0"/>
        <pt x="203" y="1096" on="1"/>
        <pt x="203" y="1200" on="0"/>
        <pt x="309" y="1370" on="0"/>
        <pt x="501" y="1464" on="0"/>
        <pt x="625" y="1464" on="1"/>
        <pt x="838" y="1464" on="0"/>
        <pt x="1079" y="1277" on="0"/>
        <pt x="1079" y="1114" on="1"/>
        <pt x="1079" y="987" on="0"/>
        <pt x="924" y="762" on="0"/>
        <pt x="733" y="618" on="1"/>
        <pt x="567" y="497" on="0"/>
        <pt x="428" y="319" on="0"/>
        <pt x="428" y="240" on="1"/>
        <pt x="428" y="174" on="0"/>
        <pt x="495" y="115" on="0"/>
        <pt x="561" y="115" on="1"/>
        <pt x="691" y="115" on="0"/>
        <pt x="854" y="188" on="1"/>
        <pt x="905" y="43" on="1"/>
        <pt x="836" y="11" on="0"/>
        <pt x="641" y="-31" on="0"/>
        <pt x="551" y="-31" on="1"/>
        <pt x="256" y="-31" on="0"/>
        <pt x="256" y="242" on="1"/>
        <pt x="256" y="337" on="0"/>
        <pt x="431" y="565" on="0"/>
        <pt x="641" y="729" on="1"/>
        <pt x="807" y="856" on="0"/>
        <pt x="903" y="993" on="0"/>
        <pt x="903" y="1087" on="1"/>
        <pt x="903" y="1192" on="0"/>
        <pt x="755" y="1313" on="0"/>
        <pt x="625" y="1313" on="1"/>
        <pt x="513" y="1313" on="0"/>
        <pt x="375" y="1197" on="0"/>
        <pt x="375" y="1102" on="1"/>
        <pt x="375" y="989" on="0"/>
        <pt x="475" y="883" on="1"/>
      </contour>
    </TTGlyph>
    <TTGlyph name="glyph00046" xMin="180" yMin="-33" xMax="1516" yMax="1466">
      <contour>
        <pt x="1516" y="307" on="1"/>
        <pt x="1516" y="117" on="0"/>
        <pt x="1368" y="-33" on="1"/>
        <pt x="1239" y="74" on="1"/>
        <pt x="1339" y="180" on="0"/>
        <pt x="1339" y="293" on="1"/>
        <pt x="1339" y="420" on="0"/>
        <pt x="1178" y="587" on="0"/>
        <pt x="1008" y="629" on="1"/>
        <pt x="937" y="345" on="0"/>
        <pt x="754" y="-33" on="1"/>
        <pt x="590" y="12" on="1"/>
        <pt x="726" y="285" on="0"/>
        <pt x="881" y="794" on="0"/>
        <pt x="881" y="971" on="1"/>
        <pt x="881" y="1140" on="0"/>
        <pt x="740" y="1315" on="0"/>
        <pt x="602" y="1315" on="1"/>
        <pt x="490" y="1315" on="0"/>
        <pt x="352" y="1199" on="0"/>
        <pt x="352" y="1104" on="1"/>
        <pt x="352" y="992" on="0"/>
        <pt x="453" y="885" on="1"/>
        <pt x="324" y="778" on="1"/>
        <pt x="180" y="922" on="0"/>
        <pt x="180" y="1098" on="1"/>
        <pt x="180" y="1259" on="0"/>
        <pt x="415" y="1466" on="0"/>
        <pt x="602" y="1466" on="1"/>
        <pt x="930" y="1466" on="0"/>
        <pt x="1024" y="1202" on="1"/>
        <pt x="1070" y="1328" on="0"/>
        <pt x="1128" y="1460" on="1"/>
        <pt x="1290" y="1417" on="1"/>
        <pt x="1228" y="1277" on="0"/>
        <pt x="1088" y="906" on="0"/>
        <pt x="1053" y="776" on="1"/>
        <pt x="1285" y="727" on="0"/>
        <pt x="1516" y="489" on="0"/>
      </contour>
    </TTGlyph>
    <TTGlyph name="glyph00047" xMin="135" yMin="-33" xMax="1133" yMax="1497">
      <contour>
        <pt x="506" y="420" on="1"/>
        <pt x="316" y="420" on="0"/>
        <pt x="135" y="563" on="0"/>
        <pt x="135" y="723" on="1"/>
        <pt x="135" y="970" on="0"/>
        <pt x="360" y="1497" on="1"/>
        <pt x="522" y="1454" on="1"/>
        <pt x="425" y="1229" on="0"/>
        <pt x="311" y="841" on="0"/>
        <pt x="311" y="731" on="1"/>
        <pt x="311" y="653" on="0"/>
        <pt x="409" y="580" on="0"/>
        <pt x="528" y="580" on="1"/>
        <pt x="635" y="580" on="0"/>
        <pt x="801" y="607" on="0"/>
        <pt x="926" y="649" on="1"/>
        <pt x="956" y="775" on="0"/>
        <pt x="956" y="844" on="1"/>
        <pt x="956" y="921" on="0"/>
        <pt x="864" y="995" on="0"/>
        <pt x="760" y="995" on="1"/>
        <pt x="691" y="995" on="0"/>
        <pt x="577" y="980" on="0"/>
        <pt x="500" y="954" on="1"/>
        <pt x="463" y="1098" on="1"/>
        <pt x="634" y="1155" on="0"/>
        <pt x="782" y="1155" on="1"/>
        <pt x="959" y="1155" on="0"/>
        <pt x="1133" y="1010" on="0"/>
        <pt x="1133" y="852" on="1"/>
        <pt x="1133" y="717" on="0"/>
        <pt x="966" y="184" on="0"/>
        <pt x="870" y="-33" on="1"/>
        <pt x="709" y="10" on="1"/>
        <pt x="789" y="191" on="0"/>
        <pt x="879" y="479" on="1"/>
        <pt x="684" y="420" on="0"/>
      </contour>
    </TTGlyph>
    <TTGlyph name="glyph00048" xMin="145" yMin="1526" xMax="1178" yMax="1677">
      <contour>
        <pt x="1149" y="1526" on="1"/>
        <pt x="145" y="1526" on="1"/>
        <pt x="180" y="1677" on="1"/>
        <pt x="1178" y="1677" on="1"/>
      </contour>
    </TTGlyph>
    <TTGlyph name="glyph00049" xMin="522" yMin="-23" xMax="1479" yMax="532">
      <contour>
        <pt x="1479" y="416" on="1"/>
        <pt x="575" y="-23" on="1"/>
        <pt x="522" y="98" on="1"/>
        <pt x="1419" y="532" on="1"/>
      </contour>
    </TTGlyph>
    <TTGlyph name="glyph00050" xMin="414" yMin="-399" xMax="668" yMax="-123">
      <contour>
        <pt x="414" y="-260" on="1"/>
        <pt x="414" y="-191" on="0"/>
        <pt x="480" y="-123" on="0"/>
        <pt x="539" y="-123" on="1"/>
        <pt x="600" y="-123" on="0"/>
        <pt x="668" y="-194" on="0"/>
        <pt x="668" y="-260" on="1"/>
        <pt x="668" y="-324" on="0"/>
        <pt x="600" y="-399" on="0"/>
        <pt x="539" y="-399" on="1"/>
        <pt x="480" y="-399" on="0"/>
        <pt x="414" y="-327" on="0"/>
      </contour>
    </TTGlyph>
    <TTGlyph name="glyph00051" xMin="200" yMin="-616" xMax="832" yMax="-93">
      <contour>
        <pt x="200" y="-274" on="1"/>
        <pt x="450" y="-274" on="1"/>
        <pt x="450" y="-93" on="1"/>
        <pt x="582" y="-93" on="1"/>
        <pt x="582" y="-274" on="1"/>
        <pt x="832" y="-274" on="1"/>
        <pt x="832" y="-377" on="1"/>
        <pt x="582" y="-377" on="1"/>
        <pt x="582" y="-616" on="1"/>
        <pt x="450" y="-616" on="1"/>
        <pt x="450" y="-377" on="1"/>
        <pt x="200" y="-377" on="1"/>
      </contour>
    </TTGlyph>
    <TTGlyph name="glyph00052" xMin="68" yMin="-33" xMax="598" yMax="1468">
      <contour>
        <pt x="598" y="1454" on="1"/>
        <pt x="566" y="1199" on="0"/>
        <pt x="298" y="127" on="0"/>
        <pt x="233" y="-33" on="1"/>
        <pt x="68" y="12" on="1"/>
        <pt x="133" y="166" on="0"/>
        <pt x="398" y="1259" on="0"/>
        <pt x="424" y="1468" on="1"/>
      </contour>
    </TTGlyph>
    <TTGlyph name="glyph00053" xMin="68" yMin="-33" xMax="1196" yMax="1495">
      <contour>
        <pt x="598" y="1454" on="1"/>
        <pt x="591" y="1399" on="0"/>
        <pt x="555" y="1202" on="1"/>
        <pt x="560" y="970" on="0"/>
        <pt x="674" y="723" on="0"/>
        <pt x="776" y="723" on="1"/>
        <pt x="882" y="723" on="0"/>
        <pt x="1024" y="958" on="0"/>
        <pt x="1024" y="1118" on="1"/>
        <pt x="1024" y="1217" on="0"/>
        <pt x="1004" y="1364" on="0"/>
        <pt x="973" y="1452" on="1"/>
        <pt x="1133" y="1495" on="1"/>
        <pt x="1196" y="1376" on="0"/>
        <pt x="1196" y="1098" on="1"/>
        <pt x="1196" y="863" on="0"/>
        <pt x="966" y="563" on="0"/>
        <pt x="780" y="563" on="1"/>
        <pt x="667" y="563" on="0"/>
        <pt x="511" y="670" on="0"/>
        <pt x="463" y="786" on="1"/>
        <pt x="299" y="120" on="0"/>
        <pt x="233" y="-33" on="1"/>
        <pt x="68" y="12" on="1"/>
        <pt x="133" y="166" on="0"/>
        <pt x="398" y="1259" on="0"/>
        <pt x="424" y="1468" on="1"/>
      </contour>
    </TTGlyph>
    <TTGlyph name="glyph00054" xMin="68" yMin="-33" xMax="1694" yMax="1493">
      <contour>
        <pt x="598" y="1454" on="1"/>
        <pt x="591" y="1399" on="0"/>
        <pt x="555" y="1202" on="1"/>
        <pt x="557" y="956" on="0"/>
        <pt x="654" y="723" on="0"/>
        <pt x="756" y="723" on="1"/>
        <pt x="813" y="723" on="0"/>
        <pt x="883" y="804" on="0"/>
        <pt x="927" y="940" on="0"/>
        <pt x="951" y="1120" on="0"/>
        <pt x="989" y="1468" on="1"/>
        <pt x="1153" y="1440" on="1"/>
        <pt x="1124" y="1200" on="1"/>
        <pt x="1119" y="1155" on="0"/>
        <pt x="1119" y="1110" on="1"/>
        <pt x="1119" y="950" on="0"/>
        <pt x="1237" y="723" on="0"/>
        <pt x="1325" y="723" on="1"/>
        <pt x="1417" y="723" on="0"/>
        <pt x="1522" y="930" on="0"/>
        <pt x="1522" y="1116" on="1"/>
        <pt x="1522" y="1201" on="0"/>
        <pt x="1493" y="1391" on="0"/>
        <pt x="1470" y="1450" on="1"/>
        <pt x="1630" y="1493" on="1"/>
        <pt x="1660" y="1436" on="0"/>
        <pt x="1694" y="1225" on="0"/>
        <pt x="1694" y="1096" on="1"/>
        <pt x="1694" y="859" on="0"/>
        <pt x="1497" y="563" on="0"/>
        <pt x="1329" y="563" on="1"/>
        <pt x="1207" y="563" on="0"/>
        <pt x="1042" y="702" on="0"/>
        <pt x="1016" y="834" on="1"/>
        <pt x="998" y="703" on="0"/>
        <pt x="865" y="563" on="0"/>
        <pt x="760" y="563" on="1"/>
        <pt x="542" y="563" on="0"/>
        <pt x="459" y="770" on="1"/>
        <pt x="393" y="497" on="0"/>
        <pt x="267" y="48" on="0"/>
        <pt x="233" y="-33" on="1"/>
        <pt x="68" y="12" on="1"/>
        <pt x="133" y="166" on="0"/>
        <pt x="398" y="1259" on="0"/>
        <pt x="424" y="1468" on="1"/>
      </contour>
    </TTGlyph>
    <TTGlyph name="glyph00055" xMin="68" yMin="-20" xMax="1321" yMax="1438">
      <contour>
        <pt x="68" y="176" on="1"/>
        <pt x="192" y="357" on="0"/>
        <pt x="434" y="637" on="1"/>
        <pt x="366" y="700" on="0"/>
        <pt x="179" y="847" on="0"/>
        <pt x="115" y="883" on="1"/>
        <pt x="219" y="1038" on="1"/>
        <pt x="275" y="1012" on="0"/>
        <pt x="459" y="875" on="0"/>
        <pt x="561" y="780" on="1"/>
        <pt x="985" y="1247" on="0"/>
        <pt x="1208" y="1438" on="1"/>
        <pt x="1321" y="1327" on="1"/>
        <pt x="1205" y="1221" on="0"/>
        <pt x="823" y="823" on="0"/>
        <pt x="678" y="662" on="1"/>
        <pt x="840" y="481" on="0"/>
        <pt x="1077" y="153" on="0"/>
        <pt x="1108" y="70" on="1"/>
        <pt x="930" y="-20" on="1"/>
        <pt x="901" y="60" on="0"/>
        <pt x="686" y="367" on="0"/>
        <pt x="551" y="518" on="1"/>
        <pt x="293" y="222" on="0"/>
        <pt x="203" y="90" on="1"/>
      </contour>
    </TTGlyph>
    <TTGlyph name="glyph00056" xMin="68" yMin="-29" xMax="920" yMax="1247">
      <contour>
        <pt x="68" y="1014" on="1"/>
        <pt x="111" y="1121" on="0"/>
        <pt x="319" y="1247" on="0"/>
        <pt x="465" y="1247" on="1"/>
        <pt x="687" y="1247" on="0"/>
        <pt x="920" y="1005" on="0"/>
        <pt x="920" y="760" on="1"/>
        <pt x="920" y="361" on="0"/>
        <pt x="469" y="-29" on="1"/>
        <pt x="336" y="78" on="1"/>
        <pt x="493" y="208" on="0"/>
        <pt x="651" y="404" on="0"/>
        <pt x="743" y="624" on="0"/>
        <pt x="743" y="752" on="1"/>
        <pt x="743" y="1096" on="0"/>
        <pt x="465" y="1096" on="1"/>
        <pt x="376" y="1096" on="0"/>
        <pt x="257" y="1022" on="0"/>
        <pt x="223" y="942" on="1"/>
      </contour>
    </TTGlyph>
    <TTGlyph name="glyph00057" xMin="68" yMin="-16" xMax="977" yMax="1245">
      <contour>
        <pt x="258" y="700" on="1"/>
        <pt x="395" y="722" on="0"/>
        <pt x="556" y="787" on="0"/>
        <pt x="629" y="873" on="0"/>
        <pt x="629" y="954" on="1"/>
        <pt x="629" y="1016" on="0"/>
        <pt x="476" y="1094" on="0"/>
        <pt x="360" y="1094" on="1"/>
        <pt x="259" y="1094" on="0"/>
        <pt x="127" y="1042" on="1"/>
        <pt x="68" y="1186" on="1"/>
        <pt x="183" y="1245" on="0"/>
        <pt x="356" y="1245" on="1"/>
        <pt x="572" y="1245" on="0"/>
        <pt x="809" y="1096" on="0"/>
        <pt x="809" y="958" on="1"/>
        <pt x="809" y="876" on="0"/>
        <pt x="721" y="749" on="0"/>
        <pt x="616" y="692" on="1"/>
        <pt x="806" y="682" on="0"/>
        <pt x="977" y="553" on="0"/>
        <pt x="977" y="422" on="1"/>
        <pt x="977" y="266" on="0"/>
        <pt x="770" y="38" on="0"/>
        <pt x="575" y="-16" on="1"/>
        <pt x="530" y="141" on="1"/>
        <pt x="801" y="212" on="0"/>
        <pt x="801" y="397" on="1"/>
        <pt x="801" y="470" on="0"/>
        <pt x="705" y="539" on="0"/>
        <pt x="486" y="569" on="0"/>
        <pt x="307" y="569" on="1"/>
      </contour>
    </TTGlyph>
    <TTGlyph name="glyph00058" xMin="68" yMin="-25" xMax="578" yMax="1257">
      <contour>
        <pt x="117" y="778" on="1"/>
        <pt x="269" y="937" on="0"/>
        <pt x="397" y="1257" on="1"/>
        <pt x="547" y="1200" on="1"/>
        <pt x="530" y="1138" on="0"/>
        <pt x="485" y="1042" on="1"/>
        <pt x="578" y="1042" on="1"/>
        <pt x="578" y="783" on="0"/>
        <pt x="393" y="211" on="0"/>
        <pt x="229" y="-25" on="1"/>
        <pt x="68" y="41" on="1"/>
        <pt x="229" y="295" on="0"/>
        <pt x="377" y="678" on="0"/>
        <pt x="397" y="879" on="1"/>
        <pt x="323" y="755" on="0"/>
        <pt x="260" y="688" on="1"/>
      </contour>
    </TTGlyph>
    <TTGlyph name="glyph00059" xMin="68" yMin="-12" xMax="1198" yMax="1272">
      <contour>
        <pt x="332" y="1188" on="1"/>
        <pt x="475" y="1188" on="0"/>
        <pt x="625" y="1029" on="0"/>
        <pt x="625" y="879" on="1"/>
        <pt x="625" y="805" on="0"/>
        <pt x="573" y="696" on="1"/>
        <pt x="618" y="694" on="1"/>
        <pt x="664" y="694" on="1"/>
        <pt x="837" y="694" on="0"/>
        <pt x="978" y="709" on="0"/>
        <pt x="1032" y="747" on="0"/>
        <pt x="1032" y="805" on="1"/>
        <pt x="1032" y="961" on="0"/>
        <pt x="981" y="1225" on="1"/>
        <pt x="1126" y="1272" on="1"/>
        <pt x="1171" y="1075" on="0"/>
        <pt x="1198" y="843" on="0"/>
        <pt x="1198" y="713" on="1"/>
        <pt x="1198" y="643" on="0"/>
        <pt x="931" y="563" on="0"/>
        <pt x="690" y="563" on="1"/>
        <pt x="573" y="563" on="0"/>
        <pt x="504" y="571" on="1"/>
        <pt x="385" y="386" on="0"/>
        <pt x="336" y="289" on="0"/>
        <pt x="336" y="262" on="1"/>
        <pt x="336" y="137" on="0"/>
        <pt x="481" y="137" on="1"/>
        <pt x="638" y="137" on="0"/>
        <pt x="1053" y="178" on="0"/>
        <pt x="1102" y="199" on="1"/>
        <pt x="1141" y="47" on="1"/>
        <pt x="1086" y="26" on="0"/>
        <pt x="601" y="-12" on="0"/>
        <pt x="477" y="-12" on="1"/>
        <pt x="319" y="-12" on="0"/>
        <pt x="158" y="94" on="0"/>
        <pt x="158" y="213" on="1"/>
        <pt x="158" y="280" on="0"/>
        <pt x="281" y="485" on="1"/>
        <pt x="348" y="598" on="1"/>
        <pt x="203" y="638" on="0"/>
        <pt x="68" y="801" on="0"/>
        <pt x="68" y="926" on="1"/>
        <pt x="68" y="1037" on="0"/>
        <pt x="216" y="1188" on="0"/>
      </contour>
      <contour>
        <pt x="240" y="922" on="1"/>
        <pt x="240" y="762" on="0"/>
        <pt x="412" y="717" on="1"/>
        <pt x="463" y="819" on="0"/>
        <pt x="463" y="879" on="1"/>
        <pt x="463" y="951" on="0"/>
        <pt x="394" y="1036" on="0"/>
        <pt x="334" y="1036" on="1"/>
        <pt x="295" y="1036" on="0"/>
        <pt x="240" y="969" on="0"/>
      </contour>
    </TTGlyph>
    <TTGlyph name="glyph00060" xMin="147" yMin="1200" xMax="401" yMax="1477">
      <contour>
        <pt x="147" y="1339" on="1"/>
        <pt x="147" y="1405" on="0"/>
        <pt x="212" y="1477" on="0"/>
        <pt x="272" y="1477" on="1"/>
        <pt x="333" y="1477" on="0"/>
        <pt x="401" y="1405" on="0"/>
        <pt x="401" y="1339" on="1"/>
        <pt x="401" y="1275" on="0"/>
        <pt x="333" y="1200" on="0"/>
        <pt x="272" y="1200" on="1"/>
        <pt x="213" y="1200" on="0"/>
        <pt x="147" y="1274" on="0"/>
      </contour>
    </TTGlyph>
    <TTGlyph name="glyph00061" xMin="135" yMin="627" xMax="606" yMax="1079">
      <contour>
        <pt x="606" y="856" on="1"/>
        <pt x="606" y="758" on="0"/>
        <pt x="464" y="627" on="0"/>
        <pt x="358" y="627" on="1"/>
        <pt x="255" y="627" on="0"/>
        <pt x="135" y="744" on="0"/>
        <pt x="135" y="844" on="1"/>
        <pt x="135" y="944" on="0"/>
        <pt x="268" y="1079" on="0"/>
        <pt x="369" y="1079" on="1"/>
        <pt x="481" y="1079" on="0"/>
        <pt x="606" y="957" on="0"/>
      </contour>
      <contour>
        <pt x="473" y="844" on="1"/>
        <pt x="473" y="898" on="0"/>
        <pt x="408" y="958" on="0"/>
        <pt x="358" y="958" on="1"/>
        <pt x="309" y="958" on="0"/>
        <pt x="244" y="898" on="0"/>
        <pt x="244" y="844" on="1"/>
        <pt x="244" y="790" on="0"/>
        <pt x="303" y="729" on="0"/>
        <pt x="358" y="729" on="1"/>
        <pt x="409" y="729" on="0"/>
        <pt x="473" y="790" on="0"/>
      </contour>
    </TTGlyph>
    <TTGlyph name="glyph00062" xMin="180" yMin="358" xMax="1073" yMax="1217">
      <contour>
        <pt x="1073" y="793" on="1"/>
        <pt x="1073" y="670" on="0"/>
        <pt x="948" y="469" on="0"/>
        <pt x="732" y="358" on="0"/>
        <pt x="604" y="358" on="1"/>
        <pt x="409" y="358" on="0"/>
        <pt x="180" y="579" on="0"/>
        <pt x="180" y="770" on="1"/>
        <pt x="180" y="894" on="0"/>
        <pt x="296" y="1101" on="0"/>
        <pt x="501" y="1217" on="0"/>
        <pt x="623" y="1217" on="1"/>
        <pt x="832" y="1217" on="0"/>
        <pt x="1073" y="989" on="0"/>
      </contour>
      <contour>
        <pt x="907" y="774" on="1"/>
        <pt x="907" y="908" on="0"/>
        <pt x="740" y="1073" on="0"/>
        <pt x="608" y="1073" on="1"/>
        <pt x="473" y="1073" on="0"/>
        <pt x="307" y="908" on="0"/>
        <pt x="307" y="774" on="1"/>
        <pt x="307" y="634" on="0"/>
        <pt x="462" y="475" on="0"/>
        <pt x="608" y="475" on="1"/>
        <pt x="743" y="475" on="0"/>
        <pt x="907" y="637" on="0"/>
      </contour>
    </TTGlyph>
    <TTGlyph name="glyph00063" xMin="180" yMin="10" xMax="1599" yMax="1454">
      <contour>
        <pt x="1485" y="117" on="1"/>
        <pt x="1355" y="69" on="0"/>
        <pt x="1021" y="10" on="0"/>
        <pt x="907" y="10" on="1"/>
        <pt x="180" y="10" on="0"/>
        <pt x="180" y="762" on="1"/>
        <pt x="180" y="1086" on="0"/>
        <pt x="508" y="1454" on="0"/>
        <pt x="799" y="1454" on="1"/>
        <pt x="1129" y="1454" on="0"/>
        <pt x="1368" y="1352" on="1"/>
        <pt x="1303" y="1206" on="1"/>
        <pt x="1215" y="1247" on="0"/>
        <pt x="906" y="1300" on="0"/>
        <pt x="801" y="1300" on="1"/>
        <pt x="595" y="1300" on="0"/>
        <pt x="372" y="1069" on="0"/>
        <pt x="354" y="848" on="1"/>
        <pt x="583" y="895" on="0"/>
        <pt x="903" y="895" on="1"/>
        <pt x="1089" y="895" on="0"/>
        <pt x="1529" y="845" on="0"/>
        <pt x="1599" y="817" on="1"/>
        <pt x="1563" y="676" on="1"/>
        <pt x="1496" y="701" on="0"/>
        <pt x="1059" y="745" on="0"/>
        <pt x="901" y="745" on="1"/>
        <pt x="572" y="745" on="0"/>
        <pt x="354" y="684" on="1"/>
        <pt x="376" y="440" on="0"/>
        <pt x="672" y="178" on="0"/>
        <pt x="922" y="178" on="1"/>
        <pt x="1050" y="178" on="0"/>
        <pt x="1338" y="229" on="0"/>
        <pt x="1442" y="272" on="1"/>
      </contour>
    </TTGlyph>
    <TTGlyph name="glyph00064" xMin="135" yMin="250" xMax="1276" yMax="1346">
      <contour>
        <pt x="1276" y="805" on="1"/>
        <pt x="1276" y="648" on="0"/>
        <pt x="1118" y="394" on="0"/>
        <pt x="841" y="250" on="0"/>
        <pt x="676" y="250" on="1"/>
        <pt x="425" y="250" on="0"/>
        <pt x="135" y="533" on="0"/>
        <pt x="135" y="774" on="1"/>
        <pt x="135" y="933" on="0"/>
        <pt x="282" y="1196" on="0"/>
        <pt x="543" y="1346" on="0"/>
        <pt x="700" y="1346" on="1"/>
        <pt x="969" y="1346" on="0"/>
        <pt x="1276" y="1053" on="0"/>
      </contour>
      <contour>
        <pt x="821" y="954" on="1"/>
        <pt x="821" y="938" on="0"/>
        <pt x="813" y="901" on="1"/>
        <pt x="986" y="901" on="0"/>
        <pt x="1081" y="920" on="1"/>
        <pt x="1044" y="1049" on="0"/>
        <pt x="829" y="1200" on="0"/>
        <pt x="682" y="1200" on="1"/>
        <pt x="495" y="1200" on="0"/>
        <pt x="258" y="971" on="0"/>
        <pt x="258" y="780" on="1"/>
        <pt x="258" y="568" on="0"/>
        <pt x="381" y="459" on="1"/>
        <pt x="324" y="575" on="0"/>
        <pt x="324" y="694" on="1"/>
        <pt x="324" y="798" on="0"/>
        <pt x="484" y="890" on="0"/>
        <pt x="684" y="899" on="1"/>
        <pt x="686" y="909" on="1"/>
        <pt x="686" y="918" on="1"/>
        <pt x="686" y="993" on="0"/>
        <pt x="621" y="993" on="1"/>
        <pt x="547" y="993" on="0"/>
        <pt x="463" y="950" on="1"/>
        <pt x="422" y="1061" on="1"/>
        <pt x="544" y="1124" on="0"/>
        <pt x="655" y="1124" on="1"/>
        <pt x="821" y="1124" on="0"/>
      </contour>
      <contour>
        <pt x="1102" y="791" on="1"/>
        <pt x="997" y="770" on="0"/>
        <pt x="768" y="770" on="1"/>
        <pt x="753" y="730" on="0"/>
        <pt x="729" y="663" on="0"/>
        <pt x="729" y="643" on="1"/>
        <pt x="729" y="586" on="0"/>
        <pt x="786" y="586" on="1"/>
        <pt x="817" y="586" on="0"/>
        <pt x="925" y="649" on="0"/>
        <pt x="967" y="686" on="1"/>
        <pt x="1032" y="582" on="1"/>
        <pt x="972" y="529" on="0"/>
        <pt x="800" y="455" on="0"/>
        <pt x="750" y="455" on="1"/>
        <pt x="675" y="455" on="0"/>
        <pt x="602" y="519" on="0"/>
        <pt x="602" y="590" on="1"/>
        <pt x="602" y="635" on="0"/>
        <pt x="628" y="725" on="0"/>
        <pt x="643" y="768" on="1"/>
        <pt x="546" y="763" on="0"/>
        <pt x="471" y="725" on="0"/>
        <pt x="471" y="676" on="1"/>
        <pt x="471" y="630" on="0"/>
        <pt x="490" y="549" on="0"/>
        <pt x="514" y="492" on="1"/>
        <pt x="391" y="451" on="1"/>
        <pt x="500" y="360" on="0"/>
        <pt x="682" y="360" on="1"/>
        <pt x="871" y="360" on="0"/>
        <pt x="1102" y="586" on="0"/>
        <pt x="1102" y="780" on="1"/>
      </contour>
    </TTGlyph>
    <TTGlyph name="glyph00065" xMin="135" yMin="-18" xMax="1702" yMax="1477">
      <contour>
        <pt x="1501" y="1221" on="1"/>
        <pt x="1501" y="1122" on="0"/>
        <pt x="1359" y="991" on="0"/>
        <pt x="1253" y="991" on="1"/>
        <pt x="1150" y="991" on="0"/>
        <pt x="1030" y="1108" on="0"/>
        <pt x="1030" y="1208" on="1"/>
        <pt x="1030" y="1311" on="0"/>
        <pt x="1165" y="1444" on="0"/>
        <pt x="1264" y="1444" on="1"/>
        <pt x="1376" y="1444" on="0"/>
        <pt x="1501" y="1322" on="0"/>
      </contour>
      <contour>
        <pt x="1368" y="1208" on="1"/>
        <pt x="1368" y="1262" on="0"/>
        <pt x="1303" y="1323" on="0"/>
        <pt x="1253" y="1323" on="1"/>
        <pt x="1204" y="1323" on="0"/>
        <pt x="1139" y="1262" on="0"/>
        <pt x="1139" y="1208" on="1"/>
        <pt x="1139" y="1154" on="0"/>
        <pt x="1198" y="1094" on="0"/>
        <pt x="1253" y="1094" on="1"/>
        <pt x="1304" y="1094" on="0"/>
        <pt x="1368" y="1154" on="0"/>
      </contour>
      <contour>
        <pt x="1176" y="741" on="1"/>
        <pt x="1176" y="643" on="0"/>
        <pt x="1034" y="512" on="0"/>
        <pt x="928" y="512" on="1"/>
        <pt x="825" y="512" on="0"/>
        <pt x="705" y="629" on="0"/>
        <pt x="705" y="729" on="1"/>
        <pt x="705" y="832" on="0"/>
        <pt x="840" y="965" on="0"/>
        <pt x="938" y="965" on="1"/>
        <pt x="1049" y="965" on="0"/>
        <pt x="1176" y="844" on="0"/>
      </contour>
      <contour>
        <pt x="1042" y="729" on="1"/>
        <pt x="1042" y="783" on="0"/>
        <pt x="977" y="844" on="0"/>
        <pt x="928" y="844" on="1"/>
        <pt x="878" y="844" on="0"/>
        <pt x="813" y="783" on="0"/>
        <pt x="813" y="729" on="1"/>
        <pt x="813" y="675" on="0"/>
        <pt x="872" y="614" on="0"/>
        <pt x="928" y="614" on="1"/>
        <pt x="979" y="614" on="0"/>
        <pt x="1042" y="675" on="0"/>
      </contour>
      <contour>
        <pt x="768" y="268" on="1"/>
        <pt x="768" y="170" on="0"/>
        <pt x="626" y="39" on="0"/>
        <pt x="520" y="39" on="1"/>
        <pt x="417" y="39" on="0"/>
        <pt x="297" y="156" on="0"/>
        <pt x="297" y="256" on="1"/>
        <pt x="297" y="359" on="0"/>
        <pt x="432" y="492" on="0"/>
        <pt x="530" y="492" on="1"/>
        <pt x="641" y="492" on="0"/>
        <pt x="768" y="371" on="0"/>
      </contour>
      <contour>
        <pt x="635" y="256" on="1"/>
        <pt x="635" y="310" on="0"/>
        <pt x="570" y="371" on="0"/>
        <pt x="520" y="371" on="1"/>
        <pt x="471" y="371" on="0"/>
        <pt x="406" y="310" on="0"/>
        <pt x="406" y="256" on="1"/>
        <pt x="406" y="202" on="0"/>
        <pt x="464" y="141" on="0"/>
        <pt x="520" y="141" on="1"/>
        <pt x="571" y="141" on="0"/>
        <pt x="635" y="202" on="0"/>
      </contour>
      <contour>
        <pt x="948" y="1253" on="1"/>
        <pt x="948" y="1155" on="0"/>
        <pt x="806" y="1024" on="0"/>
        <pt x="700" y="1024" on="1"/>
        <pt x="597" y="1024" on="0"/>
        <pt x="477" y="1141" on="0"/>
        <pt x="477" y="1241" on="1"/>
        <pt x="477" y="1342" on="0"/>
        <pt x="612" y="1477" on="0"/>
        <pt x="711" y="1477" on="1"/>
        <pt x="821" y="1477" on="0"/>
        <pt x="948" y="1355" on="0"/>
      </contour>
      <contour>
        <pt x="815" y="1241" on="1"/>
        <pt x="815" y="1295" on="0"/>
        <pt x="750" y="1356" on="0"/>
        <pt x="700" y="1356" on="1"/>
        <pt x="651" y="1356" on="0"/>
        <pt x="586" y="1295" on="0"/>
        <pt x="586" y="1241" on="1"/>
        <pt x="586" y="1187" on="0"/>
        <pt x="645" y="1126" on="0"/>
        <pt x="700" y="1126" on="1"/>
        <pt x="751" y="1126" on="0"/>
        <pt x="815" y="1187" on="0"/>
      </contour>
      <contour>
        <pt x="606" y="758" on="1"/>
        <pt x="606" y="659" on="0"/>
        <pt x="464" y="528" on="0"/>
        <pt x="358" y="528" on="1"/>
        <pt x="255" y="528" on="0"/>
        <pt x="135" y="645" on="0"/>
        <pt x="135" y="745" on="1"/>
        <pt x="135" y="846" on="0"/>
        <pt x="270" y="981" on="0"/>
        <pt x="369" y="981" on="1"/>
        <pt x="481" y="981" on="0"/>
        <pt x="606" y="859" on="0"/>
      </contour>
      <contour>
        <pt x="473" y="745" on="1"/>
        <pt x="473" y="799" on="0"/>
        <pt x="408" y="860" on="0"/>
        <pt x="358" y="860" on="1"/>
        <pt x="309" y="860" on="0"/>
        <pt x="244" y="799" on="0"/>
        <pt x="244" y="745" on="1"/>
        <pt x="244" y="691" on="0"/>
        <pt x="303" y="631" on="0"/>
        <pt x="358" y="631" on="1"/>
        <pt x="409" y="631" on="0"/>
        <pt x="473" y="691" on="0"/>
      </contour>
      <contour>
        <pt x="1702" y="686" on="1"/>
        <pt x="1702" y="588" on="0"/>
        <pt x="1560" y="457" on="0"/>
        <pt x="1454" y="457" on="1"/>
        <pt x="1351" y="457" on="0"/>
        <pt x="1231" y="574" on="0"/>
        <pt x="1231" y="674" on="1"/>
        <pt x="1231" y="776" on="0"/>
        <pt x="1364" y="909" on="0"/>
        <pt x="1464" y="909" on="1"/>
        <pt x="1576" y="909" on="0"/>
        <pt x="1702" y="788" on="0"/>
      </contour>
      <contour>
        <pt x="1569" y="674" on="1"/>
        <pt x="1569" y="728" on="0"/>
        <pt x="1504" y="788" on="0"/>
        <pt x="1454" y="788" on="1"/>
        <pt x="1405" y="788" on="0"/>
        <pt x="1339" y="728" on="0"/>
        <pt x="1339" y="674" on="1"/>
        <pt x="1339" y="620" on="0"/>
        <pt x="1398" y="559" on="0"/>
        <pt x="1454" y="559" on="1"/>
        <pt x="1505" y="559" on="0"/>
        <pt x="1569" y="620" on="0"/>
      </contour>
      <contour>
        <pt x="1339" y="211" on="1"/>
        <pt x="1339" y="112" on="0"/>
        <pt x="1197" y="-18" on="0"/>
        <pt x="1092" y="-18" on="1"/>
        <pt x="990" y="-18" on="0"/>
        <pt x="868" y="96" on="0"/>
        <pt x="868" y="199" on="1"/>
        <pt x="868" y="299" on="0"/>
        <pt x="1001" y="434" on="0"/>
        <pt x="1102" y="434" on="1"/>
        <pt x="1214" y="434" on="0"/>
        <pt x="1339" y="312" on="0"/>
      </contour>
      <contour>
        <pt x="1206" y="199" on="1"/>
        <pt x="1206" y="253" on="0"/>
        <pt x="1141" y="313" on="0"/>
        <pt x="1092" y="313" on="1"/>
        <pt x="1042" y="313" on="0"/>
        <pt x="977" y="253" on="0"/>
        <pt x="977" y="199" on="1"/>
        <pt x="977" y="145" on="0"/>
        <pt x="1036" y="84" on="0"/>
        <pt x="1092" y="84" on="1"/>
        <pt x="1143" y="84" on="0"/>
        <pt x="1206" y="145" on="0"/>
      </contour>
    </TTGlyph>
    <TTGlyph name="glyph00066" xMin="90" yMin="-33" xMax="600" yMax="1468">
      <contour>
        <pt x="600" y="1454" on="1"/>
        <pt x="569" y="1206" on="0"/>
        <pt x="323" y="132" on="0"/>
        <pt x="256" y="-33" on="1"/>
        <pt x="90" y="12" on="1"/>
        <pt x="152" y="158" on="0"/>
        <pt x="441" y="1256" on="0"/>
        <pt x="467" y="1468" on="1"/>
      </contour>
    </TTGlyph>
    <TTGlyph name="glyph00067" xMin="90" yMin="-33" xMax="881" yMax="1468">
      <contour>
        <pt x="600" y="1454" on="1"/>
        <pt x="569" y="1206" on="0"/>
        <pt x="323" y="132" on="0"/>
        <pt x="256" y="-33" on="1"/>
        <pt x="90" y="12" on="1"/>
        <pt x="152" y="158" on="0"/>
        <pt x="441" y="1256" on="0"/>
        <pt x="467" y="1468" on="1"/>
      </contour>
      <contour>
        <pt x="881" y="1454" on="1"/>
        <pt x="850" y="1206" on="0"/>
        <pt x="604" y="132" on="0"/>
        <pt x="537" y="-33" on="1"/>
        <pt x="371" y="12" on="1"/>
        <pt x="433" y="158" on="0"/>
        <pt x="722" y="1256" on="0"/>
        <pt x="748" y="1468" on="1"/>
      </contour>
    </TTGlyph>
    <TTGlyph name="glyph00068" xMin="23" yMin="346" xMax="2046" yMax="991">
      <contour>
        <pt x="1214" y="823" on="1"/>
        <pt x="1163" y="823" on="0"/>
        <pt x="1078" y="794" on="0"/>
        <pt x="1023" y="759" on="1"/>
        <pt x="927" y="694" on="0"/>
        <pt x="809" y="694" on="1"/>
        <pt x="693" y="694" on="0"/>
        <pt x="582" y="759" on="1"/>
        <pt x="521" y="794" on="0"/>
        <pt x="427" y="823" on="0"/>
        <pt x="377" y="823" on="1"/>
        <pt x="308" y="823" on="0"/>
        <pt x="185" y="775" on="0"/>
        <pt x="131" y="748" on="1"/>
        <pt x="63" y="889" on="1"/>
        <pt x="158" y="938" on="0"/>
        <pt x="337" y="991" on="0"/>
        <pt x="403" y="991" on="1"/>
        <pt x="532" y="991" on="0"/>
        <pt x="644" y="919" on="1"/>
        <pt x="717" y="871" on="0"/>
        <pt x="776" y="846" on="0"/>
        <pt x="809" y="846" on="1"/>
        <pt x="842" y="846" on="0"/>
        <pt x="903" y="872" on="0"/>
        <pt x="974" y="919" on="1"/>
        <pt x="1084" y="991" on="0"/>
        <pt x="1214" y="991" on="1"/>
        <pt x="1343" y="991" on="0"/>
        <pt x="1455" y="919" on="1"/>
        <pt x="1528" y="871" on="0"/>
        <pt x="1587" y="846" on="0"/>
        <pt x="1620" y="846" on="1"/>
        <pt x="1684" y="846" on="0"/>
        <pt x="1794" y="877" on="0"/>
        <pt x="1868" y="914" on="1"/>
        <pt x="1989" y="971" on="1"/>
        <pt x="2046" y="815" on="1"/>
        <pt x="1915" y="751" on="0"/>
        <pt x="1723" y="694" on="0"/>
        <pt x="1620" y="694" on="1"/>
        <pt x="1558" y="694" on="0"/>
        <pt x="1458" y="724" on="0"/>
        <pt x="1406" y="759" on="1"/>
        <pt x="1353" y="793" on="0"/>
        <pt x="1267" y="823" on="0"/>
      </contour>
      <contour>
        <pt x="1174" y="475" on="1"/>
        <pt x="1121" y="475" on="0"/>
        <pt x="1033" y="445" on="0"/>
        <pt x="982" y="411" on="1"/>
        <pt x="886" y="346" on="0"/>
        <pt x="768" y="346" on="1"/>
        <pt x="652" y="346" on="0"/>
        <pt x="541" y="411" on="1"/>
        <pt x="480" y="446" on="0"/>
        <pt x="386" y="475" on="0"/>
        <pt x="336" y="475" on="1"/>
        <pt x="267" y="475" on="0"/>
        <pt x="144" y="427" on="0"/>
        <pt x="90" y="399" on="1"/>
        <pt x="23" y="541" on="1"/>
        <pt x="107" y="586" on="0"/>
        <pt x="292" y="643" on="0"/>
        <pt x="362" y="643" on="1"/>
        <pt x="438" y="643" on="0"/>
        <pt x="549" y="598" on="0"/>
        <pt x="641" y="543" on="0"/>
        <pt x="722" y="498" on="0"/>
        <pt x="768" y="498" on="1"/>
        <pt x="800" y="498" on="0"/>
        <pt x="858" y="522" on="0"/>
        <pt x="934" y="571" on="1"/>
        <pt x="1045" y="643" on="0"/>
        <pt x="1174" y="643" on="1"/>
        <pt x="1304" y="643" on="0"/>
        <pt x="1414" y="571" on="1"/>
        <pt x="1483" y="525" on="0"/>
        <pt x="1545" y="498" on="0"/>
        <pt x="1579" y="498" on="1"/>
        <pt x="1645" y="498" on="0"/>
        <pt x="1753" y="528" on="0"/>
        <pt x="1827" y="565" on="1"/>
        <pt x="1948" y="623" on="1"/>
        <pt x="2005" y="467" on="1"/>
        <pt x="1878" y="405" on="0"/>
        <pt x="1682" y="346" on="0"/>
        <pt x="1579" y="346" on="1"/>
        <pt x="1517" y="346" on="0"/>
        <pt x="1417" y="376" on="0"/>
        <pt x="1365" y="411" on="1"/>
        <pt x="1312" y="445" on="0"/>
        <pt x="1226" y="475" on="0"/>
      </contour>
    </TTGlyph>
    <TTGlyph name="glyph00069" xMin="171" yMin="-33" xMax="1516" yMax="1650">
      <contour>
        <pt x="1516" y="307" on="1"/>
        <pt x="1516" y="117" on="0"/>
        <pt x="1368" y="-33" on="1"/>
        <pt x="1239" y="74" on="1"/>
        <pt x="1339" y="180" on="0"/>
        <pt x="1339" y="293" on="1"/>
        <pt x="1339" y="420" on="0"/>
        <pt x="1178" y="587" on="0"/>
        <pt x="1008" y="629" on="1"/>
        <pt x="937" y="345" on="0"/>
        <pt x="754" y="-33" on="1"/>
        <pt x="590" y="12" on="1"/>
        <pt x="667" y="159" on="0"/>
        <pt x="813" y="548" on="0"/>
        <pt x="881" y="850" on="0"/>
        <pt x="881" y="971" on="1"/>
        <pt x="881" y="1233" on="0"/>
        <pt x="714" y="1296" on="1"/>
        <pt x="628" y="972" on="0"/>
        <pt x="394" y="260" on="0"/>
        <pt x="322" y="99" on="1"/>
        <pt x="171" y="171" on="1"/>
        <pt x="283" y="425" on="0"/>
        <pt x="446" y="879" on="1"/>
        <pt x="324" y="778" on="1"/>
        <pt x="180" y="922" on="0"/>
        <pt x="180" y="1098" on="1"/>
        <pt x="180" y="1202" on="0"/>
        <pt x="286" y="1371" on="0"/>
        <pt x="478" y="1466" on="0"/>
        <pt x="602" y="1466" on="1"/>
        <pt x="641" y="1465" on="1"/>
        <pt x="673" y="1572" on="0"/>
        <pt x="689" y="1650" on="1"/>
        <pt x="789" y="1617" on="1"/>
        <pt x="777" y="1549" on="0"/>
        <pt x="753" y="1449" on="1"/>
        <pt x="1057" y="1373" on="0"/>
        <pt x="1057" y="979" on="1"/>
        <pt x="1057" y="879" on="0"/>
        <pt x="1038" y="778" on="1"/>
        <pt x="1276" y="732" on="0"/>
        <pt x="1516" y="493" on="0"/>
      </contour>
      <contour>
        <pt x="449" y="888" on="1"/>
        <pt x="510" y="1054" on="0"/>
        <pt x="595" y="1315" on="1"/>
        <pt x="486" y="1313" on="0"/>
        <pt x="352" y="1198" on="0"/>
        <pt x="352" y="1104" on="1"/>
        <pt x="352" y="993" on="0"/>
      </contour>
    </TTGlyph>
    <TTGlyph name="glyph00070" xMin="135" yMin="-35" xMax="1069" yMax="1650">
      <contour>
        <pt x="201" y="171" on="1"/>
        <pt x="279" y="354" on="0"/>
        <pt x="348" y="533" on="1"/>
        <pt x="246" y="582" on="0"/>
        <pt x="135" y="775" on="0"/>
        <pt x="135" y="907" on="1"/>
        <pt x="135" y="1192" on="0"/>
        <pt x="393" y="1475" on="0"/>
        <pt x="655" y="1475" on="1"/>
        <pt x="674" y="1474" on="1"/>
        <pt x="707" y="1584" on="0"/>
        <pt x="719" y="1650" on="1"/>
        <pt x="819" y="1617" on="1"/>
        <pt x="810" y="1558" on="0"/>
        <pt x="786" y="1462" on="1"/>
        <pt x="866" y="1449" on="0"/>
        <pt x="1020" y="1399" on="0"/>
        <pt x="1069" y="1372" on="1"/>
        <pt x="1004" y="1227" on="1"/>
        <pt x="897" y="1291" on="0"/>
        <pt x="748" y="1312" on="1"/>
        <pt x="657" y="971" on="0"/>
        <pt x="548" y="636" on="1"/>
        <pt x="600" y="631" on="0"/>
        <pt x="643" y="631" on="1"/>
        <pt x="808" y="631" on="0"/>
        <pt x="932" y="510" on="0"/>
        <pt x="932" y="369" on="1"/>
        <pt x="932" y="286" on="0"/>
        <pt x="851" y="52" on="0"/>
        <pt x="788" y="-35" on="1"/>
        <pt x="643" y="31" on="1"/>
        <pt x="683" y="94" on="0"/>
        <pt x="756" y="302" on="0"/>
        <pt x="756" y="365" on="1"/>
        <pt x="756" y="429" on="0"/>
        <pt x="683" y="479" on="0"/>
        <pt x="608" y="479" on="1"/>
        <pt x="550" y="479" on="0"/>
        <pt x="498" y="487" on="1"/>
        <pt x="413" y="236" on="0"/>
        <pt x="352" y="99" on="1"/>
      </contour>
      <contour>
        <pt x="307" y="911" on="1"/>
        <pt x="307" y="822" on="0"/>
        <pt x="356" y="715" on="0"/>
        <pt x="405" y="684" on="1"/>
        <pt x="530" y="1017" on="0"/>
        <pt x="627" y="1321" on="1"/>
        <pt x="453" y="1316" on="0"/>
        <pt x="307" y="1120" on="0"/>
      </contour>
    </TTGlyph>
    <TTGlyph name="glyph00071" xMin="111" yMin="-31" xMax="1363" yMax="1650">
      <contour>
        <pt x="111" y="171" on="1"/>
        <pt x="198" y="366" on="0"/>
        <pt x="362" y="812" on="1"/>
        <pt x="277" y="863" on="0"/>
        <pt x="183" y="1020" on="0"/>
        <pt x="183" y="1118" on="1"/>
        <pt x="183" y="1219" on="0"/>
        <pt x="258" y="1421" on="0"/>
        <pt x="326" y="1499" on="1"/>
        <pt x="461" y="1430" on="1"/>
        <pt x="420" y="1362" on="1"/>
        <pt x="349" y="1245" on="0"/>
        <pt x="349" y="1133" on="1"/>
        <pt x="349" y="1029" on="0"/>
        <pt x="415" y="961" on="1"/>
        <pt x="597" y="1477" on="0"/>
        <pt x="629" y="1650" on="1"/>
        <pt x="729" y="1617" on="1"/>
        <pt x="690" y="1397" on="0"/>
        <pt x="537" y="888" on="1"/>
        <pt x="583" y="874" on="0"/>
        <pt x="634" y="870" on="1"/>
        <pt x="715" y="1148" on="0"/>
        <pt x="919" y="1393" on="0"/>
        <pt x="1072" y="1393" on="1"/>
        <pt x="1202" y="1393" on="0"/>
        <pt x="1363" y="1247" on="0"/>
        <pt x="1363" y="1130" on="1"/>
        <pt x="1363" y="1018" on="0"/>
        <pt x="1210" y="835" on="0"/>
        <pt x="931" y="729" on="0"/>
        <pt x="763" y="727" on="1"/>
        <pt x="735" y="611" on="0"/>
        <pt x="640" y="120" on="0"/>
        <pt x="618" y="-31" on="1"/>
        <pt x="454" y="-14" on="1"/>
        <pt x="472" y="108" on="0"/>
        <pt x="559" y="584" on="0"/>
        <pt x="597" y="739" on="1"/>
        <pt x="542" y="744" on="0"/>
        <pt x="496" y="757" on="1"/>
        <pt x="356" y="314" on="0"/>
        <pt x="262" y="99" on="1"/>
      </contour>
      <contour>
        <pt x="1064" y="1241" on="1"/>
        <pt x="1000" y="1241" on="0"/>
        <pt x="918" y="1169" on="0"/>
        <pt x="839" y="1003" on="0"/>
        <pt x="798" y="858" on="1"/>
        <pt x="966" y="867" on="0"/>
        <pt x="1191" y="1017" on="0"/>
        <pt x="1191" y="1126" on="1"/>
        <pt x="1191" y="1178" on="0"/>
        <pt x="1121" y="1241" on="0"/>
      </contour>
    </TTGlyph>
    <TTGlyph name="glyph00072" xMin="111" yMin="-33" xMax="1363" yMax="1650">
      <contour>
        <pt x="1363" y="1130" on="1"/>
        <pt x="1363" y="1018" on="0"/>
        <pt x="1210" y="835" on="0"/>
        <pt x="931" y="729" on="0"/>
        <pt x="763" y="727" on="1"/>
        <pt x="743" y="641" on="1"/>
        <pt x="994" y="615" on="0"/>
        <pt x="1226" y="455" on="0"/>
        <pt x="1226" y="307" on="1"/>
        <pt x="1226" y="223" on="0"/>
        <pt x="1143" y="32" on="0"/>
        <pt x="1079" y="-33" on="1"/>
        <pt x="950" y="74" on="1"/>
        <pt x="1050" y="180" on="0"/>
        <pt x="1050" y="293" on="1"/>
        <pt x="1050" y="358" on="0"/>
        <pt x="982" y="433" on="0"/>
        <pt x="834" y="488" on="0"/>
        <pt x="715" y="505" on="1"/>
        <pt x="644" y="156" on="0"/>
        <pt x="618" y="-31" on="1"/>
        <pt x="454" y="-14" on="1"/>
        <pt x="472" y="108" on="0"/>
        <pt x="559" y="584" on="0"/>
        <pt x="597" y="739" on="1"/>
        <pt x="542" y="744" on="0"/>
        <pt x="496" y="757" on="1"/>
        <pt x="356" y="314" on="0"/>
        <pt x="262" y="99" on="1"/>
        <pt x="111" y="171" on="1"/>
        <pt x="198" y="366" on="0"/>
        <pt x="362" y="812" on="1"/>
        <pt x="277" y="863" on="0"/>
        <pt x="183" y="1020" on="0"/>
        <pt x="183" y="1118" on="1"/>
        <pt x="183" y="1219" on="0"/>
        <pt x="258" y="1421" on="0"/>
        <pt x="326" y="1499" on="1"/>
        <pt x="461" y="1430" on="1"/>
        <pt x="420" y="1362" on="1"/>
        <pt x="349" y="1245" on="0"/>
        <pt x="349" y="1133" on="1"/>
        <pt x="349" y="1029" on="0"/>
        <pt x="415" y="961" on="1"/>
        <pt x="597" y="1477" on="0"/>
        <pt x="629" y="1650" on="1"/>
        <pt x="729" y="1617" on="1"/>
        <pt x="690" y="1397" on="0"/>
        <pt x="537" y="888" on="1"/>
        <pt x="583" y="874" on="0"/>
        <pt x="634" y="870" on="1"/>
        <pt x="715" y="1148" on="0"/>
        <pt x="919" y="1393" on="0"/>
        <pt x="1072" y="1393" on="1"/>
        <pt x="1202" y="1393" on="0"/>
        <pt x="1363" y="1247" on="0"/>
      </contour>
      <contour>
        <pt x="1064" y="1241" on="1"/>
        <pt x="1000" y="1241" on="0"/>
        <pt x="918" y="1169" on="0"/>
        <pt x="839" y="1003" on="0"/>
        <pt x="798" y="858" on="1"/>
        <pt x="966" y="867" on="0"/>
        <pt x="1191" y="1017" on="0"/>
        <pt x="1191" y="1126" on="1"/>
        <pt x="1191" y="1178" on="0"/>
        <pt x="1121" y="1241" on="0"/>
      </contour>
    </TTGlyph>
    <TTGlyph name="glyph00073" xMin="22" yMin="-35" xMax="1083" yMax="1650">
      <contour>
        <pt x="22" y="171" on="1"/>
        <pt x="102" y="351" on="0"/>
        <pt x="330" y="965" on="0"/>
        <pt x="402" y="1180" on="1"/>
        <pt x="340" y="1222" on="0"/>
        <pt x="230" y="1351" on="0"/>
        <pt x="203" y="1415" on="1"/>
        <pt x="342" y="1501" on="1"/>
        <pt x="372" y="1411" on="0"/>
        <pt x="455" y="1342" on="1"/>
        <pt x="521" y="1552" on="0"/>
        <pt x="540" y="1650" on="1"/>
        <pt x="640" y="1617" on="1"/>
        <pt x="618" y="1499" on="0"/>
        <pt x="560" y="1280" on="1"/>
        <pt x="614" y="1262" on="0"/>
        <pt x="659" y="1262" on="1"/>
        <pt x="717" y="1262" on="0"/>
        <pt x="807" y="1299" on="0"/>
        <pt x="885" y="1368" on="0"/>
        <pt x="961" y="1473" on="1"/>
        <pt x="1083" y="1389" on="1"/>
        <pt x="1021" y="1285" on="0"/>
        <pt x="778" y="1013" on="0"/>
        <pt x="705" y="965" on="1"/>
        <pt x="1026" y="933" on="0"/>
        <pt x="1026" y="655" on="1"/>
        <pt x="1026" y="505" on="0"/>
        <pt x="801" y="149" on="0"/>
        <pt x="596" y="-35" on="1"/>
        <pt x="467" y="53" on="1"/>
        <pt x="676" y="244" on="0"/>
        <pt x="850" y="527" on="0"/>
        <pt x="850" y="651" on="1"/>
        <pt x="850" y="709" on="0"/>
        <pt x="792" y="787" on="0"/>
        <pt x="695" y="827" on="0"/>
        <pt x="637" y="827" on="1"/>
        <pt x="591" y="827" on="0"/>
        <pt x="464" y="808" on="0"/>
        <pt x="420" y="791" on="1"/>
        <pt x="419" y="795" on="1"/>
        <pt x="280" y="346" on="0"/>
        <pt x="173" y="99" on="1"/>
      </contour>
      <contour>
        <pt x="649" y="1100" on="1"/>
        <pt x="581" y="1100" on="0"/>
        <pt x="517" y="1122" on="1"/>
        <pt x="473" y="971" on="1"/>
        <pt x="624" y="1044" on="0"/>
        <pt x="688" y="1104" on="1"/>
      </contour>
    </TTGlyph>
    <TTGlyph name="glyph00074" xMin="135" yMin="-31" xMax="1307" yMax="1650">
      <contour>
        <pt x="181" y="171" on="1"/>
        <pt x="241" y="313" on="1"/>
        <pt x="135" y="440" on="0"/>
        <pt x="135" y="592" on="1"/>
        <pt x="135" y="749" on="0"/>
        <pt x="331" y="977" on="0"/>
        <pt x="508" y="1027" on="1"/>
        <pt x="572" y="1214" on="1"/>
        <pt x="465" y="1306" on="0"/>
        <pt x="420" y="1415" on="1"/>
        <pt x="559" y="1501" on="1"/>
        <pt x="578" y="1441" on="0"/>
        <pt x="627" y="1385" on="1"/>
        <pt x="682" y="1564" on="0"/>
        <pt x="699" y="1650" on="1"/>
        <pt x="799" y="1617" on="1"/>
        <pt x="777" y="1492" on="0"/>
        <pt x="726" y="1305" on="1"/>
        <pt x="801" y="1262" on="0"/>
        <pt x="877" y="1262" on="1"/>
        <pt x="948" y="1262" on="0"/>
        <pt x="1076" y="1348" on="0"/>
        <pt x="1167" y="1473" on="1"/>
        <pt x="1300" y="1389" on="1"/>
        <pt x="1262" y="1324" on="0"/>
        <pt x="1164" y="1231" on="0"/>
        <pt x="1064" y="1151" on="0"/>
        <pt x="969" y="1074" on="0"/>
        <pt x="934" y="1026" on="1"/>
        <pt x="1112" y="978" on="0"/>
        <pt x="1307" y="735" on="0"/>
        <pt x="1307" y="561" on="1"/>
        <pt x="1307" y="474" on="0"/>
        <pt x="1226" y="229" on="0"/>
        <pt x="1163" y="141" on="1"/>
        <pt x="1018" y="207" on="1"/>
        <pt x="1067" y="287" on="0"/>
        <pt x="1130" y="477" on="0"/>
        <pt x="1130" y="547" on="1"/>
        <pt x="1130" y="672" on="0"/>
        <pt x="997" y="844" on="0"/>
        <pt x="868" y="881" on="1"/>
        <pt x="788" y="637" on="0"/>
        <pt x="666" y="146" on="0"/>
        <pt x="639" y="-31" on="1"/>
        <pt x="465" y="-16" on="1"/>
        <pt x="505" y="285" on="0"/>
        <pt x="690" y="903" on="1"/>
        <pt x="658" y="903" on="0"/>
        <pt x="610" y="898" on="1"/>
        <pt x="551" y="702" on="0"/>
        <pt x="392" y="238" on="0"/>
        <pt x="332" y="99" on="1"/>
      </contour>
      <contour>
        <pt x="307" y="598" on="1"/>
        <pt x="307" y="560" on="0"/>
        <pt x="321" y="516" on="1"/>
        <pt x="382" y="674" on="0"/>
        <pt x="444" y="847" on="1"/>
        <pt x="307" y="766" on="0"/>
      </contour>
      <contour>
        <pt x="815" y="1102" on="1"/>
        <pt x="748" y="1109" on="0"/>
        <pt x="681" y="1142" on="1"/>
        <pt x="655" y="1052" on="1"/>
        <pt x="717" y="1055" on="1"/>
        <pt x="741" y="1055" on="1"/>
        <pt x="764" y="1053" on="1"/>
        <pt x="773" y="1064" on="0"/>
      </contour>
    </TTGlyph>
    <TTGlyph name="glyph00075" xMin="-9" yMin="-35" xMax="1153" yMax="1650">
      <contour>
        <pt x="-9" y="171" on="1"/>
        <pt x="65" y="337" on="0"/>
        <pt x="282" y="919" on="0"/>
        <pt x="368" y="1174" on="1"/>
        <pt x="267" y="1314" on="0"/>
        <pt x="231" y="1405" on="1"/>
        <pt x="387" y="1495" on="1"/>
        <pt x="402" y="1459" on="0"/>
        <pt x="441" y="1396" on="1"/>
        <pt x="494" y="1568" on="0"/>
        <pt x="509" y="1650" on="1"/>
        <pt x="609" y="1617" on="1"/>
        <pt x="586" y="1490" on="0"/>
        <pt x="527" y="1270" on="1"/>
        <pt x="640" y="1115" on="0"/>
        <pt x="799" y="948" on="1"/>
        <pt x="941" y="1242" on="0"/>
        <pt x="985" y="1470" on="1"/>
        <pt x="1153" y="1442" on="1"/>
        <pt x="1109" y="1215" on="0"/>
        <pt x="837" y="636" on="0"/>
        <pt x="449" y="96" on="0"/>
        <pt x="274" y="-35" on="1"/>
        <pt x="172" y="90" on="1"/>
        <pt x="292" y="181" on="0"/>
        <pt x="572" y="536" on="0"/>
        <pt x="707" y="774" on="1"/>
        <pt x="572" y="911" on="0"/>
        <pt x="464" y="1047" on="1"/>
        <pt x="284" y="425" on="0"/>
        <pt x="142" y="99" on="1"/>
      </contour>
    </TTGlyph>
    <TTGlyph name="glyph00076" xMin="-8" yMin="-45" xMax="1274" yMax="1650">
      <contour>
        <pt x="381" y="171" on="1"/>
        <pt x="473" y="384" on="0"/>
        <pt x="582" y="676" on="1"/>
        <pt x="534" y="680" on="0"/>
        <pt x="496" y="690" on="1"/>
        <pt x="457" y="563" on="1"/>
        <pt x="380" y="313" on="0"/>
        <pt x="178" y="1" on="0"/>
        <pt x="59" y="-45" on="1"/>
        <pt x="-8" y="90" on="1"/>
        <pt x="96" y="133" on="0"/>
        <pt x="290" y="530" on="0"/>
        <pt x="451" y="1220" on="0"/>
        <pt x="484" y="1468" on="1"/>
        <pt x="658" y="1454" on="1"/>
        <pt x="612" y="1128" on="0"/>
        <pt x="533" y="834" on="1"/>
        <pt x="589" y="821" on="0"/>
        <pt x="634" y="818" on="1"/>
        <pt x="728" y="1077" on="0"/>
        <pt x="877" y="1541" on="0"/>
        <pt x="899" y="1650" on="1"/>
        <pt x="999" y="1617" on="1"/>
        <pt x="952" y="1361" on="0"/>
        <pt x="784" y="816" on="1"/>
        <pt x="895" y="823" on="0"/>
        <pt x="991" y="905" on="0"/>
        <pt x="991" y="987" on="1"/>
        <pt x="991" y="1034" on="0"/>
        <pt x="981" y="1109" on="1"/>
        <pt x="971" y="1184" on="0"/>
        <pt x="971" y="1241" on="1"/>
        <pt x="971" y="1341" on="0"/>
        <pt x="1105" y="1456" on="0"/>
        <pt x="1223" y="1456" on="1"/>
        <pt x="1274" y="1315" on="1"/>
        <pt x="1206" y="1306" on="0"/>
        <pt x="1137" y="1274" on="0"/>
        <pt x="1137" y="1237" on="1"/>
        <pt x="1137" y="1191" on="0"/>
        <pt x="1152" y="1118" on="1"/>
        <pt x="1167" y="1046" on="0"/>
        <pt x="1167" y="991" on="1"/>
        <pt x="1167" y="840" on="0"/>
        <pt x="949" y="675" on="0"/>
        <pt x="738" y="670" on="1"/>
        <pt x="705" y="564" on="0"/>
        <pt x="587" y="228" on="0"/>
        <pt x="532" y="99" on="1"/>
      </contour>
    </TTGlyph>
    <TTGlyph name="glyph00077" xMin="50" yMin="-35" xMax="1282" yMax="1650">
      <contour>
        <pt x="50" y="171" on="1"/>
        <pt x="184" y="473" on="0"/>
        <pt x="379" y="1031" on="1"/>
        <pt x="302" y="1026" on="0"/>
        <pt x="252" y="1026" on="1"/>
        <pt x="252" y="1178" on="1"/>
        <pt x="353" y="1178" on="0"/>
        <pt x="433" y="1191" on="1"/>
        <pt x="537" y="1494" on="0"/>
        <pt x="568" y="1650" on="1"/>
        <pt x="668" y="1617" on="1"/>
        <pt x="645" y="1489" on="0"/>
        <pt x="572" y="1219" on="1"/>
        <pt x="677" y="1248" on="0"/>
        <pt x="898" y="1351" on="0"/>
        <pt x="1100" y="1477" on="1"/>
        <pt x="1153" y="1341" on="1"/>
        <pt x="1066" y="1197" on="0"/>
        <pt x="915" y="836" on="1"/>
        <pt x="765" y="486" on="0"/>
        <pt x="655" y="266" on="1"/>
        <pt x="955" y="416" on="0"/>
        <pt x="1282" y="416" on="1"/>
        <pt x="1282" y="264" on="1"/>
        <pt x="1139" y="264" on="0"/>
        <pt x="892" y="207" on="0"/>
        <pt x="661" y="106" on="0"/>
        <pt x="434" y="-35" on="1"/>
        <pt x="383" y="100" on="1"/>
        <pt x="521" y="322" on="0"/>
        <pt x="837" y="1049" on="1"/>
        <pt x="897" y="1184" on="1"/>
        <pt x="715" y="1088" on="0"/>
        <pt x="524" y="1051" on="1"/>
        <pt x="453" y="805" on="0"/>
        <pt x="268" y="253" on="0"/>
        <pt x="201" y="99" on="1"/>
      </contour>
    </TTGlyph>
    <TTGlyph name="glyph00078" xMin="161" yMin="-33" xMax="1085" yMax="1650">
      <contour>
        <pt x="161" y="171" on="1"/>
        <pt x="263" y="405" on="0"/>
        <pt x="371" y="700" on="1"/>
        <pt x="292" y="683" on="0"/>
        <pt x="240" y="664" on="1"/>
        <pt x="203" y="805" on="1"/>
        <pt x="296" y="842" on="0"/>
        <pt x="430" y="863" on="1"/>
        <pt x="526" y="1125" on="0"/>
        <pt x="590" y="1331" on="1"/>
        <pt x="415" y="1316" on="0"/>
        <pt x="240" y="1257" on="1"/>
        <pt x="203" y="1399" on="1"/>
        <pt x="420" y="1476" on="0"/>
        <pt x="639" y="1492" on="1"/>
        <pt x="666" y="1584" on="0"/>
        <pt x="679" y="1650" on="1"/>
        <pt x="779" y="1617" on="1"/>
        <pt x="753" y="1494" on="1"/>
        <pt x="924" y="1487" on="0"/>
        <pt x="1085" y="1342" on="0"/>
        <pt x="1085" y="1192" on="1"/>
        <pt x="1085" y="970" on="0"/>
        <pt x="904" y="228" on="0"/>
        <pt x="793" y="-33" on="1"/>
        <pt x="631" y="10" on="1"/>
        <pt x="683" y="130" on="0"/>
        <pt x="805" y="529" on="0"/>
        <pt x="848" y="727" on="1"/>
        <pt x="692" y="731" on="1"/>
        <pt x="599" y="731" on="0"/>
        <pt x="536" y="724" on="1"/>
        <pt x="399" y="300" on="0"/>
        <pt x="312" y="99" on="1"/>
      </contour>
      <contour>
        <pt x="909" y="1184" on="1"/>
        <pt x="909" y="1259" on="0"/>
        <pt x="816" y="1332" on="0"/>
        <pt x="714" y="1334" on="1"/>
        <pt x="652" y="1099" on="0"/>
        <pt x="583" y="878" on="1"/>
        <pt x="690" y="881" on="1"/>
        <pt x="789" y="881" on="0"/>
        <pt x="877" y="877" on="1"/>
        <pt x="909" y="1054" on="0"/>
      </contour>
    </TTGlyph>
    <TTGlyph name="glyph00079" xMin="172" yMin="-31" xMax="1145" yMax="1650">
      <contour>
        <pt x="181" y="171" on="1"/>
        <pt x="276" y="385" on="0"/>
        <pt x="419" y="776" on="1"/>
        <pt x="299" y="825" on="0"/>
        <pt x="172" y="999" on="0"/>
        <pt x="172" y="1145" on="1"/>
        <pt x="172" y="1241" on="0"/>
        <pt x="238" y="1404" on="0"/>
        <pt x="295" y="1483" on="1"/>
        <pt x="440" y="1417" on="1"/>
        <pt x="389" y="1333" on="0"/>
        <pt x="348" y="1212" on="0"/>
        <pt x="348" y="1159" on="1"/>
        <pt x="348" y="1076" on="0"/>
        <pt x="405" y="965" on="0"/>
        <pt x="473" y="927" on="1"/>
        <pt x="666" y="1468" on="0"/>
        <pt x="699" y="1650" on="1"/>
        <pt x="799" y="1617" on="1"/>
        <pt x="758" y="1388" on="0"/>
        <pt x="603" y="877" on="1"/>
        <pt x="676" y="858" on="0"/>
        <pt x="776" y="844" on="1"/>
        <pt x="816" y="977" on="0"/>
        <pt x="939" y="1353" on="0"/>
        <pt x="979" y="1448" on="1"/>
        <pt x="1145" y="1403" on="1"/>
        <pt x="1094" y="1281" on="0"/>
        <pt x="916" y="714" on="0"/>
        <pt x="767" y="142" on="0"/>
        <pt x="741" y="-31" on="1"/>
        <pt x="567" y="-16" on="1"/>
        <pt x="585" y="105" on="0"/>
        <pt x="675" y="496" on="0"/>
        <pt x="735" y="700" on="1"/>
        <pt x="621" y="717" on="0"/>
        <pt x="558" y="732" on="1"/>
        <pt x="413" y="278" on="0"/>
        <pt x="332" y="99" on="1"/>
      </contour>
    </TTGlyph>
    <TTGlyph name="glyph00080" xMin="0" yMin="-31" xMax="1350" yMax="1650">
      <contour>
        <pt x="0" y="171" on="1"/>
        <pt x="74" y="338" on="0"/>
        <pt x="322" y="999" on="0"/>
        <pt x="421" y="1307" on="1"/>
        <pt x="312" y="1307" on="1"/>
        <pt x="340" y="1458" on="1"/>
        <pt x="468" y="1458" on="1"/>
        <pt x="503" y="1574" on="0"/>
        <pt x="518" y="1650" on="1"/>
        <pt x="618" y="1617" on="1"/>
        <pt x="584" y="1458" on="1"/>
        <pt x="1350" y="1458" on="1"/>
        <pt x="1321" y="1307" on="1"/>
        <pt x="914" y="1307" on="1"/>
        <pt x="808" y="1013" on="0"/>
        <pt x="582" y="196" on="0"/>
        <pt x="547" y="-31" on="1"/>
        <pt x="373" y="-16" on="1"/>
        <pt x="405" y="214" on="0"/>
        <pt x="631" y="1024" on="0"/>
        <pt x="732" y="1307" on="1"/>
        <pt x="545" y="1307" on="1"/>
        <pt x="453" y="959" on="0"/>
        <pt x="225" y="269" on="0"/>
        <pt x="151" y="99" on="1"/>
      </contour>
    </TTGlyph>
    <TTGlyph name="glyph00081" xMin="0" yMin="-33" xMax="884" yMax="1650">
      <contour>
        <pt x="0" y="171" on="1"/>
        <pt x="91" y="378" on="0"/>
        <pt x="323" y="1005" on="0"/>
        <pt x="398" y="1235" on="1"/>
        <pt x="416" y="1394" on="0"/>
        <pt x="430" y="1475" on="1"/>
        <pt x="472" y="1471" on="1"/>
        <pt x="506" y="1582" on="0"/>
        <pt x="518" y="1650" on="1"/>
        <pt x="618" y="1617" on="1"/>
        <pt x="610" y="1565" on="0"/>
        <pt x="585" y="1461" on="1"/>
        <pt x="604" y="1460" on="1"/>
        <pt x="606" y="1406" on="0"/>
        <pt x="751" y="1165" on="0"/>
        <pt x="884" y="981" on="1"/>
        <pt x="741" y="891" on="1"/>
        <pt x="715" y="925" on="0"/>
        <pt x="596" y="1107" on="0"/>
        <pt x="561" y="1169" on="1"/>
        <pt x="534" y="950" on="0"/>
        <pt x="534" y="668" on="1"/>
        <pt x="534" y="262" on="0"/>
        <pt x="606" y="-8" on="1"/>
        <pt x="434" y="-33" on="1"/>
        <pt x="366" y="315" on="0"/>
        <pt x="366" y="668" on="1"/>
        <pt x="366" y="696" on="1"/>
        <pt x="235" y="293" on="0"/>
        <pt x="151" y="99" on="1"/>
      </contour>
    </TTGlyph>
    <TTGlyph name="glyph00082" xMin="151" yMin="-29" xMax="1141" yMax="1650">
      <contour>
        <pt x="352" y="1217" on="1"/>
        <pt x="352" y="1161" on="0"/>
        <pt x="433" y="1112" on="0"/>
        <pt x="507" y="1112" on="1"/>
        <pt x="632" y="1471" on="0"/>
        <pt x="669" y="1650" on="1"/>
        <pt x="769" y="1617" on="1"/>
        <pt x="742" y="1458" on="0"/>
        <pt x="645" y="1119" on="1"/>
        <pt x="759" y="1128" on="0"/>
        <pt x="801" y="1128" on="1"/>
        <pt x="976" y="1128" on="0"/>
        <pt x="1141" y="984" on="0"/>
        <pt x="1141" y="817" on="1"/>
        <pt x="1141" y="643" on="0"/>
        <pt x="915" y="283" on="0"/>
        <pt x="526" y="24" on="0"/>
        <pt x="289" y="-29" on="1"/>
        <pt x="246" y="119" on="1"/>
        <pt x="255" y="121" on="1"/>
        <pt x="151" y="171" on="1"/>
        <pt x="269" y="441" on="0"/>
        <pt x="452" y="953" on="1"/>
        <pt x="320" y="962" on="0"/>
        <pt x="180" y="1100" on="0"/>
        <pt x="180" y="1221" on="1"/>
        <pt x="180" y="1324" on="0"/>
        <pt x="325" y="1479" on="0"/>
        <pt x="432" y="1497" on="1"/>
        <pt x="483" y="1356" on="1"/>
        <pt x="422" y="1340" on="0"/>
        <pt x="352" y="1266" on="0"/>
      </contour>
      <contour>
        <pt x="776" y="969" on="1"/>
        <pt x="735" y="969" on="0"/>
        <pt x="597" y="957" on="1"/>
        <pt x="439" y="428" on="0"/>
        <pt x="318" y="137" on="1"/>
        <pt x="510" y="190" on="0"/>
        <pt x="804" y="403" on="0"/>
        <pt x="965" y="677" on="0"/>
        <pt x="965" y="817" on="1"/>
        <pt x="965" y="901" on="0"/>
        <pt x="871" y="969" on="0"/>
      </contour>
    </TTGlyph>
    <TTGlyph name="glyph00083" xMin="150" yMin="-31" xMax="1307" yMax="1550">
      <contour>
        <pt x="165" y="489" on="1"/>
        <pt x="221" y="653" on="0"/>
        <pt x="297" y="918" on="1"/>
        <pt x="238" y="905" on="0"/>
        <pt x="186" y="887" on="1"/>
        <pt x="150" y="1028" on="1"/>
        <pt x="223" y="1059" on="0"/>
        <pt x="342" y="1080" on="1"/>
        <pt x="423" y="1389" on="0"/>
        <pt x="451" y="1550" on="1"/>
        <pt x="553" y="1531" on="1"/>
        <pt x="526" y="1330" on="0"/>
        <pt x="479" y="1097" on="1"/>
        <pt x="533" y="1102" on="0"/>
        <pt x="631" y="1104" on="1"/>
        <pt x="708" y="1356" on="0"/>
        <pt x="762" y="1483" on="1"/>
        <pt x="928" y="1438" on="1"/>
        <pt x="882" y="1330" on="0"/>
        <pt x="811" y="1100" on="1"/>
        <pt x="1159" y="1082" on="0"/>
        <pt x="1307" y="1024" on="1"/>
        <pt x="1247" y="872" on="1"/>
        <pt x="1084" y="936" on="0"/>
        <pt x="766" y="952" on="1"/>
        <pt x="682" y="669" on="0"/>
        <pt x="548" y="129" on="0"/>
        <pt x="524" y="-31" on="1"/>
        <pt x="350" y="-16" on="1"/>
        <pt x="370" y="135" on="0"/>
        <pt x="501" y="672" on="0"/>
        <pt x="586" y="952" on="1"/>
        <pt x="512" y="951" on="0"/>
        <pt x="447" y="943" on="1"/>
        <pt x="397" y="709" on="0"/>
        <pt x="332" y="468" on="1"/>
      </contour>
    </TTGlyph>
    <TTGlyph name="glyph00084" xMin="172" yMin="-31" xMax="905" yMax="1650">
      <contour>
        <pt x="237" y="255" on="1"/>
        <pt x="333" y="484" on="0"/>
        <pt x="456" y="823" on="1"/>
        <pt x="343" y="939" on="0"/>
        <pt x="258" y="1124" on="0"/>
        <pt x="258" y="1221" on="1"/>
        <pt x="258" y="1324" on="0"/>
        <pt x="403" y="1479" on="0"/>
        <pt x="510" y="1497" on="1"/>
        <pt x="561" y="1356" on="1"/>
        <pt x="498" y="1340" on="0"/>
        <pt x="430" y="1266" on="0"/>
        <pt x="430" y="1217" on="1"/>
        <pt x="430" y="1162" on="0"/>
        <pt x="483" y="1066" on="0"/>
        <pt x="525" y="1018" on="1"/>
        <pt x="691" y="1492" on="0"/>
        <pt x="719" y="1650" on="1"/>
        <pt x="819" y="1617" on="1"/>
        <pt x="783" y="1399" on="0"/>
        <pt x="633" y="909" on="1"/>
        <pt x="747" y="797" on="0"/>
        <pt x="850" y="652" on="0"/>
        <pt x="905" y="496" on="0"/>
        <pt x="905" y="408" on="1"/>
        <pt x="905" y="289" on="0"/>
        <pt x="769" y="86" on="0"/>
        <pt x="529" y="-31" on="0"/>
        <pt x="391" y="-31" on="1"/>
        <pt x="264" y="-31" on="0"/>
        <pt x="172" y="-2" on="1"/>
        <pt x="209" y="147" on="1"/>
        <pt x="290" y="125" on="0"/>
        <pt x="389" y="125" on="1"/>
        <pt x="540" y="125" on="0"/>
        <pt x="729" y="281" on="0"/>
        <pt x="729" y="408" on="1"/>
        <pt x="729" y="478" on="0"/>
        <pt x="660" y="616" on="0"/>
        <pt x="571" y="708" on="1"/>
        <pt x="463" y="369" on="0"/>
        <pt x="387" y="182" on="1"/>
      </contour>
    </TTGlyph>
    <TTGlyph name="glyph00085" xMin="80" yMin="-37" xMax="1080" yMax="1650">
      <contour>
        <pt x="80" y="171" on="1"/>
        <pt x="179" y="399" on="0"/>
        <pt x="416" y="1043" on="0"/>
        <pt x="509" y="1331" on="1"/>
        <pt x="473" y="1335" on="0"/>
        <pt x="430" y="1335" on="1"/>
        <pt x="350" y="1335" on="0"/>
        <pt x="277" y="1323" on="1"/>
        <pt x="254" y="1468" on="1"/>
        <pt x="359" y="1483" on="0"/>
        <pt x="443" y="1483" on="1"/>
        <pt x="501" y="1483" on="0"/>
        <pt x="554" y="1477" on="1"/>
        <pt x="590" y="1605" on="0"/>
        <pt x="598" y="1650" on="1"/>
        <pt x="698" y="1617" on="1"/>
        <pt x="664" y="1457" on="1"/>
        <pt x="875" y="1396" on="0"/>
        <pt x="875" y="1176" on="1"/>
        <pt x="875" y="1104" on="0"/>
        <pt x="814" y="973" on="0"/>
        <pt x="760" y="922" on="1"/>
        <pt x="915" y="922" on="0"/>
        <pt x="1080" y="785" on="0"/>
        <pt x="1080" y="655" on="1"/>
        <pt x="1080" y="511" on="0"/>
        <pt x="829" y="146" on="0"/>
        <pt x="609" y="-37" on="1"/>
        <pt x="500" y="72" on="1"/>
        <pt x="731" y="269" on="0"/>
        <pt x="903" y="527" on="0"/>
        <pt x="903" y="647" on="1"/>
        <pt x="903" y="723" on="0"/>
        <pt x="788" y="780" on="0"/>
        <pt x="670" y="780" on="1"/>
        <pt x="625" y="780" on="0"/>
        <pt x="501" y="760" on="0"/>
        <pt x="462" y="746" on="1"/>
        <pt x="402" y="555" on="0"/>
        <pt x="272" y="192" on="0"/>
        <pt x="231" y="99" on="1"/>
      </contour>
      <contour>
        <pt x="699" y="1171" on="1"/>
        <pt x="699" y="1258" on="0"/>
        <pt x="623" y="1299" on="1"/>
        <pt x="579" y="1130" on="0"/>
        <pt x="514" y="915" on="1"/>
        <pt x="612" y="949" on="0"/>
        <pt x="699" y="1069" on="0"/>
      </contour>
    </TTGlyph>
    <TTGlyph name="glyph00086" xMin="52" yMin="-33" xMax="1131" yMax="1495">
      <contour>
        <pt x="52" y="688" on="1"/>
        <pt x="327" y="728" on="0"/>
        <pt x="555" y="769" on="1"/>
        <pt x="536" y="801" on="0"/>
        <pt x="470" y="840" on="0"/>
        <pt x="428" y="858" on="1"/>
        <pt x="387" y="876" on="0"/>
        <pt x="306" y="917" on="0"/>
        <pt x="241" y="986" on="0"/>
        <pt x="201" y="1094" on="0"/>
        <pt x="201" y="1178" on="1"/>
        <pt x="201" y="1265" on="0"/>
        <pt x="291" y="1412" on="0"/>
        <pt x="450" y="1495" on="0"/>
        <pt x="553" y="1495" on="1"/>
        <pt x="635" y="1495" on="0"/>
        <pt x="793" y="1479" on="0"/>
        <pt x="834" y="1466" on="1"/>
        <pt x="797" y="1317" on="1"/>
        <pt x="713" y="1339" on="0"/>
        <pt x="555" y="1339" on="1"/>
        <pt x="469" y="1339" on="0"/>
        <pt x="377" y="1257" on="0"/>
        <pt x="377" y="1178" on="1"/>
        <pt x="377" y="1133" on="0"/>
        <pt x="409" y="1071" on="0"/>
        <pt x="470" y="1026" on="0"/>
        <pt x="541" y="999" on="1"/>
        <pt x="643" y="959" on="0"/>
        <pt x="726" y="869" on="0"/>
        <pt x="740" y="803" on="1"/>
        <pt x="949" y="842" on="0"/>
        <pt x="1103" y="876" on="1"/>
        <pt x="1131" y="762" on="1"/>
        <pt x="927" y="707" on="0"/>
        <pt x="748" y="664" on="1"/>
        <pt x="738" y="515" on="0"/>
        <pt x="616" y="135" on="0"/>
        <pt x="530" y="-33" on="1"/>
        <pt x="385" y="14" on="1"/>
        <pt x="458" y="179" on="0"/>
        <pt x="563" y="520" on="0"/>
        <pt x="574" y="623" on="1"/>
        <pt x="278" y="554" on="0"/>
        <pt x="83" y="521" on="1"/>
      </contour>
    </TTGlyph>
    <TTGlyph name="glyph00087" xMin="68" yMin="-31" xMax="1067" yMax="1550">
      <contour>
        <pt x="515" y="489" on="1"/>
        <pt x="569" y="644" on="0"/>
        <pt x="644" y="906" on="1"/>
        <pt x="574" y="931" on="0"/>
        <pt x="483" y="948" on="1"/>
        <pt x="395" y="653" on="0"/>
        <pt x="261" y="108" on="0"/>
        <pt x="242" y="-31" on="1"/>
        <pt x="68" y="-16" on="1"/>
        <pt x="108" y="256" on="0"/>
        <pt x="385" y="1250" on="0"/>
        <pt x="479" y="1483" on="1"/>
        <pt x="645" y="1438" on="1"/>
        <pt x="598" y="1326" on="0"/>
        <pt x="526" y="1094" on="1"/>
        <pt x="615" y="1079" on="0"/>
        <pt x="686" y="1059" on="1"/>
        <pt x="766" y="1350" on="0"/>
        <pt x="801" y="1550" on="1"/>
        <pt x="903" y="1531" on="1"/>
        <pt x="877" y="1327" on="0"/>
        <pt x="811" y="1011" on="1"/>
        <pt x="1067" y="882" on="0"/>
        <pt x="1067" y="610" on="1"/>
        <pt x="1067" y="418" on="0"/>
        <pt x="920" y="270" on="1"/>
        <pt x="791" y="377" on="1"/>
        <pt x="891" y="483" on="0"/>
        <pt x="891" y="596" on="1"/>
        <pt x="891" y="747" on="0"/>
        <pt x="773" y="837" on="1"/>
        <pt x="730" y="651" on="0"/>
        <pt x="682" y="468" on="1"/>
      </contour>
    </TTGlyph>
    <TTGlyph name="glyph00088" xMin="135" yMin="-31" xMax="1247" yMax="1550">
      <contour>
        <pt x="705" y="489" on="1"/>
        <pt x="761" y="652" on="0"/>
        <pt x="833" y="903" on="1"/>
        <pt x="756" y="932" on="0"/>
        <pt x="655" y="948" on="1"/>
        <pt x="581" y="703" on="0"/>
        <pt x="438" y="129" on="0"/>
        <pt x="414" y="-31" on="1"/>
        <pt x="240" y="-16" on="1"/>
        <pt x="284" y="308" on="0"/>
        <pt x="473" y="946" on="1"/>
        <pt x="306" y="933" on="0"/>
        <pt x="172" y="887" on="1"/>
        <pt x="135" y="1028" on="1"/>
        <pt x="276" y="1087" on="0"/>
        <pt x="520" y="1102" on="1"/>
        <pt x="600" y="1362" on="0"/>
        <pt x="651" y="1483" on="1"/>
        <pt x="817" y="1438" on="1"/>
        <pt x="768" y="1320" on="0"/>
        <pt x="698" y="1096" on="1"/>
        <pt x="802" y="1081" on="0"/>
        <pt x="876" y="1058" on="1"/>
        <pt x="956" y="1351" on="0"/>
        <pt x="991" y="1550" on="1"/>
        <pt x="1093" y="1531" on="1"/>
        <pt x="1067" y="1322" on="0"/>
        <pt x="1001" y="1009" on="1"/>
        <pt x="1247" y="881" on="0"/>
        <pt x="1247" y="610" on="1"/>
        <pt x="1247" y="418" on="0"/>
        <pt x="1100" y="270" on="1"/>
        <pt x="971" y="377" on="1"/>
        <pt x="1071" y="483" on="0"/>
        <pt x="1071" y="596" on="1"/>
        <pt x="1071" y="741" on="0"/>
        <pt x="962" y="831" on="1"/>
        <pt x="923" y="657" on="0"/>
        <pt x="872" y="468" on="1"/>
      </contour>
    </TTGlyph>
    <TTGlyph name="glyph00089" xMin="80" yMin="-31" xMax="1191" yMax="1650">
      <contour>
        <pt x="80" y="171" on="1"/>
        <pt x="214" y="480" on="0"/>
        <pt x="369" y="919" on="1"/>
        <pt x="239" y="989" on="0"/>
        <pt x="239" y="1221" on="1"/>
        <pt x="239" y="1371" on="0"/>
        <pt x="302" y="1493" on="1"/>
        <pt x="462" y="1450" on="1"/>
        <pt x="411" y="1320" on="0"/>
        <pt x="411" y="1217" on="1"/>
        <pt x="411" y="1127" on="0"/>
        <pt x="430" y="1091" on="1"/>
        <pt x="570" y="1506" on="0"/>
        <pt x="598" y="1650" on="1"/>
        <pt x="698" y="1617" on="1"/>
        <pt x="668" y="1447" on="0"/>
        <pt x="556" y="1058" on="1"/>
        <pt x="605" y="1085" on="0"/>
        <pt x="636" y="1192" on="1"/>
        <pt x="662" y="1287" on="0"/>
        <pt x="735" y="1384" on="0"/>
        <pt x="850" y="1434" on="0"/>
        <pt x="935" y="1434" on="1"/>
        <pt x="1067" y="1434" on="0"/>
        <pt x="1191" y="1294" on="0"/>
        <pt x="1191" y="1139" on="1"/>
        <pt x="1191" y="913" on="0"/>
        <pt x="1012" y="337" on="0"/>
        <pt x="827" y="-31" on="1"/>
        <pt x="687" y="41" on="1"/>
        <pt x="847" y="365" on="0"/>
        <pt x="1015" y="914" on="0"/>
        <pt x="1015" y="1139" on="1"/>
        <pt x="1015" y="1198" on="0"/>
        <pt x="970" y="1270" on="0"/>
        <pt x="929" y="1270" on="1"/>
        <pt x="882" y="1270" on="0"/>
        <pt x="829" y="1222" on="0"/>
        <pt x="798" y="1128" on="1"/>
        <pt x="757" y="999" on="0"/>
        <pt x="614" y="887" on="0"/>
        <pt x="505" y="887" on="1"/>
        <pt x="339" y="345" on="0"/>
        <pt x="231" y="99" on="1"/>
      </contour>
    </TTGlyph>
    <TTGlyph name="glyph00090" xMin="80" yMin="-31" xMax="1438" yMax="1650">
      <contour>
        <pt x="80" y="171" on="1"/>
        <pt x="145" y="315" on="0"/>
        <pt x="397" y="984" on="0"/>
        <pt x="499" y="1300" on="1"/>
        <pt x="347" y="1300" on="1"/>
        <pt x="375" y="1452" on="1"/>
        <pt x="546" y="1452" on="1"/>
        <pt x="583" y="1573" on="0"/>
        <pt x="598" y="1650" on="1"/>
        <pt x="698" y="1617" on="1"/>
        <pt x="663" y="1452" on="1"/>
        <pt x="1385" y="1452" on="1"/>
        <pt x="1356" y="1300" on="1"/>
        <pt x="971" y="1300" on="1"/>
        <pt x="938" y="1217" on="0"/>
        <pt x="900" y="1094" on="1"/>
        <pt x="1167" y="1054" on="0"/>
        <pt x="1438" y="808" on="0"/>
        <pt x="1438" y="610" on="1"/>
        <pt x="1438" y="514" on="0"/>
        <pt x="1372" y="351" on="0"/>
        <pt x="1315" y="272" on="1"/>
        <pt x="1170" y="338" on="1"/>
        <pt x="1221" y="422" on="0"/>
        <pt x="1262" y="543" on="0"/>
        <pt x="1262" y="596" on="1"/>
        <pt x="1262" y="736" on="0"/>
        <pt x="1063" y="911" on="0"/>
        <pt x="855" y="948" on="1"/>
        <pt x="766" y="668" on="0"/>
        <pt x="629" y="128" on="0"/>
        <pt x="605" y="-31" on="1"/>
        <pt x="431" y="-16" on="1"/>
        <pt x="462" y="205" on="0"/>
        <pt x="683" y="1006" on="0"/>
        <pt x="789" y="1300" on="1"/>
        <pt x="624" y="1300" on="1"/>
        <pt x="546" y="1010" on="0"/>
        <pt x="315" y="287" on="0"/>
        <pt x="231" y="99" on="1"/>
      </contour>
    </TTGlyph>
    <TTGlyph name="glyph00091" xMin="217" yMin="318" xMax="1389" yMax="1497">
      <contour>
        <pt x="520" y="339" on="1"/>
        <pt x="554" y="442" on="0"/>
        <pt x="603" y="607" on="1"/>
        <pt x="417" y="654" on="0"/>
        <pt x="217" y="899" on="0"/>
        <pt x="217" y="1077" on="1"/>
        <pt x="217" y="1166" on="0"/>
        <pt x="299" y="1412" on="0"/>
        <pt x="360" y="1497" on="1"/>
        <pt x="506" y="1432" on="1"/>
        <pt x="457" y="1354" on="0"/>
        <pt x="393" y="1163" on="0"/>
        <pt x="393" y="1092" on="1"/>
        <pt x="393" y="961" on="0"/>
        <pt x="530" y="794" on="0"/>
        <pt x="647" y="760" on="1"/>
        <pt x="692" y="923" on="0"/>
        <pt x="794" y="1346" on="0"/>
        <pt x="817" y="1475" on="1"/>
        <pt x="924" y="1456" on="1"/>
        <pt x="886" y="1172" on="0"/>
        <pt x="793" y="736" on="1"/>
        <pt x="813" y="735" on="1"/>
        <pt x="834" y="735" on="1"/>
        <pt x="1015" y="735" on="0"/>
        <pt x="1217" y="898" on="0"/>
        <pt x="1217" y="1040" on="1"/>
        <pt x="1217" y="1153" on="0"/>
        <pt x="1116" y="1260" on="1"/>
        <pt x="1245" y="1366" on="1"/>
        <pt x="1389" y="1222" on="0"/>
        <pt x="1389" y="1047" on="1"/>
        <pt x="1389" y="910" on="0"/>
        <pt x="1237" y="700" on="0"/>
        <pt x="966" y="584" on="0"/>
        <pt x="807" y="584" on="1"/>
        <pt x="783" y="584" on="1"/>
        <pt x="759" y="585" on="1"/>
        <pt x="718" y="411" on="0"/>
        <pt x="692" y="318" on="1"/>
      </contour>
    </TTGlyph>
    <TTGlyph name="glyph00092" xMin="-49" yMin="-35" xMax="1198" yMax="1650">
      <contour>
        <pt x="376" y="171" on="1"/>
        <pt x="511" y="478" on="0"/>
        <pt x="694" y="999" on="1"/>
        <pt x="674" y="1106" on="1"/>
        <pt x="555" y="818" on="0"/>
        <pt x="212" y="151" on="0"/>
        <pt x="96" y="-35" on="1"/>
        <pt x="-49" y="33" on="1"/>
        <pt x="50" y="188" on="0"/>
        <pt x="367" y="796" on="0"/>
        <pt x="603" y="1334" on="0"/>
        <pt x="629" y="1462" on="1"/>
        <pt x="795" y="1475" on="1"/>
        <pt x="800" y="1400" on="0"/>
        <pt x="808" y="1342" on="1"/>
        <pt x="873" y="1543" on="0"/>
        <pt x="894" y="1650" on="1"/>
        <pt x="994" y="1617" on="1"/>
        <pt x="964" y="1453" on="0"/>
        <pt x="856" y="1070" on="1"/>
        <pt x="913" y="792" on="0"/>
        <pt x="1105" y="217" on="0"/>
        <pt x="1198" y="39" on="1"/>
        <pt x="1036" y="-35" on="1"/>
        <pt x="957" y="116" on="0"/>
        <pt x="806" y="535" on="0"/>
        <pt x="755" y="737" on="1"/>
        <pt x="619" y="305" on="0"/>
        <pt x="527" y="99" on="1"/>
      </contour>
    </TTGlyph>
    <TTGlyph name="glyph00093" xMin="166" yMin="-35" xMax="1051" yMax="1650">
      <contour>
        <pt x="166" y="171" on="1"/>
        <pt x="315" y="513" on="0"/>
        <pt x="487" y="1009" on="1"/>
        <pt x="369" y="1014" on="0"/>
        <pt x="251" y="1054" on="0"/>
        <pt x="203" y="1136" on="0"/>
        <pt x="203" y="1221" on="1"/>
        <pt x="203" y="1284" on="0"/>
        <pt x="225" y="1428" on="0"/>
        <pt x="240" y="1475" on="1"/>
        <pt x="403" y="1448" on="1"/>
        <pt x="365" y="1316" on="0"/>
        <pt x="365" y="1253" on="1"/>
        <pt x="365" y="1215" on="0"/>
        <pt x="396" y="1185" on="0"/>
        <pt x="471" y="1169" on="0"/>
        <pt x="541" y="1167" on="1"/>
        <pt x="657" y="1510" on="0"/>
        <pt x="684" y="1650" on="1"/>
        <pt x="784" y="1617" on="1"/>
        <pt x="759" y="1483" on="0"/>
        <pt x="673" y="1165" on="1"/>
        <pt x="680" y="1165" on="1"/>
        <pt x="870" y="1165" on="0"/>
        <pt x="1051" y="1043" on="0"/>
        <pt x="1051" y="903" on="1"/>
        <pt x="1051" y="759" on="0"/>
        <pt x="801" y="201" on="0"/>
        <pt x="645" y="-35" on="1"/>
        <pt x="496" y="41" on="1"/>
        <pt x="645" y="259" on="0"/>
        <pt x="874" y="764" on="0"/>
        <pt x="874" y="895" on="1"/>
        <pt x="874" y="957" on="0"/>
        <pt x="776" y="1006" on="0"/>
        <pt x="657" y="1006" on="1"/>
        <pt x="627" y="1006" on="1"/>
        <pt x="443" y="387" on="0"/>
        <pt x="317" y="99" on="1"/>
      </contour>
    </TTGlyph>
    <TTGlyph name="glyph00094" xMin="150" yMin="-31" xMax="1032" yMax="1550">
      <contour>
        <pt x="222" y="489" on="1"/>
        <pt x="299" y="721" on="0"/>
        <pt x="357" y="927" on="1"/>
        <pt x="252" y="911" on="0"/>
        <pt x="186" y="887" on="1"/>
        <pt x="150" y="1028" on="1"/>
        <pt x="241" y="1065" on="0"/>
        <pt x="400" y="1084" on="1"/>
        <pt x="478" y="1379" on="0"/>
        <pt x="508" y="1550" on="1"/>
        <pt x="610" y="1531" on="1"/>
        <pt x="584" y="1329" on="0"/>
        <pt x="536" y="1095" on="1"/>
        <pt x="735" y="1102" on="1"/>
        <pt x="808" y="1341" on="0"/>
        <pt x="866" y="1483" on="1"/>
        <pt x="1032" y="1438" on="1"/>
        <pt x="980" y="1313" on="0"/>
        <pt x="799" y="731" on="0"/>
        <pt x="655" y="150" on="0"/>
        <pt x="629" y="-31" on="1"/>
        <pt x="455" y="-16" on="1"/>
        <pt x="478" y="155" on="0"/>
        <pt x="615" y="703" on="0"/>
        <pt x="690" y="952" on="1"/>
        <pt x="583" y="949" on="0"/>
        <pt x="504" y="943" on="1"/>
        <pt x="454" y="709" on="0"/>
        <pt x="389" y="468" on="1"/>
      </contour>
    </TTGlyph>
    <TTGlyph name="glyph00095" xMin="156" yMin="-35" xMax="1085" yMax="1650">
      <contour>
        <pt x="156" y="171" on="1"/>
        <pt x="244" y="374" on="0"/>
        <pt x="485" y="1021" on="0"/>
        <pt x="574" y="1295" on="1"/>
        <pt x="407" y="1278" on="0"/>
        <pt x="240" y="1223" on="1"/>
        <pt x="203" y="1364" on="1"/>
        <pt x="408" y="1438" on="0"/>
        <pt x="624" y="1456" on="1"/>
        <pt x="658" y="1568" on="0"/>
        <pt x="674" y="1650" on="1"/>
        <pt x="774" y="1617" on="1"/>
        <pt x="740" y="1459" on="1"/>
        <pt x="907" y="1452" on="0"/>
        <pt x="1085" y="1266" on="0"/>
        <pt x="1085" y="1096" on="1"/>
        <pt x="1085" y="965" on="0"/>
        <pt x="972" y="592" on="0"/>
        <pt x="746" y="138" on="0"/>
        <pt x="625" y="-35" on="1"/>
        <pt x="483" y="53" on="1"/>
        <pt x="598" y="207" on="0"/>
        <pt x="807" y="616" on="0"/>
        <pt x="909" y="958" on="0"/>
        <pt x="909" y="1087" on="1"/>
        <pt x="909" y="1178" on="0"/>
        <pt x="797" y="1296" on="0"/>
        <pt x="700" y="1300" on="1"/>
        <pt x="622" y="1010" on="0"/>
        <pt x="391" y="287" on="0"/>
        <pt x="307" y="99" on="1"/>
      </contour>
    </TTGlyph>
    <TTGlyph name="glyph00096" xMin="90" yMin="-33" xMax="1413" yMax="1650">
      <contour>
        <pt x="496" y="171" on="1"/>
        <pt x="593" y="395" on="0"/>
        <pt x="829" y="1033" on="0"/>
        <pt x="914" y="1297" on="1"/>
        <pt x="745" y="1285" on="0"/>
        <pt x="606" y="1255" on="1"/>
        <pt x="545" y="944" on="0"/>
        <pt x="323" y="136" on="0"/>
        <pt x="252" y="-27" on="1"/>
        <pt x="90" y="16" on="1"/>
        <pt x="162" y="185" on="0"/>
        <pt x="419" y="1164" on="0"/>
        <pt x="451" y="1365" on="1"/>
        <pt x="566" y="1403" on="0"/>
        <pt x="850" y="1451" on="0"/>
        <pt x="964" y="1457" on="1"/>
        <pt x="1000" y="1577" on="0"/>
        <pt x="1014" y="1650" on="1"/>
        <pt x="1114" y="1617" on="1"/>
        <pt x="1080" y="1458" on="1"/>
        <pt x="1242" y="1448" on="0"/>
        <pt x="1413" y="1262" on="0"/>
        <pt x="1413" y="1096" on="1"/>
        <pt x="1413" y="963" on="0"/>
        <pt x="1341" y="592" on="0"/>
        <pt x="1194" y="134" on="0"/>
        <pt x="1120" y="-33" on="1"/>
        <pt x="958" y="10" on="1"/>
        <pt x="1029" y="166" on="0"/>
        <pt x="1168" y="600" on="0"/>
        <pt x="1237" y="956" on="0"/>
        <pt x="1237" y="1087" on="1"/>
        <pt x="1237" y="1177" on="0"/>
        <pt x="1129" y="1294" on="0"/>
        <pt x="1039" y="1299" on="1"/>
        <pt x="947" y="955" on="0"/>
        <pt x="719" y="260" on="0"/>
        <pt x="647" y="99" on="1"/>
      </contour>
    </TTGlyph>
    <TTGlyph name="glyph00097" xMin="180" yMin="-45" xMax="1352" yMax="1600">
      <contour>
        <pt x="274" y="539" on="1"/>
        <pt x="321" y="681" on="1"/>
        <pt x="180" y="822" on="0"/>
        <pt x="180" y="997" on="1"/>
        <pt x="180" y="1148" on="0"/>
        <pt x="364" y="1373" on="0"/>
        <pt x="524" y="1423" on="1"/>
        <pt x="560" y="1600" on="1"/>
        <pt x="662" y="1581" on="1"/>
        <pt x="643" y="1451" on="1"/>
        <pt x="701" y="1460" on="0"/>
        <pt x="762" y="1460" on="1"/>
        <pt x="935" y="1460" on="0"/>
        <pt x="1205" y="1341" on="0"/>
        <pt x="1352" y="1117" on="0"/>
        <pt x="1352" y="967" on="1"/>
        <pt x="1352" y="836" on="0"/>
        <pt x="1227" y="556" on="0"/>
        <pt x="1145" y="487" on="1"/>
        <pt x="1018" y="584" on="1"/>
        <pt x="1088" y="654" on="0"/>
        <pt x="1176" y="859" on="0"/>
        <pt x="1176" y="952" on="1"/>
        <pt x="1176" y="1079" on="0"/>
        <pt x="1037" y="1252" on="0"/>
        <pt x="909" y="1286" on="1"/>
        <pt x="862" y="1007" on="0"/>
        <pt x="675" y="373" on="0"/>
        <pt x="442" y="6" on="0"/>
        <pt x="311" y="-45" on="1"/>
        <pt x="244" y="90" on="1"/>
        <pt x="312" y="118" on="0"/>
        <pt x="453" y="308" on="0"/>
        <pt x="575" y="599" on="0"/>
        <pt x="699" y="1092" on="0"/>
        <pt x="735" y="1309" on="1"/>
        <pt x="679" y="1309" on="0"/>
        <pt x="617" y="1298" on="1"/>
        <pt x="533" y="852" on="0"/>
        <pt x="441" y="518" on="1"/>
      </contour>
      <contour>
        <pt x="352" y="1004" on="1"/>
        <pt x="352" y="941" on="0"/>
        <pt x="382" y="883" on="1"/>
        <pt x="436" y="1070" on="0"/>
        <pt x="481" y="1248" on="1"/>
        <pt x="352" y="1166" on="0"/>
      </contour>
    </TTGlyph>
    <TTGlyph name="glyph00098" xMin="80" yMin="-45" xMax="1355" yMax="1650">
      <contour>
        <pt x="80" y="171" on="1"/>
        <pt x="164" y="360" on="0"/>
        <pt x="417" y="1047" on="0"/>
        <pt x="512" y="1341" on="1"/>
        <pt x="494" y="1376" on="0"/>
        <pt x="483" y="1427" on="1"/>
        <pt x="546" y="1450" on="1"/>
        <pt x="587" y="1594" on="0"/>
        <pt x="598" y="1650" on="1"/>
        <pt x="698" y="1617" on="1"/>
        <pt x="682" y="1528" on="0"/>
        <pt x="654" y="1416" on="1"/>
        <pt x="711" y="1342" on="0"/>
        <pt x="905" y="1317" on="1"/>
        <pt x="1098" y="1293" on="0"/>
        <pt x="1269" y="1218" on="0"/>
        <pt x="1355" y="1085" on="0"/>
        <pt x="1355" y="981" on="1"/>
        <pt x="1355" y="867" on="0"/>
        <pt x="1235" y="688" on="0"/>
        <pt x="1021" y="588" on="0"/>
        <pt x="898" y="588" on="1"/>
        <pt x="842" y="588" on="0"/>
        <pt x="796" y="592" on="1"/>
        <pt x="751" y="381" on="0"/>
        <pt x="532" y="42" on="0"/>
        <pt x="376" y="-45" on="1"/>
        <pt x="298" y="90" on="1"/>
        <pt x="400" y="153" on="0"/>
        <pt x="567" y="366" on="0"/>
        <pt x="661" y="628" on="0"/>
        <pt x="661" y="764" on="1"/>
        <pt x="661" y="859" on="0"/>
        <pt x="644" y="913" on="1"/>
        <pt x="780" y="946" on="1"/>
        <pt x="798" y="922" on="0"/>
        <pt x="825" y="804" on="0"/>
        <pt x="825" y="735" on="1"/>
        <pt x="863" y="733" on="1"/>
        <pt x="902" y="733" on="1"/>
        <pt x="1026" y="733" on="0"/>
        <pt x="1179" y="867" on="0"/>
        <pt x="1179" y="977" on="1"/>
        <pt x="1179" y="1062" on="0"/>
        <pt x="1057" y="1150" on="0"/>
        <pt x="886" y="1171" on="1"/>
        <pt x="696" y="1194" on="0"/>
        <pt x="608" y="1243" on="1"/>
        <pt x="537" y="976" on="0"/>
        <pt x="316" y="295" on="0"/>
        <pt x="231" y="99" on="1"/>
      </contour>
    </TTGlyph>
    <TTGlyph name="glyph00099" xMin="203" yMin="-31" xMax="1206" yMax="1650">
      <contour>
        <pt x="296" y="171" on="1"/>
        <pt x="374" y="344" on="0"/>
        <pt x="510" y="713" on="1"/>
        <pt x="398" y="723" on="0"/>
        <pt x="259" y="749" on="0"/>
        <pt x="203" y="772" on="1"/>
        <pt x="309" y="887" on="0"/>
        <pt x="387" y="1060" on="0"/>
        <pt x="387" y="1145" on="1"/>
        <pt x="387" y="1212" on="0"/>
        <pt x="338" y="1310" on="0"/>
        <pt x="274" y="1370" on="1"/>
        <pt x="383" y="1485" on="1"/>
        <pt x="474" y="1420" on="0"/>
        <pt x="551" y="1268" on="0"/>
        <pt x="551" y="1171" on="1"/>
        <pt x="551" y="996" on="0"/>
        <pt x="455" y="864" on="1"/>
        <pt x="496" y="858" on="0"/>
        <pt x="562" y="854" on="1"/>
        <pt x="659" y="1120" on="0"/>
        <pt x="798" y="1562" on="0"/>
        <pt x="814" y="1650" on="1"/>
        <pt x="914" y="1617" on="1"/>
        <pt x="876" y="1394" on="0"/>
        <pt x="710" y="850" on="1"/>
        <pt x="834" y="850" on="1"/>
        <pt x="959" y="1284" on="0"/>
        <pt x="1040" y="1483" on="1"/>
        <pt x="1206" y="1438" on="1"/>
        <pt x="1157" y="1321" on="0"/>
        <pt x="978" y="735" on="0"/>
        <pt x="831" y="149" on="0"/>
        <pt x="803" y="-31" on="1"/>
        <pt x="629" y="-16" on="1"/>
        <pt x="663" y="234" on="0"/>
        <pt x="793" y="700" on="1"/>
        <pt x="664" y="704" on="1"/>
        <pt x="534" y="301" on="0"/>
        <pt x="447" y="99" on="1"/>
      </contour>
    </TTGlyph>
    <TTGlyph name="glyph00100" xMin="91" yMin="-31" xMax="1208" yMax="1464">
      <contour>
        <pt x="1208" y="733" on="1"/>
        <pt x="957" y="666" on="0"/>
        <pt x="724" y="611" on="1"/>
        <pt x="559" y="488" on="0"/>
        <pt x="428" y="317" on="0"/>
        <pt x="428" y="240" on="1"/>
        <pt x="428" y="174" on="0"/>
        <pt x="495" y="115" on="0"/>
        <pt x="561" y="115" on="1"/>
        <pt x="691" y="115" on="0"/>
        <pt x="854" y="188" on="1"/>
        <pt x="905" y="43" on="1"/>
        <pt x="836" y="11" on="0"/>
        <pt x="641" y="-31" on="0"/>
        <pt x="551" y="-31" on="1"/>
        <pt x="256" y="-31" on="0"/>
        <pt x="256" y="242" on="1"/>
        <pt x="256" y="374" on="0"/>
        <pt x="426" y="544" on="1"/>
        <pt x="241" y="504" on="0"/>
        <pt x="118" y="485" on="1"/>
        <pt x="91" y="654" on="1"/>
        <pt x="370" y="694" on="0"/>
        <pt x="662" y="746" on="1"/>
        <pt x="818" y="870" on="0"/>
        <pt x="903" y="995" on="0"/>
        <pt x="903" y="1087" on="1"/>
        <pt x="903" y="1192" on="0"/>
        <pt x="755" y="1313" on="0"/>
        <pt x="625" y="1313" on="1"/>
        <pt x="513" y="1313" on="0"/>
        <pt x="375" y="1197" on="0"/>
        <pt x="375" y="1102" on="1"/>
        <pt x="375" y="989" on="0"/>
        <pt x="475" y="883" on="1"/>
        <pt x="346" y="776" on="1"/>
        <pt x="203" y="919" on="0"/>
        <pt x="203" y="1096" on="1"/>
        <pt x="203" y="1200" on="0"/>
        <pt x="309" y="1370" on="0"/>
        <pt x="501" y="1464" on="0"/>
        <pt x="625" y="1464" on="1"/>
        <pt x="771" y="1464" on="0"/>
        <pt x="973" y="1377" on="0"/>
        <pt x="1079" y="1219" on="0"/>
        <pt x="1079" y="1114" on="1"/>
        <pt x="1079" y="1026" on="0"/>
        <pt x="1012" y="875" on="0"/>
        <pt x="940" y="797" on="1"/>
        <pt x="1180" y="847" on="1"/>
      </contour>
    </TTGlyph>
    <TTGlyph name="glyph00101" xMin="171" yMin="-33" xMax="1516" yMax="1650">
      <contour>
        <pt x="171" y="171" on="1"/>
        <pt x="283" y="425" on="0"/>
        <pt x="446" y="879" on="1"/>
        <pt x="324" y="778" on="1"/>
        <pt x="180" y="922" on="0"/>
        <pt x="180" y="1098" on="1"/>
        <pt x="180" y="1202" on="0"/>
        <pt x="286" y="1371" on="0"/>
        <pt x="478" y="1466" on="0"/>
        <pt x="602" y="1466" on="1"/>
        <pt x="641" y="1465" on="1"/>
        <pt x="673" y="1572" on="0"/>
        <pt x="689" y="1650" on="1"/>
        <pt x="789" y="1617" on="1"/>
        <pt x="777" y="1549" on="0"/>
        <pt x="753" y="1449" on="1"/>
        <pt x="954" y="1401" on="0"/>
        <pt x="1024" y="1202" on="1"/>
        <pt x="1070" y="1328" on="0"/>
        <pt x="1128" y="1460" on="1"/>
        <pt x="1290" y="1417" on="1"/>
        <pt x="1228" y="1277" on="0"/>
        <pt x="1088" y="906" on="0"/>
        <pt x="1053" y="776" on="1"/>
        <pt x="1285" y="727" on="0"/>
        <pt x="1516" y="489" on="0"/>
        <pt x="1516" y="307" on="1"/>
        <pt x="1516" y="117" on="0"/>
        <pt x="1368" y="-33" on="1"/>
        <pt x="1239" y="74" on="1"/>
        <pt x="1339" y="180" on="0"/>
        <pt x="1339" y="293" on="1"/>
        <pt x="1339" y="420" on="0"/>
        <pt x="1178" y="587" on="0"/>
        <pt x="1008" y="629" on="1"/>
        <pt x="937" y="345" on="0"/>
        <pt x="754" y="-33" on="1"/>
        <pt x="590" y="12" on="1"/>
        <pt x="667" y="159" on="0"/>
        <pt x="813" y="548" on="0"/>
        <pt x="881" y="850" on="0"/>
        <pt x="881" y="971" on="1"/>
        <pt x="881" y="1233" on="0"/>
        <pt x="714" y="1296" on="1"/>
        <pt x="628" y="972" on="0"/>
        <pt x="394" y="260" on="0"/>
        <pt x="322" y="99" on="1"/>
      </contour>
      <contour>
        <pt x="352" y="1104" on="1"/>
        <pt x="352" y="993" on="0"/>
        <pt x="449" y="888" on="1"/>
        <pt x="510" y="1054" on="0"/>
        <pt x="595" y="1315" on="1"/>
        <pt x="486" y="1313" on="0"/>
        <pt x="352" y="1198" on="0"/>
      </contour>
    </TTGlyph>
    <TTGlyph name="glyph00102" xMin="135" yMin="-33" xMax="1133" yMax="1650">
      <contour>
        <pt x="311" y="171" on="1"/>
        <pt x="370" y="305" on="0"/>
        <pt x="416" y="424" on="1"/>
        <pt x="270" y="440" on="0"/>
        <pt x="135" y="584" on="0"/>
        <pt x="135" y="723" on="1"/>
        <pt x="135" y="970" on="0"/>
        <pt x="360" y="1497" on="1"/>
        <pt x="522" y="1454" on="1"/>
        <pt x="425" y="1229" on="0"/>
        <pt x="311" y="841" on="0"/>
        <pt x="311" y="731" on="1"/>
        <pt x="311" y="661" on="0"/>
        <pt x="390" y="589" on="0"/>
        <pt x="476" y="582" on="1"/>
        <pt x="557" y="795" on="0"/>
        <pt x="624" y="986" on="1"/>
        <pt x="561" y="977" on="0"/>
        <pt x="500" y="954" on="1"/>
        <pt x="463" y="1098" on="1"/>
        <pt x="589" y="1139" on="0"/>
        <pt x="680" y="1149" on="1"/>
        <pt x="803" y="1515" on="0"/>
        <pt x="829" y="1650" on="1"/>
        <pt x="929" y="1617" on="1"/>
        <pt x="899" y="1449" on="0"/>
        <pt x="815" y="1154" on="1"/>
        <pt x="975" y="1149" on="0"/>
        <pt x="1133" y="1002" on="0"/>
        <pt x="1133" y="852" on="1"/>
        <pt x="1133" y="717" on="0"/>
        <pt x="966" y="184" on="0"/>
        <pt x="870" y="-33" on="1"/>
        <pt x="709" y="10" on="1"/>
        <pt x="789" y="191" on="0"/>
        <pt x="879" y="479" on="1"/>
        <pt x="721" y="431" on="0"/>
        <pt x="585" y="422" on="1"/>
        <pt x="509" y="205" on="0"/>
        <pt x="462" y="99" on="1"/>
      </contour>
      <contour>
        <pt x="956" y="844" on="1"/>
        <pt x="956" y="918" on="0"/>
        <pt x="868" y="993" on="0"/>
        <pt x="768" y="995" on="1"/>
        <pt x="711" y="798" on="0"/>
        <pt x="640" y="584" on="1"/>
        <pt x="708" y="590" on="0"/>
        <pt x="829" y="618" on="0"/>
        <pt x="926" y="649" on="1"/>
        <pt x="956" y="775" on="0"/>
      </contour>
    </TTGlyph>
    <TTGlyph name="glyph00103" xMin="180" yMin="-33" xMax="1377" yMax="1466">
      <contour>
        <pt x="1377" y="762" on="1"/>
        <pt x="1235" y="722" on="0"/>
        <pt x="1017" y="670" on="1"/>
        <pt x="948" y="368" on="0"/>
        <pt x="754" y="-33" on="1"/>
        <pt x="590" y="12" on="1"/>
        <pt x="668" y="168" on="0"/>
        <pt x="793" y="494" on="0"/>
        <pt x="828" y="625" on="1"/>
        <pt x="428" y="535" on="0"/>
        <pt x="287" y="514" on="1"/>
        <pt x="260" y="683" on="1"/>
        <pt x="528" y="719" on="0"/>
        <pt x="863" y="780" on="1"/>
        <pt x="881" y="893" on="0"/>
        <pt x="881" y="971" on="1"/>
        <pt x="881" y="1140" on="0"/>
        <pt x="740" y="1315" on="0"/>
        <pt x="602" y="1315" on="1"/>
        <pt x="490" y="1315" on="0"/>
        <pt x="352" y="1199" on="0"/>
        <pt x="352" y="1104" on="1"/>
        <pt x="352" y="992" on="0"/>
        <pt x="453" y="885" on="1"/>
        <pt x="324" y="778" on="1"/>
        <pt x="180" y="922" on="0"/>
        <pt x="180" y="1098" on="1"/>
        <pt x="180" y="1202" on="0"/>
        <pt x="286" y="1371" on="0"/>
        <pt x="478" y="1466" on="0"/>
        <pt x="602" y="1466" on="1"/>
        <pt x="824" y="1466" on="0"/>
        <pt x="1057" y="1224" on="0"/>
        <pt x="1057" y="979" on="1"/>
        <pt x="1057" y="905" on="0"/>
        <pt x="1044" y="814" on="1"/>
        <pt x="1222" y="847" on="0"/>
        <pt x="1349" y="876" on="1"/>
      </contour>
    </TTGlyph>
    <TTGlyph name="glyph00104" xMin="80" yMin="-31" xMax="844" yMax="1499">
      <contour>
        <pt x="686" y="1499" on="1"/>
        <pt x="764" y="1394" on="0"/>
        <pt x="844" y="1170" on="0"/>
        <pt x="844" y="1042" on="1"/>
        <pt x="844" y="879" on="0"/>
        <pt x="667" y="601" on="0"/>
        <pt x="439" y="433" on="1"/>
        <pt x="341" y="361" on="0"/>
        <pt x="252" y="259" on="0"/>
        <pt x="252" y="214" on="1"/>
        <pt x="252" y="167" on="0"/>
        <pt x="321" y="115" on="0"/>
        <pt x="385" y="115" on="1"/>
        <pt x="459" y="115" on="0"/>
        <pt x="551" y="141" on="1"/>
        <pt x="587" y="-5" on="1"/>
        <pt x="474" y="-31" on="0"/>
        <pt x="375" y="-31" on="1"/>
        <pt x="231" y="-31" on="0"/>
        <pt x="80" y="86" on="0"/>
        <pt x="80" y="200" on="1"/>
        <pt x="80" y="261" on="0"/>
        <pt x="134" y="366" on="0"/>
        <pt x="226" y="463" on="0"/>
        <pt x="376" y="579" on="1"/>
        <pt x="506" y="680" on="0"/>
        <pt x="613" y="802" on="0"/>
        <pt x="672" y="937" on="0"/>
        <pt x="672" y="1015" on="1"/>
        <pt x="672" y="1095" on="0"/>
        <pt x="651" y="1218" on="0"/>
        <pt x="609" y="1329" on="0"/>
        <pt x="551" y="1430" on="1"/>
      </contour>
    </TTGlyph>
    <TTGlyph name="glyph00105" xMin="180" yMin="-33" xMax="1603" yMax="1466">
      <contour>
        <pt x="1574" y="647" on="1"/>
        <pt x="1012" y="647" on="1"/>
        <pt x="939" y="348" on="0"/>
        <pt x="754" y="-33" on="1"/>
        <pt x="590" y="12" on="1"/>
        <pt x="667" y="159" on="0"/>
        <pt x="813" y="548" on="0"/>
        <pt x="881" y="850" on="0"/>
        <pt x="881" y="971" on="1"/>
        <pt x="881" y="1140" on="0"/>
        <pt x="740" y="1315" on="0"/>
        <pt x="602" y="1315" on="1"/>
        <pt x="490" y="1315" on="0"/>
        <pt x="352" y="1199" on="0"/>
        <pt x="352" y="1104" on="1"/>
        <pt x="352" y="992" on="0"/>
        <pt x="453" y="885" on="1"/>
        <pt x="324" y="778" on="1"/>
        <pt x="180" y="922" on="0"/>
        <pt x="180" y="1098" on="1"/>
        <pt x="180" y="1202" on="0"/>
        <pt x="286" y="1371" on="0"/>
        <pt x="478" y="1466" on="0"/>
        <pt x="602" y="1466" on="1"/>
        <pt x="824" y="1466" on="0"/>
        <pt x="1057" y="1224" on="0"/>
        <pt x="1057" y="979" on="1"/>
        <pt x="1057" y="891" on="0"/>
        <pt x="1042" y="798" on="1"/>
        <pt x="1603" y="798" on="1"/>
      </contour>
    </TTGlyph>
    <TTGlyph name="glyph00106" xMin="201" yMin="-33" xMax="1333" yMax="1495">
      <contour>
        <pt x="1304" y="647" on="1"/>
        <pt x="747" y="647" on="1"/>
        <pt x="736" y="512" on="0"/>
        <pt x="618" y="139" on="0"/>
        <pt x="530" y="-33" on="1"/>
        <pt x="385" y="14" on="1"/>
        <pt x="466" y="199" on="0"/>
        <pt x="578" y="576" on="0"/>
        <pt x="578" y="676" on="1"/>
        <pt x="578" y="720" on="0"/>
        <pt x="551" y="783" on="0"/>
        <pt x="498" y="828" on="0"/>
        <pt x="428" y="858" on="1"/>
        <pt x="387" y="876" on="0"/>
        <pt x="306" y="917" on="0"/>
        <pt x="241" y="986" on="0"/>
        <pt x="201" y="1094" on="0"/>
        <pt x="201" y="1178" on="1"/>
        <pt x="201" y="1265" on="0"/>
        <pt x="291" y="1412" on="0"/>
        <pt x="450" y="1495" on="0"/>
        <pt x="553" y="1495" on="1"/>
        <pt x="635" y="1495" on="0"/>
        <pt x="793" y="1479" on="0"/>
        <pt x="834" y="1466" on="1"/>
        <pt x="797" y="1317" on="1"/>
        <pt x="713" y="1339" on="0"/>
        <pt x="555" y="1339" on="1"/>
        <pt x="469" y="1339" on="0"/>
        <pt x="377" y="1257" on="0"/>
        <pt x="377" y="1178" on="1"/>
        <pt x="377" y="1133" on="0"/>
        <pt x="409" y="1071" on="0"/>
        <pt x="470" y="1026" on="0"/>
        <pt x="541" y="999" on="1"/>
        <pt x="642" y="959" on="0"/>
        <pt x="727" y="867" on="0"/>
        <pt x="741" y="798" on="1"/>
        <pt x="1333" y="798" on="1"/>
      </contour>
    </TTGlyph>
    <TTGlyph name="glyph00107" xMin="203" yMin="-31" xMax="1403" yMax="1464">
      <contour>
        <pt x="1374" y="647" on="1"/>
        <pt x="771" y="647" on="1"/>
        <pt x="733" y="618" on="1"/>
        <pt x="555" y="485" on="0"/>
        <pt x="428" y="315" on="0"/>
        <pt x="428" y="240" on="1"/>
        <pt x="428" y="174" on="0"/>
        <pt x="495" y="115" on="0"/>
        <pt x="561" y="115" on="1"/>
        <pt x="691" y="115" on="0"/>
        <pt x="854" y="188" on="1"/>
        <pt x="905" y="43" on="1"/>
        <pt x="836" y="11" on="0"/>
        <pt x="641" y="-31" on="0"/>
        <pt x="551" y="-31" on="1"/>
        <pt x="256" y="-31" on="0"/>
        <pt x="256" y="242" on="1"/>
        <pt x="256" y="337" on="0"/>
        <pt x="431" y="565" on="0"/>
        <pt x="641" y="729" on="1"/>
        <pt x="762" y="822" on="0"/>
        <pt x="862" y="925" on="0"/>
        <pt x="903" y="1021" on="0"/>
        <pt x="903" y="1087" on="1"/>
        <pt x="903" y="1192" on="0"/>
        <pt x="755" y="1313" on="0"/>
        <pt x="625" y="1313" on="1"/>
        <pt x="513" y="1313" on="0"/>
        <pt x="375" y="1197" on="0"/>
        <pt x="375" y="1102" on="1"/>
        <pt x="375" y="989" on="0"/>
        <pt x="475" y="883" on="1"/>
        <pt x="346" y="776" on="1"/>
        <pt x="203" y="919" on="0"/>
        <pt x="203" y="1096" on="1"/>
        <pt x="203" y="1200" on="0"/>
        <pt x="309" y="1370" on="0"/>
        <pt x="501" y="1464" on="0"/>
        <pt x="625" y="1464" on="1"/>
        <pt x="771" y="1464" on="0"/>
        <pt x="973" y="1377" on="0"/>
        <pt x="1079" y="1219" on="0"/>
        <pt x="1079" y="1114" on="1"/>
        <pt x="1079" y="1026" on="0"/>
        <pt x="1012" y="875" on="0"/>
        <pt x="940" y="798" on="1"/>
        <pt x="1403" y="798" on="1"/>
      </contour>
    </TTGlyph>
    <TTGlyph name="glyph00108" xMin="150" yMin="-31" xMax="1307" yMax="1600">
      <contour>
        <pt x="350" y="-16" on="1"/>
        <pt x="370" y="135" on="0"/>
        <pt x="501" y="672" on="0"/>
        <pt x="586" y="952" on="1"/>
        <pt x="355" y="947" on="0"/>
        <pt x="186" y="887" on="1"/>
        <pt x="150" y="1028" on="1"/>
        <pt x="193" y="1045" on="0"/>
        <pt x="220" y="1052" on="1"/>
        <pt x="264" y="1184" on="0"/>
        <pt x="349" y="1503" on="0"/>
        <pt x="365" y="1600" on="1"/>
        <pt x="474" y="1584" on="1"/>
        <pt x="458" y="1450" on="0"/>
        <pt x="381" y="1086" on="1"/>
        <pt x="491" y="1103" on="0"/>
        <pt x="631" y="1104" on="1"/>
        <pt x="708" y="1356" on="0"/>
        <pt x="762" y="1483" on="1"/>
        <pt x="928" y="1438" on="1"/>
        <pt x="882" y="1330" on="0"/>
        <pt x="811" y="1100" on="1"/>
        <pt x="1159" y="1082" on="0"/>
        <pt x="1307" y="1024" on="1"/>
        <pt x="1247" y="872" on="1"/>
        <pt x="1084" y="936" on="0"/>
        <pt x="766" y="952" on="1"/>
        <pt x="682" y="669" on="0"/>
        <pt x="548" y="129" on="0"/>
        <pt x="524" y="-31" on="1"/>
      </contour>
    </TTGlyph>
    <TTGlyph name="glyph00109" xMin="68" yMin="-31" xMax="1067" yMax="1551">
      <contour>
        <pt x="1067" y="610" on="1"/>
        <pt x="1067" y="418" on="0"/>
        <pt x="920" y="270" on="1"/>
        <pt x="791" y="377" on="1"/>
        <pt x="891" y="483" on="0"/>
        <pt x="891" y="596" on="1"/>
        <pt x="891" y="736" on="0"/>
        <pt x="692" y="911" on="0"/>
        <pt x="483" y="948" on="1"/>
        <pt x="395" y="653" on="0"/>
        <pt x="261" y="108" on="0"/>
        <pt x="242" y="-31" on="1"/>
        <pt x="68" y="-16" on="1"/>
        <pt x="108" y="256" on="0"/>
        <pt x="385" y="1250" on="0"/>
        <pt x="479" y="1483" on="1"/>
        <pt x="645" y="1438" on="1"/>
        <pt x="598" y="1326" on="0"/>
        <pt x="526" y="1094" on="1"/>
        <pt x="616" y="1081" on="0"/>
        <pt x="698" y="1056" on="1"/>
        <pt x="735" y="1168" on="0"/>
        <pt x="813" y="1470" on="0"/>
        <pt x="826" y="1551" on="1"/>
        <pt x="935" y="1535" on="1"/>
        <pt x="918" y="1394" on="0"/>
        <pt x="866" y="1152" on="1"/>
        <pt x="834" y="999" on="1"/>
        <pt x="1067" y="872" on="0"/>
      </contour>
    </TTGlyph>
    <TTGlyph name="glyph00110" xMin="135" yMin="-31" xMax="1247" yMax="1551">
      <contour>
        <pt x="240" y="-16" on="1"/>
        <pt x="284" y="308" on="0"/>
        <pt x="473" y="946" on="1"/>
        <pt x="306" y="933" on="0"/>
        <pt x="172" y="887" on="1"/>
        <pt x="135" y="1028" on="1"/>
        <pt x="276" y="1087" on="0"/>
        <pt x="520" y="1102" on="1"/>
        <pt x="600" y="1362" on="0"/>
        <pt x="651" y="1483" on="1"/>
        <pt x="817" y="1438" on="1"/>
        <pt x="768" y="1320" on="0"/>
        <pt x="698" y="1096" on="1"/>
        <pt x="782" y="1085" on="0"/>
        <pt x="872" y="1059" on="1"/>
        <pt x="908" y="1168" on="0"/>
        <pt x="983" y="1452" on="0"/>
        <pt x="999" y="1551" on="1"/>
        <pt x="1108" y="1535" on="1"/>
        <pt x="1092" y="1404" on="0"/>
        <pt x="1008" y="1005" on="1"/>
        <pt x="1247" y="877" on="0"/>
        <pt x="1247" y="610" on="1"/>
        <pt x="1247" y="418" on="0"/>
        <pt x="1100" y="270" on="1"/>
        <pt x="971" y="377" on="1"/>
        <pt x="1071" y="483" on="0"/>
        <pt x="1071" y="596" on="1"/>
        <pt x="1071" y="881" on="0"/>
        <pt x="655" y="948" on="1"/>
        <pt x="581" y="703" on="0"/>
        <pt x="438" y="129" on="0"/>
        <pt x="414" y="-31" on="1"/>
      </contour>
    </TTGlyph>
    <TTGlyph name="glyph00111" xMin="150" yMin="-31" xMax="1032" yMax="1603">
      <contour>
        <pt x="455" y="-16" on="1"/>
        <pt x="478" y="155" on="0"/>
        <pt x="615" y="703" on="0"/>
        <pt x="690" y="952" on="1"/>
        <pt x="519" y="947" on="0"/>
        <pt x="280" y="918" on="0"/>
        <pt x="186" y="887" on="1"/>
        <pt x="150" y="1028" on="1"/>
        <pt x="196" y="1045" on="1"/>
        <pt x="241" y="1176" on="0"/>
        <pt x="328" y="1499" on="0"/>
        <pt x="345" y="1603" on="1"/>
        <pt x="454" y="1587" on="1"/>
        <pt x="436" y="1445" on="0"/>
        <pt x="389" y="1223" on="1"/>
        <pt x="359" y="1078" on="1"/>
        <pt x="514" y="1098" on="0"/>
        <pt x="735" y="1102" on="1"/>
        <pt x="808" y="1341" on="0"/>
        <pt x="866" y="1483" on="1"/>
        <pt x="1032" y="1438" on="1"/>
        <pt x="980" y="1313" on="0"/>
        <pt x="799" y="731" on="0"/>
        <pt x="655" y="150" on="0"/>
        <pt x="629" y="-31" on="1"/>
      </contour>
    </TTGlyph>
    <TTGlyph name="glyph00112" xMin="90" yMin="-33" xMax="1413" yMax="1850">
      <contour>
        <pt x="958" y="10" on="1"/>
        <pt x="1029" y="166" on="0"/>
        <pt x="1168" y="600" on="0"/>
        <pt x="1237" y="956" on="0"/>
        <pt x="1237" y="1087" on="1"/>
        <pt x="1237" y="1180" on="0"/>
        <pt x="1120" y="1300" on="0"/>
        <pt x="1020" y="1300" on="1"/>
        <pt x="809" y="1300" on="0"/>
        <pt x="606" y="1255" on="1"/>
        <pt x="545" y="944" on="0"/>
        <pt x="323" y="136" on="0"/>
        <pt x="252" y="-27" on="1"/>
        <pt x="90" y="16" on="1"/>
        <pt x="162" y="185" on="0"/>
        <pt x="419" y="1164" on="0"/>
        <pt x="451" y="1365" on="1"/>
        <pt x="633" y="1427" on="0"/>
        <pt x="910" y="1453" on="1"/>
        <pt x="987" y="1716" on="0"/>
        <pt x="1008" y="1850" on="1"/>
        <pt x="1117" y="1834" on="1"/>
        <pt x="1100" y="1698" on="0"/>
        <pt x="1050" y="1460" on="1"/>
        <pt x="1227" y="1457" on="0"/>
        <pt x="1413" y="1269" on="0"/>
        <pt x="1413" y="1096" on="1"/>
        <pt x="1413" y="963" on="0"/>
        <pt x="1341" y="592" on="0"/>
        <pt x="1194" y="134" on="0"/>
        <pt x="1120" y="-33" on="1"/>
      </contour>
    </TTGlyph>
    <TTGlyph name="glyph00113" xMin="170" yMin="-16" xMax="1505" yMax="1495">
      <contour>
        <pt x="1147" y="1279" on="1"/>
        <pt x="1012" y="1341" on="0"/>
        <pt x="830" y="1341" on="1"/>
        <pt x="587" y="1341" on="0"/>
        <pt x="343" y="1037" on="0"/>
        <pt x="343" y="753" on="1"/>
        <pt x="343" y="567" on="0"/>
        <pt x="462" y="290" on="0"/>
        <pt x="672" y="138" on="0"/>
        <pt x="801" y="138" on="1"/>
        <pt x="934" y="138" on="0"/>
        <pt x="1122" y="222" on="0"/>
        <pt x="1261" y="382" on="0"/>
        <pt x="1353" y="585" on="1"/>
        <pt x="1505" y="530" on="1"/>
        <pt x="1415" y="318" on="0"/>
        <pt x="1226" y="91" on="0"/>
        <pt x="977" y="-16" on="0"/>
        <pt x="803" y="-16" on="1"/>
        <pt x="614" y="-16" on="0"/>
        <pt x="327" y="170" on="0"/>
        <pt x="170" y="522" on="0"/>
        <pt x="170" y="762" on="1"/>
        <pt x="170" y="987" on="0"/>
        <pt x="335" y="1318" on="0"/>
        <pt x="634" y="1495" on="0"/>
        <pt x="827" y="1495" on="1"/>
        <pt x="1042" y="1495" on="0"/>
        <pt x="1208" y="1421" on="1"/>
      </contour>
    </TTGlyph>
    <TTGlyph name="glyph00114" xMin="217" yMin="584" xMax="1389" yMax="1497">
      <contour>
        <pt x="393" y="1092" on="1"/>
        <pt x="393" y="962" on="0"/>
        <pt x="537" y="785" on="0"/>
        <pt x="674" y="752" on="1"/>
        <pt x="714" y="874" on="0"/>
        <pt x="795" y="1183" on="0"/>
        <pt x="808" y="1267" on="1"/>
        <pt x="917" y="1251" on="1"/>
        <pt x="899" y="1105" on="0"/>
        <pt x="820" y="735" on="1"/>
        <pt x="834" y="735" on="1"/>
        <pt x="1015" y="735" on="0"/>
        <pt x="1217" y="898" on="0"/>
        <pt x="1217" y="1040" on="1"/>
        <pt x="1217" y="1153" on="0"/>
        <pt x="1116" y="1260" on="1"/>
        <pt x="1245" y="1366" on="1"/>
        <pt x="1389" y="1222" on="0"/>
        <pt x="1389" y="1047" on="1"/>
        <pt x="1389" y="910" on="0"/>
        <pt x="1237" y="700" on="0"/>
        <pt x="966" y="584" on="0"/>
        <pt x="807" y="584" on="1"/>
        <pt x="633" y="584" on="0"/>
        <pt x="363" y="703" on="0"/>
        <pt x="217" y="925" on="0"/>
        <pt x="217" y="1077" on="1"/>
        <pt x="217" y="1166" on="0"/>
        <pt x="299" y="1412" on="0"/>
        <pt x="360" y="1497" on="1"/>
        <pt x="506" y="1432" on="1"/>
        <pt x="457" y="1354" on="0"/>
        <pt x="393" y="1163" on="0"/>
      </contour>
    </TTGlyph>
    <TTGlyph name="glyph00115" xMin="68" yMin="-31" xMax="1067" yMax="1483">
      <contour>
        <pt x="1067" y="610" on="1"/>
        <pt x="1067" y="418" on="0"/>
        <pt x="920" y="270" on="1"/>
        <pt x="791" y="377" on="1"/>
        <pt x="891" y="483" on="0"/>
        <pt x="891" y="596" on="1"/>
        <pt x="891" y="755" on="0"/>
        <pt x="758" y="848" on="1"/>
        <pt x="712" y="577" on="0"/>
        <pt x="638" y="264" on="1"/>
        <pt x="488" y="281" on="1"/>
        <pt x="596" y="650" on="0"/>
        <pt x="653" y="902" on="1"/>
        <pt x="581" y="930" on="0"/>
        <pt x="483" y="948" on="1"/>
        <pt x="395" y="653" on="0"/>
        <pt x="261" y="108" on="0"/>
        <pt x="242" y="-31" on="1"/>
        <pt x="68" y="-16" on="1"/>
        <pt x="108" y="256" on="0"/>
        <pt x="385" y="1250" on="0"/>
        <pt x="479" y="1483" on="1"/>
        <pt x="645" y="1438" on="1"/>
        <pt x="598" y="1326" on="0"/>
        <pt x="526" y="1094" on="1"/>
        <pt x="795" y="1054" on="0"/>
        <pt x="1067" y="806" on="0"/>
      </contour>
    </TTGlyph>
    <TTGlyph name="glyph00116" xMin="135" yMin="-31" xMax="1247" yMax="1483">
      <contour>
        <pt x="240" y="-16" on="1"/>
        <pt x="284" y="308" on="0"/>
        <pt x="473" y="946" on="1"/>
        <pt x="306" y="933" on="0"/>
        <pt x="172" y="887" on="1"/>
        <pt x="135" y="1028" on="1"/>
        <pt x="276" y="1087" on="0"/>
        <pt x="520" y="1102" on="1"/>
        <pt x="600" y="1362" on="0"/>
        <pt x="651" y="1483" on="1"/>
        <pt x="817" y="1438" on="1"/>
        <pt x="768" y="1320" on="0"/>
        <pt x="698" y="1096" on="1"/>
        <pt x="966" y="1061" on="0"/>
        <pt x="1247" y="815" on="0"/>
        <pt x="1247" y="610" on="1"/>
        <pt x="1247" y="418" on="0"/>
        <pt x="1100" y="270" on="1"/>
        <pt x="971" y="377" on="1"/>
        <pt x="1071" y="483" on="0"/>
        <pt x="1071" y="596" on="1"/>
        <pt x="1071" y="757" on="0"/>
        <pt x="939" y="849" on="1"/>
        <pt x="889" y="564" on="0"/>
        <pt x="818" y="264" on="1"/>
        <pt x="668" y="281" on="1"/>
        <pt x="775" y="646" on="0"/>
        <pt x="833" y="903" on="1"/>
        <pt x="756" y="932" on="0"/>
        <pt x="655" y="948" on="1"/>
        <pt x="581" y="703" on="0"/>
        <pt x="438" y="129" on="0"/>
        <pt x="414" y="-31" on="1"/>
      </contour>
    </TTGlyph>
    <TTGlyph name="glyph00117" xMin="-49" yMin="-35" xMax="1198" yMax="1475">
      <contour>
        <pt x="795" y="1475" on="1"/>
        <pt x="809" y="1275" on="0"/>
        <pt x="932" y="733" on="0"/>
        <pt x="1113" y="202" on="0"/>
        <pt x="1198" y="39" on="1"/>
        <pt x="1036" y="-35" on="1"/>
        <pt x="949" y="132" on="0"/>
        <pt x="784" y="603" on="0"/>
        <pt x="721" y="872" on="1"/>
        <pt x="661" y="542" on="0"/>
        <pt x="596" y="264" on="1"/>
        <pt x="446" y="281" on="1"/>
        <pt x="539" y="592" on="0"/>
        <pt x="622" y="985" on="1"/>
        <pt x="515" y="741" on="0"/>
        <pt x="205" y="139" on="0"/>
        <pt x="96" y="-35" on="1"/>
        <pt x="-49" y="33" on="1"/>
        <pt x="50" y="188" on="0"/>
        <pt x="367" y="796" on="0"/>
        <pt x="603" y="1334" on="0"/>
        <pt x="629" y="1462" on="1"/>
      </contour>
    </TTGlyph>
    <TTGlyph name="glyph00118" xMin="90" yMin="-33" xMax="1413" yMax="1460">
      <contour>
        <pt x="958" y="10" on="1"/>
        <pt x="1029" y="166" on="0"/>
        <pt x="1168" y="600" on="0"/>
        <pt x="1237" y="956" on="0"/>
        <pt x="1237" y="1087" on="1"/>
        <pt x="1237" y="1180" on="0"/>
        <pt x="1120" y="1300" on="0"/>
        <pt x="1020" y="1300" on="1"/>
        <pt x="972" y="968" on="0"/>
        <pt x="857" y="464" on="1"/>
        <pt x="697" y="481" on="1"/>
        <pt x="740" y="622" on="0"/>
        <pt x="869" y="1156" on="0"/>
        <pt x="896" y="1296" on="1"/>
        <pt x="728" y="1284" on="0"/>
        <pt x="606" y="1255" on="1"/>
        <pt x="545" y="944" on="0"/>
        <pt x="323" y="136" on="0"/>
        <pt x="252" y="-27" on="1"/>
        <pt x="90" y="16" on="1"/>
        <pt x="162" y="185" on="0"/>
        <pt x="419" y="1164" on="0"/>
        <pt x="451" y="1365" on="1"/>
        <pt x="562" y="1404" on="0"/>
        <pt x="913" y="1460" on="0"/>
        <pt x="1042" y="1460" on="1"/>
        <pt x="1220" y="1460" on="0"/>
        <pt x="1413" y="1274" on="0"/>
        <pt x="1413" y="1096" on="1"/>
        <pt x="1413" y="963" on="0"/>
        <pt x="1341" y="592" on="0"/>
        <pt x="1194" y="134" on="0"/>
        <pt x="1120" y="-33" on="1"/>
      </contour>
    </TTGlyph>
    <TTGlyph name="glyph00119" xMin="-8" yMin="-586" xMax="1135" yMax="1650">
      <contour>
        <pt x="886" y="-346" on="1"/>
        <pt x="886" y="-475" on="0"/>
        <pt x="775" y="-586" on="1"/>
        <pt x="667" y="-495" on="1"/>
        <pt x="740" y="-420" on="0"/>
        <pt x="740" y="-355" on="1"/>
        <pt x="740" y="-210" on="0"/>
        <pt x="553" y="-158" on="1"/>
        <pt x="529" y="-250" on="0"/>
        <pt x="432" y="-492" on="0"/>
        <pt x="384" y="-584" on="1"/>
        <pt x="248" y="-549" on="1"/>
        <pt x="342" y="-355" on="0"/>
        <pt x="444" y="-28" on="0"/>
        <pt x="444" y="83" on="1"/>
        <pt x="444" y="289" on="0"/>
        <pt x="279" y="289" on="1"/>
        <pt x="212" y="289" on="0"/>
        <pt x="133" y="222" on="0"/>
        <pt x="133" y="168" on="1"/>
        <pt x="133" y="104" on="0"/>
        <pt x="205" y="26" on="1"/>
        <pt x="98" y="-63" on="1"/>
        <pt x="-8" y="45" on="0"/>
        <pt x="-8" y="164" on="1"/>
        <pt x="-8" y="274" on="0"/>
        <pt x="152" y="418" on="0"/>
        <pt x="279" y="418" on="1"/>
        <pt x="588" y="418" on="0"/>
        <pt x="588" y="88" on="1"/>
        <pt x="588" y="27" on="0"/>
        <pt x="579" y="-31" on="1"/>
        <pt x="886" y="-98" on="0"/>
      </contour>
      <contour>
        <pt x="633" y="141" on="1"/>
        <pt x="811" y="300" on="0"/>
        <pt x="958" y="535" on="0"/>
        <pt x="958" y="647" on="1"/>
        <pt x="958" y="723" on="0"/>
        <pt x="843" y="780" on="0"/>
        <pt x="725" y="780" on="1"/>
        <pt x="680" y="780" on="0"/>
        <pt x="556" y="760" on="0"/>
        <pt x="517" y="746" on="1"/>
        <pt x="453" y="547" on="0"/>
        <pt x="418" y="447" on="1"/>
        <pt x="266" y="492" on="1"/>
        <pt x="437" y="933" on="0"/>
        <pt x="564" y="1331" on="1"/>
        <pt x="528" y="1335" on="0"/>
        <pt x="485" y="1335" on="1"/>
        <pt x="405" y="1335" on="0"/>
        <pt x="332" y="1323" on="1"/>
        <pt x="309" y="1468" on="1"/>
        <pt x="414" y="1483" on="0"/>
        <pt x="498" y="1483" on="1"/>
        <pt x="556" y="1483" on="0"/>
        <pt x="609" y="1477" on="1"/>
        <pt x="645" y="1605" on="0"/>
        <pt x="653" y="1650" on="1"/>
        <pt x="753" y="1617" on="1"/>
        <pt x="719" y="1457" on="1"/>
        <pt x="930" y="1396" on="0"/>
        <pt x="930" y="1176" on="1"/>
        <pt x="930" y="1104" on="0"/>
        <pt x="869" y="973" on="0"/>
        <pt x="815" y="922" on="1"/>
        <pt x="970" y="922" on="0"/>
        <pt x="1135" y="785" on="0"/>
        <pt x="1135" y="655" on="1"/>
        <pt x="1135" y="526" on="0"/>
        <pt x="928" y="198" on="0"/>
        <pt x="722" y="13" on="1"/>
      </contour>
      <contour>
        <pt x="754" y="1171" on="1"/>
        <pt x="754" y="1258" on="0"/>
        <pt x="678" y="1299" on="1"/>
        <pt x="634" y="1130" on="0"/>
        <pt x="569" y="915" on="1"/>
        <pt x="667" y="949" on="0"/>
        <pt x="754" y="1069" on="0"/>
      </contour>
    </TTGlyph>
    <TTGlyph name="glyph00120" xMin="180" yMin="-27" xMax="1170" yMax="1501">
      <contour>
        <pt x="1086" y="1501" on="1"/>
        <pt x="1123" y="1463" on="0"/>
        <pt x="1170" y="1319" on="0"/>
        <pt x="1170" y="1256" on="1"/>
        <pt x="1170" y="1057" on="0"/>
        <pt x="966" y="829" on="0"/>
        <pt x="768" y="807" on="1"/>
        <pt x="776" y="716" on="0"/>
        <pt x="776" y="658" on="1"/>
        <pt x="776" y="454" on="0"/>
        <pt x="663" y="68" on="0"/>
        <pt x="581" y="-27" on="1"/>
        <pt x="436" y="44" on="1"/>
        <pt x="507" y="123" on="0"/>
        <pt x="600" y="489" on="0"/>
        <pt x="600" y="666" on="1"/>
        <pt x="596" y="804" on="1"/>
        <pt x="404" y="820" on="0"/>
        <pt x="180" y="1030" on="0"/>
        <pt x="180" y="1192" on="1"/>
        <pt x="180" y="1271" on="0"/>
        <pt x="255" y="1444" on="0"/>
        <pt x="308" y="1495" on="1"/>
        <pt x="438" y="1400" on="1"/>
        <pt x="404" y="1370" on="0"/>
        <pt x="357" y="1260" on="0"/>
        <pt x="357" y="1206" on="1"/>
        <pt x="357" y="952" on="0"/>
        <pt x="677" y="952" on="1"/>
        <pt x="834" y="952" on="0"/>
        <pt x="998" y="1102" on="0"/>
        <pt x="998" y="1249" on="1"/>
        <pt x="998" y="1289" on="0"/>
        <pt x="969" y="1396" on="0"/>
        <pt x="941" y="1439" on="1"/>
      </contour>
    </TTGlyph>
    <TTGlyph name="glyph00121" xMin="120" yMin="-11" xMax="1437" yMax="1480">
      <contour>
        <pt x="1306" y="1178" on="1"/>
        <pt x="1264" y="1254" on="0"/>
        <pt x="1140" y="1329" on="0"/>
        <pt x="1069" y="1329" on="1"/>
        <pt x="960" y="1329" on="0"/>
        <pt x="834" y="1175" on="0"/>
        <pt x="834" y="1037" on="1"/>
        <pt x="834" y="899" on="0"/>
        <pt x="857" y="672" on="1"/>
        <pt x="880" y="445" on="0"/>
        <pt x="880" y="301" on="1"/>
        <pt x="880" y="158" on="0"/>
        <pt x="678" y="-11" on="0"/>
        <pt x="515" y="-11" on="1"/>
        <pt x="331" y="-11" on="0"/>
        <pt x="120" y="170" on="0"/>
        <pt x="120" y="329" on="1"/>
        <pt x="120" y="472" on="0"/>
        <pt x="218" y="597" on="1"/>
        <pt x="339" y="512" on="1"/>
        <pt x="296" y="448" on="0"/>
        <pt x="296" y="356" on="1"/>
        <pt x="296" y="257" on="0"/>
        <pt x="413" y="140" on="0"/>
        <pt x="516" y="140" on="1"/>
        <pt x="599" y="140" on="0"/>
        <pt x="708" y="233" on="0"/>
        <pt x="708" y="307" on="1"/>
        <pt x="708" y="388" on="0"/>
        <pt x="700" y="530" on="0"/>
        <pt x="683" y="683" on="1"/>
        <pt x="666" y="841" on="0"/>
        <pt x="658" y="993" on="0"/>
        <pt x="658" y="1064" on="1"/>
        <pt x="658" y="1189" on="0"/>
        <pt x="762" y="1384" on="0"/>
        <pt x="945" y="1480" on="0"/>
        <pt x="1069" y="1480" on="1"/>
        <pt x="1189" y="1480" on="0"/>
        <pt x="1396" y="1354" on="0"/>
        <pt x="1437" y="1258" on="1"/>
      </contour>
    </TTGlyph>
    <TTGlyph name="glyph00122" xMin="203" yMin="-35" xMax="1483" yMax="1496">
      <contour>
        <pt x="1483" y="1411" on="1"/>
        <pt x="1443" y="1342" on="0"/>
        <pt x="1443" y="1247" on="1"/>
        <pt x="1443" y="1192" on="0"/>
        <pt x="1458" y="1099" on="1"/>
        <pt x="1473" y="1005" on="0"/>
        <pt x="1473" y="951" on="1"/>
        <pt x="1473" y="766" on="0"/>
        <pt x="1264" y="550" on="0"/>
        <pt x="1087" y="550" on="1"/>
        <pt x="1011" y="550" on="0"/>
        <pt x="948" y="559" on="1"/>
        <pt x="878" y="392" on="0"/>
        <pt x="700" y="70" on="0"/>
        <pt x="625" y="-35" on="1"/>
        <pt x="483" y="53" on="1"/>
        <pt x="598" y="207" on="0"/>
        <pt x="807" y="616" on="0"/>
        <pt x="909" y="958" on="0"/>
        <pt x="909" y="1087" on="1"/>
        <pt x="909" y="1180" on="0"/>
        <pt x="792" y="1300" on="0"/>
        <pt x="692" y="1300" on="1"/>
        <pt x="469" y="1300" on="0"/>
        <pt x="240" y="1223" on="1"/>
        <pt x="203" y="1364" on="1"/>
        <pt x="321" y="1408" on="0"/>
        <pt x="595" y="1460" on="0"/>
        <pt x="715" y="1460" on="1"/>
        <pt x="893" y="1460" on="0"/>
        <pt x="1085" y="1273" on="0"/>
        <pt x="1085" y="1096" on="1"/>
        <pt x="1085" y="936" on="0"/>
        <pt x="1002" y="700" on="1"/>
        <pt x="1040" y="695" on="0"/>
        <pt x="1091" y="695" on="1"/>
        <pt x="1194" y="695" on="0"/>
        <pt x="1297" y="818" on="0"/>
        <pt x="1297" y="947" on="1"/>
        <pt x="1297" y="996" on="0"/>
        <pt x="1287" y="1095" on="1"/>
        <pt x="1277" y="1193" on="0"/>
        <pt x="1277" y="1251" on="1"/>
        <pt x="1277" y="1380" on="0"/>
        <pt x="1349" y="1496" on="1"/>
      </contour>
    </TTGlyph>
    <TTGlyph name="glyph00123" xMin="203" yMin="-35" xMax="1425" yMax="1460">
      <contour>
        <pt x="909" y="1087" on="1"/>
        <pt x="909" y="1180" on="0"/>
        <pt x="792" y="1300" on="0"/>
        <pt x="692" y="1300" on="1"/>
        <pt x="469" y="1300" on="0"/>
        <pt x="240" y="1223" on="1"/>
        <pt x="203" y="1364" on="1"/>
        <pt x="321" y="1408" on="0"/>
        <pt x="595" y="1460" on="0"/>
        <pt x="715" y="1460" on="1"/>
        <pt x="893" y="1460" on="0"/>
        <pt x="1085" y="1273" on="0"/>
        <pt x="1085" y="1096" on="1"/>
        <pt x="1085" y="980" on="0"/>
        <pt x="1044" y="834" on="1"/>
        <pt x="1242" y="832" on="0"/>
        <pt x="1425" y="820" on="1"/>
        <pt x="1393" y="672" on="1"/>
        <pt x="1191" y="683" on="0"/>
        <pt x="996" y="683" on="1"/>
        <pt x="938" y="520" on="0"/>
        <pt x="738" y="127" on="0"/>
        <pt x="625" y="-35" on="1"/>
        <pt x="483" y="53" on="1"/>
        <pt x="578" y="179" on="0"/>
        <pt x="764" y="523" on="0"/>
        <pt x="822" y="681" on="1"/>
        <pt x="583" y="676" on="0"/>
        <pt x="379" y="663" on="1"/>
        <pt x="411" y="818" on="1"/>
        <pt x="591" y="828" on="0"/>
        <pt x="871" y="834" on="1"/>
        <pt x="909" y="973" on="0"/>
      </contour>
    </TTGlyph>
    <TTGlyph name="glyph00124" xMin="-10" yMin="-174" xMax="1794" yMax="1787">
      <contour>
        <pt x="487" y="284" on="1"/>
        <pt x="507" y="280" on="0"/>
        <pt x="543" y="280" on="1"/>
        <pt x="627" y="280" on="0"/>
        <pt x="723" y="347" on="0"/>
        <pt x="723" y="408" on="1"/>
        <pt x="723" y="459" on="0"/>
        <pt x="652" y="529" on="0"/>
        <pt x="591" y="534" on="1"/>
        <pt x="642" y="674" on="1"/>
        <pt x="727" y="660" on="0"/>
        <pt x="848" y="563" on="0"/>
        <pt x="869" y="493" on="1"/>
        <pt x="973" y="605" on="0"/>
        <pt x="1100" y="916" on="0"/>
        <pt x="1100" y="1072" on="1"/>
        <pt x="1100" y="1167" on="0"/>
        <pt x="1083" y="1221" on="1"/>
        <pt x="1219" y="1254" on="1"/>
        <pt x="1237" y="1230" on="0"/>
        <pt x="1264" y="1112" on="0"/>
        <pt x="1264" y="1043" on="1"/>
        <pt x="1302" y="1041" on="1"/>
        <pt x="1341" y="1041" on="1"/>
        <pt x="1465" y="1041" on="0"/>
        <pt x="1618" y="1175" on="0"/>
        <pt x="1618" y="1285" on="1"/>
        <pt x="1618" y="1370" on="0"/>
        <pt x="1496" y="1458" on="0"/>
        <pt x="1325" y="1479" on="1"/>
        <pt x="1192" y="1494" on="0"/>
        <pt x="1029" y="1552" on="0"/>
        <pt x="944" y="1644" on="0"/>
        <pt x="922" y="1735" on="1"/>
        <pt x="1063" y="1787" on="1"/>
        <pt x="1082" y="1714" on="0"/>
        <pt x="1217" y="1641" on="0"/>
        <pt x="1344" y="1625" on="1"/>
        <pt x="1537" y="1601" on="0"/>
        <pt x="1708" y="1526" on="0"/>
        <pt x="1794" y="1393" on="0"/>
        <pt x="1794" y="1289" on="1"/>
        <pt x="1794" y="1175" on="0"/>
        <pt x="1674" y="996" on="0"/>
        <pt x="1460" y="896" on="0"/>
        <pt x="1337" y="896" on="1"/>
        <pt x="1281" y="896" on="0"/>
        <pt x="1235" y="900" on="1"/>
        <pt x="1193" y="702" on="0"/>
        <pt x="968" y="345" on="0"/>
        <pt x="824" y="250" on="1"/>
        <pt x="793" y="211" on="0"/>
        <pt x="745" y="182" on="1"/>
        <pt x="743" y="12" on="0"/>
        <pt x="547" y="-174" on="0"/>
        <pt x="372" y="-174" on="1"/>
        <pt x="193" y="-174" on="0"/>
        <pt x="-10" y="-3" on="0"/>
        <pt x="-10" y="138" on="1"/>
        <pt x="-10" y="193" on="0"/>
        <pt x="4" y="252" on="1"/>
        <pt x="152" y="228" on="1"/>
        <pt x="146" y="192" on="0"/>
        <pt x="146" y="165" on="1"/>
        <pt x="146" y="65" on="0"/>
        <pt x="266" y="-43" on="0"/>
        <pt x="372" y="-43" on="1"/>
        <pt x="562" y="-43" on="0"/>
        <pt x="581" y="132" on="1"/>
        <pt x="519" y="129" on="1"/>
        <pt x="473" y="129" on="0"/>
        <pt x="427" y="140" on="1"/>
      </contour>
    </TTGlyph>
    <TTGlyph name="glyph00125" xMin="180" yMin="-40" xMax="1247" yMax="1497">
      <contour>
        <pt x="963" y="73" on="1"/>
        <pt x="1071" y="213" on="0"/>
        <pt x="1071" y="346" on="1"/>
        <pt x="1071" y="395" on="0"/>
        <pt x="1053" y="439" on="1"/>
        <pt x="959" y="248" on="0"/>
        <pt x="731" y="82" on="0"/>
        <pt x="581" y="82" on="1"/>
        <pt x="444" y="82" on="0"/>
        <pt x="269" y="238" on="0"/>
        <pt x="269" y="362" on="1"/>
        <pt x="269" y="469" on="0"/>
        <pt x="390" y="647" on="0"/>
        <pt x="606" y="745" on="0"/>
        <pt x="735" y="745" on="1"/>
        <pt x="859" y="745" on="0"/>
        <pt x="958" y="714" on="1"/>
        <pt x="965" y="760" on="0"/>
        <pt x="965" y="817" on="1"/>
        <pt x="965" y="901" on="0"/>
        <pt x="871" y="969" on="0"/>
        <pt x="776" y="969" on="1"/>
        <pt x="705" y="969" on="0"/>
        <pt x="565" y="952" on="0"/>
        <pt x="487" y="952" on="1"/>
        <pt x="341" y="952" on="0"/>
        <pt x="180" y="1093" on="0"/>
        <pt x="180" y="1221" on="1"/>
        <pt x="180" y="1324" on="0"/>
        <pt x="325" y="1479" on="0"/>
        <pt x="432" y="1497" on="1"/>
        <pt x="483" y="1356" on="1"/>
        <pt x="422" y="1340" on="0"/>
        <pt x="352" y="1266" on="0"/>
        <pt x="352" y="1217" on="1"/>
        <pt x="352" y="1112" on="0"/>
        <pt x="512" y="1112" on="1"/>
        <pt x="583" y="1112" on="0"/>
        <pt x="723" y="1128" on="0"/>
        <pt x="801" y="1128" on="1"/>
        <pt x="976" y="1128" on="0"/>
        <pt x="1141" y="984" on="0"/>
        <pt x="1141" y="817" on="1"/>
        <pt x="1141" y="724" on="0"/>
        <pt x="1119" y="626" on="1"/>
        <pt x="1247" y="515" on="0"/>
        <pt x="1247" y="343" on="1"/>
        <pt x="1247" y="144" on="0"/>
        <pt x="1073" y="-40" on="1"/>
      </contour>
      <contour>
        <pt x="593" y="233" on="1"/>
        <pt x="779" y="233" on="0"/>
        <pt x="920" y="563" on="1"/>
        <pt x="844" y="594" on="0"/>
        <pt x="735" y="594" on="1"/>
        <pt x="599" y="594" on="0"/>
        <pt x="441" y="477" on="0"/>
        <pt x="441" y="372" on="1"/>
        <pt x="441" y="309" on="0"/>
        <pt x="525" y="233" on="0"/>
      </contour>
    </TTGlyph>
    <TTGlyph name="glyph00126" xMin="203" yMin="-10" xMax="1327" yMax="1475">
      <contour>
        <pt x="1000" y="-10" on="1"/>
        <pt x="846" y="-10" on="0"/>
        <pt x="674" y="127" on="0"/>
        <pt x="674" y="252" on="1"/>
        <pt x="674" y="309" on="0"/>
        <pt x="724" y="456" on="0"/>
        <pt x="774" y="559" on="1"/>
        <pt x="874" y="764" on="0"/>
        <pt x="874" y="895" on="1"/>
        <pt x="874" y="957" on="0"/>
        <pt x="776" y="1006" on="0"/>
        <pt x="657" y="1006" on="1"/>
        <pt x="442" y="1006" on="0"/>
        <pt x="270" y="1040" on="0"/>
        <pt x="203" y="1125" on="0"/>
        <pt x="203" y="1221" on="1"/>
        <pt x="203" y="1284" on="0"/>
        <pt x="225" y="1428" on="0"/>
        <pt x="240" y="1475" on="1"/>
        <pt x="403" y="1448" on="1"/>
        <pt x="365" y="1316" on="0"/>
        <pt x="365" y="1253" on="1"/>
        <pt x="365" y="1209" on="0"/>
        <pt x="411" y="1178" on="0"/>
        <pt x="532" y="1165" on="0"/>
        <pt x="680" y="1165" on="1"/>
        <pt x="870" y="1165" on="0"/>
        <pt x="1051" y="1043" on="0"/>
        <pt x="1051" y="903" on="1"/>
        <pt x="1051" y="748" on="0"/>
        <pt x="951" y="558" on="1"/>
        <pt x="899" y="459" on="0"/>
        <pt x="851" y="321" on="0"/>
        <pt x="851" y="263" on="1"/>
        <pt x="851" y="150" on="0"/>
        <pt x="996" y="150" on="1"/>
        <pt x="1122" y="150" on="0"/>
        <pt x="1166" y="277" on="1"/>
        <pt x="1327" y="214" on="1"/>
        <pt x="1289" y="109" on="0"/>
        <pt x="1121" y="-10" on="0"/>
      </contour>
    </TTGlyph>
    <TTGlyph name="glyph00127" xMin="150" yMin="-31" xMax="1451" yMax="1483">
      <contour>
        <pt x="455" y="-16" on="1"/>
        <pt x="478" y="155" on="0"/>
        <pt x="615" y="703" on="0"/>
        <pt x="690" y="952" on="1"/>
        <pt x="519" y="947" on="0"/>
        <pt x="280" y="918" on="0"/>
        <pt x="186" y="887" on="1"/>
        <pt x="150" y="1028" on="1"/>
        <pt x="309" y="1095" on="0"/>
        <pt x="735" y="1102" on="1"/>
        <pt x="808" y="1341" on="0"/>
        <pt x="866" y="1483" on="1"/>
        <pt x="1032" y="1438" on="1"/>
        <pt x="988" y="1335" on="0"/>
        <pt x="911" y="1093" on="1"/>
        <pt x="1179" y="1053" on="0"/>
        <pt x="1451" y="807" on="0"/>
        <pt x="1451" y="610" on="1"/>
        <pt x="1451" y="418" on="0"/>
        <pt x="1304" y="270" on="1"/>
        <pt x="1175" y="377" on="1"/>
        <pt x="1275" y="483" on="0"/>
        <pt x="1275" y="596" on="1"/>
        <pt x="1275" y="874" on="0"/>
        <pt x="867" y="947" on="1"/>
        <pt x="684" y="338" on="0"/>
        <pt x="629" y="-31" on="1"/>
      </contour>
    </TTGlyph>
    <TTGlyph name="glyph00128" xMin="-40" yMin="-31" xMax="1153" yMax="1483">
      <contour>
        <pt x="616" y="-22" on="1"/>
        <pt x="531" y="199" on="0"/>
        <pt x="401" y="329" on="1"/>
        <pt x="352" y="124" on="0"/>
        <pt x="328" y="-31" on="1"/>
        <pt x="154" y="-16" on="1"/>
        <pt x="178" y="153" on="0"/>
        <pt x="248" y="437" on="1"/>
        <pt x="162" y="478" on="0"/>
        <pt x="63" y="478" on="1"/>
        <pt x="19" y="478" on="0"/>
        <pt x="-22" y="471" on="1"/>
        <pt x="-40" y="643" on="1"/>
        <pt x="5" y="651" on="0"/>
        <pt x="68" y="651" on="1"/>
        <pt x="182" y="651" on="0"/>
        <pt x="292" y="608" on="1"/>
        <pt x="455" y="1216" on="0"/>
        <pt x="565" y="1483" on="1"/>
        <pt x="731" y="1438" on="1"/>
        <pt x="684" y="1326" on="0"/>
        <pt x="612" y="1094" on="1"/>
        <pt x="881" y="1054" on="0"/>
        <pt x="1153" y="806" on="0"/>
        <pt x="1153" y="610" on="1"/>
        <pt x="1153" y="418" on="0"/>
        <pt x="1006" y="270" on="1"/>
        <pt x="877" y="377" on="1"/>
        <pt x="977" y="483" on="0"/>
        <pt x="977" y="596" on="1"/>
        <pt x="977" y="736" on="0"/>
        <pt x="778" y="911" on="0"/>
        <pt x="569" y="948" on="1"/>
        <pt x="504" y="732" on="0"/>
        <pt x="449" y="518" on="1"/>
        <pt x="652" y="360" on="0"/>
        <pt x="778" y="58" on="1"/>
      </contour>
    </TTGlyph>
    <TTGlyph name="glyph00129" xMin="180" yMin="-33" xMax="1516" yMax="1466">
      <contour>
        <pt x="1036" y="-22" on="1"/>
        <pt x="973" y="141" on="0"/>
        <pt x="884" y="257" on="1"/>
        <pt x="829" y="122" on="0"/>
        <pt x="754" y="-33" on="1"/>
        <pt x="590" y="12" on="1"/>
        <pt x="683" y="195" on="0"/>
        <pt x="753" y="387" on="1"/>
        <pt x="630" y="478" on="0"/>
        <pt x="483" y="478" on="1"/>
        <pt x="439" y="478" on="0"/>
        <pt x="398" y="471" on="1"/>
        <pt x="380" y="643" on="1"/>
        <pt x="425" y="651" on="0"/>
        <pt x="488" y="651" on="1"/>
        <pt x="660" y="651" on="0"/>
        <pt x="810" y="558" on="1"/>
        <pt x="881" y="793" on="0"/>
        <pt x="881" y="971" on="1"/>
        <pt x="881" y="1140" on="0"/>
        <pt x="740" y="1315" on="0"/>
        <pt x="602" y="1315" on="1"/>
        <pt x="490" y="1315" on="0"/>
        <pt x="352" y="1199" on="0"/>
        <pt x="352" y="1104" on="1"/>
        <pt x="352" y="992" on="0"/>
        <pt x="453" y="885" on="1"/>
        <pt x="324" y="778" on="1"/>
        <pt x="180" y="922" on="0"/>
        <pt x="180" y="1098" on="1"/>
        <pt x="180" y="1202" on="0"/>
        <pt x="286" y="1371" on="0"/>
        <pt x="478" y="1466" on="0"/>
        <pt x="602" y="1466" on="1"/>
        <pt x="824" y="1466" on="0"/>
        <pt x="1057" y="1224" on="0"/>
        <pt x="1057" y="979" on="1"/>
        <pt x="1057" y="879" on="0"/>
        <pt x="1038" y="778" on="1"/>
        <pt x="1276" y="732" on="0"/>
        <pt x="1516" y="493" on="0"/>
        <pt x="1516" y="307" on="1"/>
        <pt x="1516" y="117" on="0"/>
        <pt x="1368" y="-33" on="1"/>
        <pt x="1239" y="74" on="1"/>
        <pt x="1339" y="180" on="0"/>
        <pt x="1339" y="293" on="1"/>
        <pt x="1339" y="420" on="0"/>
        <pt x="1178" y="587" on="0"/>
        <pt x="1008" y="629" on="1"/>
        <pt x="986" y="540" on="0"/>
        <pt x="952" y="443" on="1"/>
        <pt x="1100" y="291" on="0"/>
        <pt x="1198" y="58" on="1"/>
      </contour>
    </TTGlyph>
    <TTGlyph name="glyph00130" xMin="180" yMin="-10" xMax="1668" yMax="1497">
      <contour>
        <pt x="1668" y="1462" on="1"/>
        <pt x="1390" y="-10" on="0"/>
        <pt x="660" y="-10" on="1"/>
        <pt x="507" y="-10" on="0"/>
        <pt x="339" y="90" on="0"/>
        <pt x="339" y="204" on="1"/>
        <pt x="339" y="291" on="0"/>
        <pt x="468" y="418" on="0"/>
        <pt x="637" y="488" on="1"/>
        <pt x="803" y="555" on="0"/>
        <pt x="965" y="711" on="0"/>
        <pt x="965" y="817" on="1"/>
        <pt x="965" y="901" on="0"/>
        <pt x="871" y="969" on="0"/>
        <pt x="776" y="969" on="1"/>
        <pt x="705" y="969" on="0"/>
        <pt x="565" y="952" on="0"/>
        <pt x="487" y="952" on="1"/>
        <pt x="341" y="952" on="0"/>
        <pt x="180" y="1093" on="0"/>
        <pt x="180" y="1221" on="1"/>
        <pt x="180" y="1324" on="0"/>
        <pt x="325" y="1479" on="0"/>
        <pt x="432" y="1497" on="1"/>
        <pt x="483" y="1356" on="1"/>
        <pt x="422" y="1340" on="0"/>
        <pt x="352" y="1266" on="0"/>
        <pt x="352" y="1217" on="1"/>
        <pt x="352" y="1112" on="0"/>
        <pt x="512" y="1112" on="1"/>
        <pt x="583" y="1112" on="0"/>
        <pt x="723" y="1128" on="0"/>
        <pt x="801" y="1128" on="1"/>
        <pt x="976" y="1128" on="0"/>
        <pt x="1141" y="984" on="0"/>
        <pt x="1141" y="817" on="1"/>
        <pt x="1141" y="683" on="0"/>
        <pt x="980" y="482" on="0"/>
        <pt x="801" y="395" on="1"/>
        <pt x="757" y="376" on="1"/>
        <pt x="515" y="276" on="0"/>
        <pt x="515" y="210" on="1"/>
        <pt x="515" y="173" on="0"/>
        <pt x="585" y="141" on="0"/>
        <pt x="660" y="141" on="1"/>
        <pt x="851" y="141" on="0"/>
        <pt x="1186" y="465" on="0"/>
        <pt x="1440" y="1086" on="0"/>
        <pt x="1500" y="1490" on="1"/>
      </contour>
    </TTGlyph>
    <TTGlyph name="glyph00131" xMin="120" yMin="-591" xMax="1502" yMax="1466">
      <contour>
        <pt x="281" y="298" on="1"/>
        <pt x="281" y="252" on="0"/>
        <pt x="346" y="221" on="0"/>
        <pt x="423" y="221" on="1"/>
        <pt x="486" y="221" on="0"/>
        <pt x="612" y="235" on="0"/>
        <pt x="679" y="237" on="1"/>
        <pt x="867" y="685" on="0"/>
        <pt x="867" y="971" on="1"/>
        <pt x="867" y="1140" on="0"/>
        <pt x="726" y="1315" on="0"/>
        <pt x="588" y="1315" on="1"/>
        <pt x="476" y="1315" on="0"/>
        <pt x="338" y="1199" on="0"/>
        <pt x="338" y="1104" on="1"/>
        <pt x="338" y="992" on="0"/>
        <pt x="439" y="885" on="1"/>
        <pt x="310" y="778" on="1"/>
        <pt x="166" y="922" on="0"/>
        <pt x="166" y="1098" on="1"/>
        <pt x="166" y="1202" on="0"/>
        <pt x="272" y="1371" on="0"/>
        <pt x="464" y="1466" on="0"/>
        <pt x="588" y="1466" on="1"/>
        <pt x="810" y="1466" on="0"/>
        <pt x="1043" y="1224" on="0"/>
        <pt x="1043" y="979" on="1"/>
        <pt x="1043" y="879" on="0"/>
        <pt x="1024" y="778" on="1"/>
        <pt x="1262" y="732" on="0"/>
        <pt x="1502" y="493" on="0"/>
        <pt x="1502" y="307" on="1"/>
        <pt x="1502" y="117" on="0"/>
        <pt x="1354" y="-33" on="1"/>
        <pt x="1225" y="74" on="1"/>
        <pt x="1325" y="180" on="0"/>
        <pt x="1325" y="293" on="1"/>
        <pt x="1325" y="420" on="0"/>
        <pt x="1164" y="587" on="0"/>
        <pt x="994" y="629" on="1"/>
        <pt x="939" y="421" on="0"/>
        <pt x="853" y="216" on="1"/>
        <pt x="1033" y="158" on="0"/>
        <pt x="1033" y="-41" on="1"/>
        <pt x="1033" y="-450" on="0"/>
        <pt x="295" y="-591" on="1"/>
        <pt x="259" y="-453" on="1"/>
        <pt x="573" y="-396" on="0"/>
        <pt x="866" y="-198" on="0"/>
        <pt x="866" y="-44" on="1"/>
        <pt x="866" y="88" on="0"/>
        <pt x="676" y="88" on="1"/>
        <pt x="610" y="88" on="0"/>
        <pt x="473" y="71" on="0"/>
        <pt x="400" y="71" on="1"/>
        <pt x="269" y="71" on="0"/>
        <pt x="120" y="184" on="0"/>
        <pt x="120" y="295" on="1"/>
        <pt x="120" y="383" on="0"/>
        <pt x="260" y="521" on="0"/>
        <pt x="354" y="533" on="1"/>
        <pt x="402" y="418" on="1"/>
        <pt x="347" y="405" on="0"/>
        <pt x="281" y="340" on="0"/>
      </contour>
    </TTGlyph>
    <TTGlyph name="glyph00132" xMin="180" yMin="-27" xMax="1170" yMax="1836">
      <contour>
        <pt x="1086" y="1501" on="1"/>
        <pt x="1123" y="1463" on="0"/>
        <pt x="1170" y="1319" on="0"/>
        <pt x="1170" y="1256" on="1"/>
        <pt x="1170" y="1057" on="0"/>
        <pt x="966" y="829" on="0"/>
        <pt x="768" y="807" on="1"/>
        <pt x="776" y="716" on="0"/>
        <pt x="776" y="658" on="1"/>
        <pt x="776" y="454" on="0"/>
        <pt x="663" y="68" on="0"/>
        <pt x="581" y="-27" on="1"/>
        <pt x="436" y="44" on="1"/>
        <pt x="507" y="123" on="0"/>
        <pt x="600" y="489" on="0"/>
        <pt x="600" y="666" on="1"/>
        <pt x="596" y="804" on="1"/>
        <pt x="404" y="820" on="0"/>
        <pt x="180" y="1030" on="0"/>
        <pt x="180" y="1192" on="1"/>
        <pt x="180" y="1271" on="0"/>
        <pt x="255" y="1444" on="0"/>
        <pt x="308" y="1495" on="1"/>
        <pt x="438" y="1400" on="1"/>
        <pt x="404" y="1370" on="0"/>
        <pt x="357" y="1260" on="0"/>
        <pt x="357" y="1206" on="1"/>
        <pt x="357" y="952" on="0"/>
        <pt x="677" y="952" on="1"/>
        <pt x="834" y="952" on="0"/>
        <pt x="998" y="1102" on="0"/>
        <pt x="998" y="1249" on="1"/>
        <pt x="998" y="1289" on="0"/>
        <pt x="969" y="1396" on="0"/>
        <pt x="941" y="1439" on="1"/>
      </contour>
      <contour>
        <pt x="666" y="1034" on="1"/>
        <pt x="709" y="1091" on="0"/>
        <pt x="767" y="1209" on="0"/>
        <pt x="767" y="1237" on="1"/>
        <pt x="767" y="1259" on="0"/>
        <pt x="731" y="1276" on="0"/>
        <pt x="700" y="1279" on="1"/>
        <pt x="583" y="1291" on="0"/>
        <pt x="445" y="1431" on="0"/>
        <pt x="445" y="1535" on="1"/>
        <pt x="445" y="1682" on="0"/>
        <pt x="606" y="1836" on="0"/>
        <pt x="766" y="1836" on="1"/>
        <pt x="815" y="1836" on="0"/>
        <pt x="956" y="1803" on="0"/>
        <pt x="1013" y="1775" on="1"/>
        <pt x="964" y="1653" on="1"/>
        <pt x="923" y="1676" on="0"/>
        <pt x="808" y="1706" on="0"/>
        <pt x="761" y="1706" on="1"/>
        <pt x="687" y="1706" on="0"/>
        <pt x="590" y="1631" on="0"/>
        <pt x="590" y="1567" on="1"/>
        <pt x="590" y="1492" on="0"/>
        <pt x="665" y="1416" on="0"/>
        <pt x="740" y="1406" on="1"/>
        <pt x="825" y="1395" on="0"/>
        <pt x="913" y="1322" on="0"/>
        <pt x="913" y="1239" on="1"/>
        <pt x="913" y="1141" on="0"/>
        <pt x="821" y="1014" on="1"/>
      </contour>
    </TTGlyph>
</ttFont>
